<?xml version="1.0" standalone="no"?>
<!DOCTYPE svg PUBLIC "-//W3C//DTD SVG 1.1//EN" "http://www.w3.org/Graphics/SVG/1.1/DTD/svg11.dtd" >
<svg xmlns="http://www.w3.org/2000/svg" xmlns:xlink="http://www.w3.org/1999/xlink" version="1.1">
<metadata>
Created by FontForge 20170731 at Tue Dec 24 05:47:35 2013
 By Aleksey,,,
Copyright 2013. beIN Corporation, All Rights Reserved.
</metadata>
<defs>
<font id="beINNormal" horiz-adv-x="621" >
  <font-face 
    font-family="beIN Normal "
    font-weight="400"
    font-stretch="normal"
    units-per-em="2048"
    panose-1="2 0 0 0 0 0 0 0 0 0"
    ascent="1638"
    descent="-410"
    x-height="1022"
    cap-height="1409"
    bbox="-258 -1038 2837 2387.88"
    underline-thickness="100"
    underline-position="-900"
    unicode-range="U+0001-FEFF"
  />
<missing-glyph horiz-adv-x="0" 
 />
    <glyph glyph-name="shaddawithfathatanisolated" unicode="&#x651;&#x64b;" 
d="M81 1951v71h461v-71h-461zM81 1807v71h461v-71h-461zM542 1592q0 -21 -7.5 -40t-21.5 -33t-33 -22t-40 -8h-257q-42 0 -72 30t-30 73v126h72v-116q0 -17 12 -29t29 -12h84v157h72v-157h80q17 0 29 12t12 29v116h71v-126z" />
    <glyph glyph-name="fathaonhamza" unicode="&#x674;&#x64e;" horiz-adv-x="678" 
d="M606 1685q0 -43 -30 -73t-72 -30h-257q-43 0 -73 30t-30 73v127h72v-117q0 -17 12 -29t29 -12h85v158h71v-158h80q17 0 29 12t12 29v117h72v-127zM144 1435v72h462v-72h-462zM144 1291v72h462v-72h-462z" />
    <glyph glyph-name="fathatanonhamza" unicode="&#x674;&#x64b;" 
d="M583 1716q-32 -10 -212 -94q-155 -73 -201 -73h-100q106 49 212 97q152 70 200 70h101zM554 1345q-28 -60 -60 -144q-119 13 -384 -148q24 48 44 75q30 44 82 89q-8 -1 -18 -1q-74 0 -74 65q0 10 4 24q27 92 110 194q47 54 103 54q61 0 121 -65q-26 -30 -82 -84
q-25 21 -60 21q-55 0 -102 -52q11 -60 137 -73q104 39 179 45z" />
    <glyph glyph-name="sukunonhamza" unicode="&#x674;&#x652;" 
d="M545 1797q-32 -10 -212 -94q-155 -73 -201 -73h-100q106 49 212 97q152 70 200 70h101zM583 1686q-32 -10 -212 -94q-155 -73 -201 -73h-100q106 49 212 97q152 70 200 70h101zM554 1332q-28 -60 -60 -144q-119 13 -384 -148q24 48 44 75q30 44 82 89q-8 -1 -18 -1
q-74 0 -74 65q0 10 4 24q27 92 110 194q47 54 103 54q61 0 121 -65q-26 -30 -82 -84q-25 21 -60 21q-55 0 -102 -52q11 -60 137 -73q104 39 179 45z" />
    <glyph glyph-name="dammaonhamza" unicode="&#x674;&#x64f;" 
d="M363 1637q0 -49 -38 -83t-90 -34q-53 0 -90.5 32.5t-37.5 74.5q0 50 64 116l84 86q0 -45 54 -99t54 -93zM297 1629q0 22 -22 46.5t-44 47.5q-19 -21 -38.5 -42.5t-19.5 -43.5q0 -56 60 -56q22 0 43 14.5t21 33.5zM552 1299q-28 -60 -60 -144q-119 13 -384 -148
q24 48 44 75q30 44 82 89q-8 -1 -18 -1q-74 0 -74 65q0 10 4 24q27 92 110 194q47 54 103 54q61 0 121 -65q-26 -30 -82 -84q-25 21 -60 21q-55 0 -102 -52q11 -60 137 -73q104 39 179 45z" />
    <glyph glyph-name="dammatanonhamza" unicode="&#x674;&#x64c;" 
d="M577 1658q-36 -76 -75 -180q-149 16 -481 -185q30 60 55 93q38 55 103 112q-10 -2 -22 -2q-93 0 -93 82q0 12 5 30q34 115 137 242q59 68 129 68q76 0 152 -82q-33 -37 -103 -105q-31 27 -75 27q-69 0 -128 -65q14 -75 172 -92q130 49 224 57zM432 2112q-13 9 -36 16
q-42 -73 -88.5 -124t-100.5 -78q-45 -21 -92.5 -34.5t-98.5 -22.5q172 95 337 264q-10 -2 -25.5 -1.5t-34.5 2.5q-21 2 -29 15t-6 37q8 100 65 148q11 12 26 10.5t29 -16.5q20 -20 30 -49.5t10 -65.5v-12q14 -6 25 -11.5t18 -9.5zM363 2213q-10 61 -34 61q-8 0 -19 -9
q-22 -18 -22 -30q0 -26 51 -26q16 0 24 4z" />
    <glyph glyph-name="shaddawithdammatanisolated" unicode="&#x651;&#x64c;" arabic-form="isolated" 
d="M545 1845h-72v-116q0 -17 -12 -29t-29 -12h-80v157h-72v-157h-84q-17 0 -29 12t-12 29v116h-72v-126q0 -43 30 -73t72 -30h257q43 0 73 30t30 73v126zM203 1909q-8 3 -13 11q-9 10 -10 20.5t-1 24.5l7 77l-73 -41l-34 63l101 56q6 5 22.5 9.5t34.5 -6.5q23 -15 23 -52v-1
l-7 -98q29 -4 57 -0.5t55 11.5q-18 14 -29.5 33.5t-15.5 40.5q-7 26 -2 53t19 49q32 46 90 49q29 1 54.5 -11t40.5 -33q36 -47 20 -103q-10 -34 -34 -61q9 -2 17.5 -4t17.5 -4l-14 -72q-21 5 -42 10.5t-42 13.5q-11 -8 -22 -13t-19 -9q-83 -33 -176 -20q-5 2 -11.5 3
t-13.5 4zM452 2132q-14 6 -27 3.5t-22.5 -11.5t-14 -22.5t0.5 -28.5q4 -19 16.5 -29t28.5 -18q14 11 24.5 25.5t14.5 29.5q4 14 -1 28.5t-20 22.5z" />
    <glyph glyph-name="shaddawithkasratanisolated" unicode="&#x651;&#x64d;" horiz-adv-x="678" arabic-form="isolated" 
d="M574 2060q0 -43 -30 -73t-72 -30h-257q-43 0 -73 30t-30 73v127h72v-117q0 -17 12 -29t29 -12h85v158h71v-158h80q17 0 29 12t12 29v117h72v-127zM112 1810v72h462v-72h-462zM112 1666v72h462v-72h-462z" />
    <glyph glyph-name="shaddawithfathaisolated" unicode="&#x651;&#x64e;" arabic-form="isolated" 
d="M78 1944v71h461v-71h-461zM539 1729q0 -21 -7.5 -40t-21.5 -33t-33 -22t-40 -8h-257q-42 0 -72 30t-30 73v126h72v-116q0 -17 12 -29t29 -12h84v157h72v-157h80q17 0 29 12t12 29v116h71v-126z" />
    <glyph glyph-name="shaddawithdammaisolated" unicode="&#x651;&#x64f;" arabic-form="isolated" 
d="M539 1628h-72v-116q0 -17 -12 -29t-29 -12h-79v157h-72v-157h-85q-17 0 -29 12t-12 29v116h-71v-126q0 -21 8 -40t22 -33q28 -30 72 -30h257q42 0 72 30t30 73v126zM118 1721l22 68q37 -12 77 -19.5t82 1.5q-32 32 -37 78q-3 27 5 53t25 46q18 20 42 30t52 8
q29 -3 52.5 -17t37.5 -37q30 -51 8 -105q-7 -17 -17.5 -31t-23.5 -26q8 -4 16.5 -6.5t17.5 -5.5l-23 -69q-20 7 -40.5 14.5t-40.5 18.5q-25 -13 -43 -17q-30 -8 -58.5 -9.5t-55 1.5t-51.5 9.5t-47 14.5zM403 1907q-13 8 -26.5 7t-23.5 -8.5t-16 -20.5t-4 -28q1 -9 5.5 -20
t17.5 -21q5 -4 8.5 -6.5t8.5 -5.5q14 11 26.5 23.5t18.5 27.5q5 14 2 29t-17 23z" />
    <glyph glyph-name="shaddawithkasraisolated" unicode="&#x651;&#x650;" horiz-adv-x="640" arabic-form="isolated" 
d="M555 1619q0 -43 -30 -73t-72 -30h-257q-43 0 -73 30t-30 73v127h72v-117q0 -17 12 -29t29 -12h85v158h71v-158h80q17 0 29 12t12 29v117h72v-127zM93 1369v72h462v-72h-462z" />
    <glyph glyph-name="shaddawithfathamedial" unicode="&#x640;&#x651;&#x64e;" horiz-adv-x="1033" arabic-form="medial" 
d="M188 1545v71h461v-71h-461zM649 1330q0 -21 -7.5 -40t-21.5 -33t-33 -22t-40 -8h-257q-42 0 -72 30t-30 73v126h72v-116q0 -17 12 -29t29 -12h84v157h72v-157h80q17 0 29 12t12 29v116h71v-126zM-42 189h1120v-189h-1120v189z" />
    <glyph glyph-name="shaddawithdammamedial" unicode="&#x640;&#x651;&#x64f;" horiz-adv-x="1033" arabic-form="medial" 
d="M677 1457h-72v-116q0 -17 -12 -29t-29 -12h-79v157h-72v-157h-85q-17 0 -29 12t-12 29v116h-71v-126q0 -21 8 -40t22 -33q28 -30 72 -30h257q42 0 72 30t30 73v126zM256 1550l22 68q37 -12 77 -19.5t82 1.5q-32 32 -37 78q-3 27 5 53t25 46q18 20 42 30t52 8
q29 -3 52.5 -17t37.5 -37q30 -51 8 -105q-7 -17 -17.5 -31t-23.5 -26q8 -4 16.5 -6.5t17.5 -5.5l-23 -69q-20 7 -40.5 14.5t-40.5 18.5q-25 -13 -43 -17q-30 -8 -58.5 -9.5t-55 1.5t-51.5 9.5t-47 14.5zM541 1736q-13 8 -26.5 7t-23.5 -8.5t-16 -20.5t-4 -28q1 -9 5.5 -20
t17.5 -21q5 -4 8.5 -6.5t8.5 -5.5q14 11 26.5 23.5t18.5 27.5q5 14 2 29t-17 23zM-42 0h1120v189h-1120v-189z" />
    <glyph glyph-name="shaddawithkasramedial" unicode="&#x640;&#x651;&#x650;" horiz-adv-x="1033" arabic-form="medial" 
d="M795 1543q0 -43 -30 -73t-72 -30h-257q-43 0 -73 30t-30 73v127h72v-117q0 -17 12 -29t29 -12h85v158h71v-158h80q17 0 29 12t12 29v117h72v-127zM333 1293v72h462v-72h-462zM-42 189h1120v-189h-1120v189z" />
    <glyph glyph-name="alefwithfathatanfinal" unicode="&#xfe8e;&#x64b;" horiz-adv-x="463" arabic-form="final" 
d="M295 1345v-1035q0 -25 9.5 -47t26 -38.5t38.5 -26t47 -9.5h89v-189h-89q-64 0 -120.5 24.5t-99 66.5t-67 98.5t-24.5 120.5v1035h190zM417 1525h-462v72h462v-72zM417 1669h-462v72h462v-72z" />
    <glyph glyph-name="alefwithfathatanisolated" unicode="&#xfe8d;&#x64b;" horiz-adv-x="399" arabic-form="isolated" 
d="M105 1345v-1345h189v1345h-189zM431 1525h-462v72h462v-72zM431 1669h-462v72h462v-72z" />
    <glyph glyph-name="allahisolated" unicode="&#xfedf;&#xfee0;&#xfeea;" horiz-adv-x="2140" arabic-form="isolated" 
d="M2035 1345v-1035q0 -64 -24.5 -120.5t-66.5 -98.5t-99 -66.5t-121 -24.5h-933v527q1 51 -18.5 96.5t-53.5 80t-79.5 55t-96.5 20.5t-96.5 -20t-79 -55t-53 -82t-19.5 -101v-213q0 -25 9.5 -46.5t25.5 -37.5t37.5 -25.5t46.5 -9.5h207v-189h-207q-64 0 -120 24t-98 66
t-66.5 98t-24.5 120v213q0 93 34.5 174.5t94 142t139 96t170.5 35.5q90 0 170 -35.5t139.5 -96t94 -141t34.5 -169.5v-338h329v1156h189v-1156h225q25 0 47 9.5t38.5 26t26 38.5t9.5 47v1035h190z" />
    <glyph glyph-name="tatweelwithfathatanabove" unicode="&#x640;&#x64b;" horiz-adv-x="1033" arabic-form="medial" 
d="M608 1275h-462v72h462v-72zM608 1419h-462v72h462v-72zM-42 0h1120v189h-1120v-189z" />
    <glyph glyph-name="fathamedial" unicode="&#x640;&#x64e;" horiz-adv-x="1033" arabic-form="medial" 
d="M756 1316h-462v72h462v-72zM-42 0h1120v189h-1120v-189z" />
    <glyph glyph-name="dammamedial" unicode="&#x640;&#x64f;" horiz-adv-x="1033" arabic-form="medial" 
d="M318 1219l-17 69q38 10 75.5 25t68.5 44q-45 11 -73 47q-17 21 -24 47.5t-3 52.5q5 26 20 47.5t39 34.5q26 13 54 13.5t52 -11.5q53 -28 62 -85q6 -33 -4 -70q9 2 17.5 4t17.5 4l17 -70q-20 -5 -41.5 -9.5t-44.5 -6.5q-7 -11 -14 -20.5t-13 -16.5q-43 -46 -92.5 -67
t-96.5 -32zM461 1528q-15 0 -26 -8t-15.5 -20t-3 -26t11.5 -26q5 -7 15 -13.5t27 -8.5q5 -1 10 -1h10q7 17 10.5 34t0.5 33q-2 14 -13 25t-27 11zM-42 0h1120v189h-1120v-189z" />
    <glyph glyph-name="kasramedial" unicode="&#x640;&#x650;" horiz-adv-x="1033" arabic-form="medial" 
d="M715 -396h-462v72h462v-72zM-42 189h1120v-189h-1120v189z" />
    <glyph glyph-name="shaddamedial" unicode="&#x640;&#x651;" horiz-adv-x="1033" arabic-form="medial" 
d="M352 1294q-21 0 -39.5 8t-32.5 22t-22 33t-8 40v126h72v-116q0 -17 12 -29t29 -12h84v157h72v-157h80q17 0 29 12t12 29v116h71v-126q0 -21 -8 -40t-21.5 -33t-32.5 -22t-40 -8h-257zM-42 0h1120v189h-1120v-189z" />
    <glyph glyph-name="sukunmedial" unicode="&#x640;&#x652;" horiz-adv-x="1033" arabic-form="medial" 
d="M438 1285q-33 0 -62 12.5t-50.5 34.5t-34 50.5t-12.5 61.5t12.5 62t34 50.5t50.5 34t62 12.5t61.5 -12.5t50 -34t34 -50.5t12.5 -62t-12.5 -61.5t-34 -50.5t-50 -34.5t-61.5 -12.5zM438 1531q-37 0 -62.5 -25.5t-25.5 -61.5t25.5 -61.5t62.5 -25.5q18 0 33.5 7t27 18.5
t18.5 27.5t7 34t-7 34t-18.5 27.5t-27 18.5t-33.5 7zM-42 0h1120v189h-1120v-189z" />
    <glyph glyph-name="lamwithalefmaddaaboveisolatedd" unicode="&#xfedf;&#xfe82;" horiz-adv-x="1185" arabic-form="isolated" 
d="M474 969v-780h296q25 0 47 9.5t38.5 26t26 38.5t9.5 48v1034h189v-1034q0 -65 -24.5 -121.5t-66.5 -98.5t-98.5 -66.5t-120.5 -24.5h-665v189h180v780h189zM550 1146q-26 -42 -54 -60.5t-58 -18.5q-24 0 -43 6.5t-34.5 14.5t-30 14.5t-30 6t-32.5 -11t-39 -35.5l-50 69
q21 23 37 38t29 23.5t25 12t26 3.5q30 0 54 -13t47.5 -21.5t48 -2.5t54.5 44z" />
    <glyph glyph-name="lamwithalefmaddaabovefinal" unicode="&#xfee0;&#xfe82;" horiz-adv-x="1233" arabic-form="final" 
d="M474 969v-780h418v1156h190v-1156h193v-189h-1170v189h180v780h189zM550 1146q-26 -42 -54 -60.5t-58 -18.5q-24 0 -43 6.5t-34.5 14.5t-30 14.5t-30 6t-32.5 -11t-39 -35.5l-50 69q21 23 37 38t29 23.5t25 12t26 3.5q30 0 54 -13t47.5 -21.5t48 -2.5t54.5 44z" />
    <glyph glyph-name="lamwithalefhamzaaboveisolatedd" unicode="&#xfedf;&#xfe84;" horiz-adv-x="1185" arabic-form="isolated" 
d="M474 969v-780h296q25 0 47 9.5t38.5 26t26 38.5t9.5 48v1034h189v-1034q0 -65 -24.5 -121.5t-66.5 -98.5t-98.5 -66.5t-120.5 -24.5h-665v189h180v780h189zM488 1306h-80h1q-34 -1 -49.5 -20.5t-15.5 -42.5q0 -15 3 -29t8 -25.5t12.5 -18.5t15.5 -7h142v-94h-308v94h49
q-16 40 -16 80q0 30 8.5 58t27 50t48.5 35.5t73 14.5h81v-95z" />
    <glyph glyph-name="lamwithalefhamzaabovefinal" unicode="&#xfee0;&#xfe84;" horiz-adv-x="1233" arabic-form="final" 
d="M474 969v-780h418v1156h190v-1156h193v-189h-1170v189h180v780h189zM488 1306h-80h1q-34 -1 -49.5 -20.5t-15.5 -42.5q0 -15 3 -29t8 -25.5t12.5 -18.5t15.5 -7h142v-94h-308v94h49q-16 40 -16 80q0 30 8.5 58t27 50t48.5 35.5t73 14.5h81v-95z" />
    <glyph glyph-name="lamwithalefhamzabelowisolated" unicode="&#xfedf;&#xfe88;" horiz-adv-x="1185" arabic-form="isolated" 
d="M474 969v-780h296q25 0 47 9.5t38.5 26t26 38.5t9.5 48v1034h189v-1034q0 -65 -24.5 -121.5t-66.5 -98.5t-98.5 -66.5t-120.5 -24.5h-665v189h180v780h189zM474 -195h-80h1q-34 -1 -49.5 -20.5t-15.5 -42.5q0 -15 3 -29t8 -25.5t12.5 -18.5t15.5 -7h142v-94h-308v94h49
q-16 40 -16 80q0 30 8.5 58t27 50t48.5 35.5t73 14.5h81v-95z" />
    <glyph glyph-name="lamwithalefhamzabelowfinal" unicode="&#xfee0;&#xfe88;" horiz-adv-x="1233" arabic-form="final" 
d="M474 969v-780h418v1156h190v-1156h193v-189h-1170v189h180v780h189zM474 -195h-80h1q-34 -1 -49.5 -20.5t-15.5 -42.5q0 -15 3 -29t8 -25.5t12.5 -18.5t15.5 -7h142v-94h-308v94h49q-16 40 -16 80q0 30 8.5 58t27 50t48.5 35.5t73 14.5h81v-95z" />
    <glyph glyph-name="lamwithalefisolated" unicode="&#xfedf;&#xfe8e;" horiz-adv-x="1185" arabic-form="isolated" 
d="M474 969v-780h296q25 0 47 9.5t38.5 26t26 38.5t9.5 48v1034h189v-1034q0 -65 -24.5 -121.5t-66.5 -98.5t-98.5 -66.5t-120.5 -24.5h-665v189h180v780h189z" />
    <glyph glyph-name="lamwithaleffinal" unicode="&#xfee0;&#xfe8e;" horiz-adv-x="1233" arabic-form="final" 
d="M474 969v-780h418v1156h190v-1156h193v-189h-1170v189h180v780h189z" />
    <glyph glyph-name="alefwaslaisolated" unicode="&#x671;" arabic-form="isolated" 
d="M577 1658q-36 -76 -75 -180q-149 16 -481 -185q30 60 55 93q38 55 103 112q-10 -2 -22 -2q-93 0 -93 82q0 12 5 30q34 115 137 242q59 68 129 68q76 0 152 -82q-33 -37 -103 -105q-31 27 -75 27q-69 0 -128 -65q14 -75 172 -92q130 49 224 57zM449 2197q-2 -5 -7 -14.5
t-11 -20.5t-11 -21t-7 -17q-6 7 -16.5 11.5t-18.5 6.5q-27 -49 -59 -89t-67 -69t-71 -45t-69 -22q4 13 9.5 24.5t10.5 26.5q8 25 2.5 42t-20.5 24.5t-36.5 6t-46 -13.5t-49.5 -34t-46 -55q24 44 48 79t50.5 58.5t54.5 31.5t60 -3q23 -8 30 -32.5t-15 -66.5q41 18 68 33
t45.5 31.5t33 36t30.5 43.5q-21 -5 -43.5 -7t-52.5 7q-15 2 -19.5 11.5t-4.5 17.5q0 51 13.5 98t43.5 86q20 29 42.5 25.5t47.5 -43.5q8 -15 13 -28.5t8.5 -27.5t5.5 -30.5t2 -36.5q11 -4 24.5 -8.5t27.5 -15.5zM350 2225q0 20 -1 38t-14 35q-2 5 -6.5 9.5t-10 6.5t-12 -0.5
t-13.5 -9.5q-11 -8 -17.5 -21t-11.5 -28q-3 -25 18.5 -30.5t67.5 0.5z" />
    <glyph glyph-name="alefwaslafinal" unicode="&#x671;" horiz-adv-x="463" arabic-form="final" 
d="M295 1345v-1035q0 -25 9.5 -47t26 -38.5t38.5 -26t47 -9.5h89v-189h-89q-64 0 -120.5 24.5t-99 66.5t-67 98.5t-24.5 120.5v1035h190zM434 1625q0 -17 -42 -74q-72 -95 -209 -95q-82 0 -182 34q-29 -26 -91 -74q0 17 -3 43q42 43 128 126q39 -30 93 -38q136 120 216 120
q90 0 90 -42zM355 1562q-6 44 -48 44q-48 0 -143 -65q32 -2 60 -2q80 0 131 23z" />
    <glyph glyph-name="pehisolated" unicode="&#x67e;" horiz-adv-x="1423" arabic-form="isolated" 
d="M1318 969v-658q0 -65 -24 -121.5t-66 -98.5t-98.5 -66.5t-120.5 -24.5h-463q-92 0 -172 34.5t-140 94t-94.5 139.5t-34.5 171v353h190v-353q0 -52 19.5 -97.5t53.5 -79.5t79.5 -53.5t98.5 -19.5h463q25 0 47 9.5t38 26t25.5 38.5t9.5 48v658h189zM757 -278
q0 -20 -7.5 -37.5t-21 -31t-31 -21t-37.5 -7.5t-37.5 7.5t-30.5 21t-20.5 31t-7.5 37.5q0 40 28 68t68 28q20 0 37.5 -7.5t31 -20.5t21 -30.5t7.5 -37.5zM997 -278q0 -20 -7.5 -37.5t-20.5 -31t-30.5 -21t-37.5 -7.5t-37.5 7.5t-31 21t-21 31t-7.5 37.5t7.5 37.5t21 30.5
t31 20.5t37.5 7.5q40 0 68 -28t28 -68zM877 -463q0 -20 -7.5 -37.5t-20.5 -31t-30.5 -21t-37.5 -7.5t-38 7.5t-31 21t-20.5 31t-7.5 37.5q0 40 28 68t69 28q40 0 68 -28t28 -68z" />
    <glyph glyph-name="pehfinal" unicode="&#x67e;" horiz-adv-x="1470" arabic-form="final" 
d="M1319 969v-780h193v-189h-967q-91 0 -171 34.5t-140 94t-94.5 139.5t-34.5 171v353h190v-353q0 -52 19.5 -97.5t53.5 -79.5t79.5 -53.5t97.5 -19.5h584v780h190zM926 -481q0 -20 -7.5 -37.5t-20.5 -31t-30.5 -21t-37.5 -7.5t-37.5 7.5t-31 21t-21 31t-7.5 37.5t7.5 37.5
t21 31t31 21t37.5 7.5t37.5 -7.5t30.5 -21t20.5 -31t7.5 -37.5zM785 -276q0 -20 -7.5 -37.5t-21 -31t-31 -21t-37.5 -7.5t-37.5 7.5t-30.5 21t-20.5 31t-7.5 37.5q0 40 28 68t68 28q20 0 37.5 -7.5t31 -20.5t21 -30.5t7.5 -37.5zM1068 -276q0 -20 -7.5 -37.5t-21 -31
t-31 -21t-37.5 -7.5t-37.5 7.5t-31 21t-21 31t-7.5 37.5t7.5 37.5t21 30.5t31 20.5t37.5 7.5t37.5 -7.5t31 -20.5t21 -30.5t7.5 -37.5z" />
    <glyph glyph-name="pehinitial" unicode="&#x67e;" horiz-adv-x="578" arabic-form="initial" 
d="M471 969v-658q0 -65 -24.5 -121.5t-66.5 -98.5t-98.5 -66.5t-120.5 -24.5h-203v189h203q25 0 47 9.5t38.5 26t26 38.5t9.5 48v658h189zM331 -481q0 -20 -7.5 -37.5t-20.5 -31t-30.5 -21t-37.5 -7.5t-37.5 7.5t-31 21t-21 31t-7.5 37.5t7.5 37.5t21 31t31 21t37.5 7.5
t37.5 -7.5t30.5 -21t20.5 -31t7.5 -37.5zM190 -276q0 -20 -7.5 -37.5t-21 -31t-31 -21t-37.5 -7.5t-37.5 7.5t-30.5 21t-20.5 31t-7.5 37.5q0 40 28 68t68 28q20 0 37.5 -7.5t31 -20.5t21 -30.5t7.5 -37.5zM473 -276q0 -20 -7.5 -37.5t-21 -31t-31 -21t-37.5 -7.5t-37.5 7.5
t-31 21t-21 31t-7.5 37.5t7.5 37.5t21 30.5t31 20.5t37.5 7.5t37.5 -7.5t31 -20.5t21 -30.5t7.5 -37.5z" />
    <glyph glyph-name="pehmedial" unicode="&#x67e;" horiz-adv-x="623" arabic-form="medial" 
d="M471 969v-780h194v-189h-707v189h324v780h189zM329 -481q0 -20 -7.5 -37.5t-20.5 -31t-30.5 -21t-37.5 -7.5t-37.5 7.5t-31 21t-21 31t-7.5 37.5t7.5 37.5t21 31t31 21t37.5 7.5t37.5 -7.5t30.5 -21t20.5 -31t7.5 -37.5zM188 -276q0 -20 -7.5 -37.5t-21 -31t-31 -21
t-37.5 -7.5t-37.5 7.5t-30.5 21t-20.5 31t-7.5 37.5q0 40 28 68t68 28q20 0 37.5 -7.5t31 -20.5t21 -30.5t7.5 -37.5zM471 -276q0 -20 -7.5 -37.5t-21 -31t-31 -21t-37.5 -7.5t-37.5 7.5t-31 21t-21 31t-7.5 37.5t7.5 37.5t21 30.5t31 20.5t37.5 7.5t37.5 -7.5t31 -20.5
t21 -30.5t7.5 -37.5z" />
    <glyph glyph-name="vehisolated" unicode="&#x6a4;" horiz-adv-x="1874" arabic-form="isolated" 
d="M295 443q0 -53 20 -99t54.5 -80.5t80.5 -54.5t99 -20h352v347q0 93 34 172t93 137.5t137.5 91.5t168.5 33t169 -33.5t138 -91.5t93 -136t34 -167v-229q0 -71 -24.5 -128.5t-67 -98.5t-99.5 -63.5t-122 -22.5h-906q-92 0 -173 35t-141 95t-95 140.5t-35 172.5v349h190
v-349zM1091 189h364q52 0 87.5 33.5t35.5 90.5v229q0 50 -19 93.5t-52.5 75.5t-78 50.5t-94.5 18.5q-51 0 -95 -18.5t-77 -51.5t-52 -77.5t-19 -96.5v-347zM1240 1453q0 20 7.5 37.5t20.5 31t30.5 21t37.5 7.5t37.5 -7.5t31 -21t21 -31t7.5 -37.5t-7.5 -37.5t-21 -31
t-31 -21t-37.5 -7.5t-37.5 7.5t-30.5 21t-20.5 31t-7.5 37.5zM1381 1248q0 20 7.5 37.5t21 31t31 21t37.5 7.5t37.5 -7.5t30.5 -21t20.5 -31t7.5 -37.5q0 -40 -28 -68t-68 -28q-20 0 -37.5 7.5t-31 20.5t-21 30.5t-7.5 37.5zM1098 1248q0 20 7.5 37.5t21 31t31 21t37.5 7.5
t37.5 -7.5t31 -21t21 -31t7.5 -37.5t-7.5 -37.5t-21 -30.5t-31 -20.5t-37.5 -7.5t-37.5 7.5t-31 20.5t-21 30.5t-7.5 37.5z" />
    <glyph glyph-name="vehfinal" unicode="&#x6a4;" horiz-adv-x="1917" arabic-form="final" 
d="M548 0q-92 0 -172.5 35t-140.5 95t-95 140.5t-35 172.5v349h189v-349q0 -53 20 -99t54.5 -80.5t80.5 -54.5t99 -20h352v347q0 93 34 172t92.5 137.5t137.5 91.5t168 33q90 0 169 -33.5t138 -91.5t93 -136t34 -167v-353h193v-189h-1411zM1090 189h486v353q0 50 -19 93.5
t-52 75.5t-77.5 50.5t-95.5 18.5q-50 0 -94 -18.5t-77 -51.5t-52 -77.5t-19 -96.5v-347zM1237 1453q0 20 7.5 37.5t20.5 31t30.5 21t37.5 7.5t37.5 -7.5t31 -21t21 -31t7.5 -37.5t-7.5 -37.5t-21 -31t-31 -21t-37.5 -7.5t-37.5 7.5t-30.5 21t-20.5 31t-7.5 37.5zM1378 1248
q0 20 7.5 37.5t21 31t31 21t37.5 7.5t37.5 -7.5t30.5 -21t20.5 -31t7.5 -37.5q0 -40 -28 -68t-68 -28q-20 0 -37.5 7.5t-31 20.5t-21 30.5t-7.5 37.5zM1095 1248q0 20 7.5 37.5t21 31t31 21t37.5 7.5t37.5 -7.5t31 -21t21 -31t7.5 -37.5t-7.5 -37.5t-21 -30.5t-31 -20.5
t-37.5 -7.5t-37.5 7.5t-31 20.5t-21 30.5t-7.5 37.5z" />
    <glyph glyph-name="vehinitial" unicode="&#x6a4;" horiz-adv-x="1123" arabic-form="initial" 
d="M-42 189h194v347q0 93 34 172t92.5 137.5t137.5 91.5t168 33q90 0 169 -33.5t138 -91.5t93 -136t33 -167v-229q0 -71 -24.5 -128.5t-66.5 -98.5t-99 -63.5t-121 -22.5h-748v189zM341 189h365q25 0 47.5 9t39 25t26 39t9.5 51v229q1 50 -18 93.5t-52.5 75.5t-78 50.5
t-95.5 18.5q-50 0 -94.5 -18.5t-77.5 -51.5t-52 -77.5t-19 -96.5v-347zM487 1453q0 20 7.5 37.5t20.5 31t30.5 21t37.5 7.5t37.5 -7.5t31 -21t21 -31t7.5 -37.5t-7.5 -37.5t-21 -31t-31 -21t-37.5 -7.5t-37.5 7.5t-30.5 21t-20.5 31t-7.5 37.5zM628 1248q0 20 7.5 37.5
t21 31t31 21t37.5 7.5t37.5 -7.5t30.5 -21t20.5 -31t7.5 -37.5q0 -40 -28 -68t-68 -28q-20 0 -37.5 7.5t-31 20.5t-21 30.5t-7.5 37.5zM345 1248q0 20 7.5 37.5t21 31t31 21t37.5 7.5t37.5 -7.5t31 -21t21 -31t7.5 -37.5t-7.5 -37.5t-21 -30.5t-31 -20.5t-37.5 -7.5
t-37.5 7.5t-31 20.5t-21 30.5t-7.5 37.5z" />
    <glyph glyph-name="vehmedial" unicode="&#x6a4;" horiz-adv-x="1170" arabic-form="medial" 
d="M-42 0v189h194v347q0 93 34 172t92.5 137.5t137.5 91.5t168 33q90 0 169 -33.5t138 -91.5t93.5 -136t34.5 -167v-353h193v-189h-1254zM341 189h488v353q0 50 -19.5 93.5t-52.5 75.5t-77.5 50.5t-95.5 18.5q-50 0 -94.5 -18.5t-77.5 -51.5t-52 -77.5t-19 -96.5v-347z
M485 1453q0 20 7.5 37.5t20.5 31t30.5 21t37.5 7.5t37.5 -7.5t31 -21t21 -31t7.5 -37.5t-7.5 -37.5t-21 -31t-31 -21t-37.5 -7.5t-37.5 7.5t-30.5 21t-20.5 31t-7.5 37.5zM626 1248q0 20 7.5 37.5t21 31t31 21t37.5 7.5t37.5 -7.5t30.5 -21t20.5 -31t7.5 -37.5
q0 -40 -28 -68t-68 -28q-20 0 -37.5 7.5t-31 20.5t-21 30.5t-7.5 37.5zM343 1248q0 20 7.5 37.5t21 31t31 21t37.5 7.5t37.5 -7.5t31 -21t21 -31t7.5 -37.5t-7.5 -37.5t-21 -30.5t-31 -20.5t-37.5 -7.5t-37.5 7.5t-31 20.5t-21 30.5t-7.5 37.5z" />
    <glyph glyph-name="tchehisolated" unicode="&#x686;" horiz-adv-x="1068" arabic-form="isolated" 
d="M128 875q27 13 71 29.5t97.5 31.5t111.5 25t114 10q55 0 108.5 -8.5t102.5 -29t90.5 -54t72 -83.5t47.5 -118.5t17 -158.5v-212q0 -63 -24.5 -119t-66.5 -98t-99 -66t-122 -24h-273q-20 0 -35.5 -8t-25.5 -20.5t-15 -29t-5 -34.5q0 -17 5 -34t15 -30.5t25.5 -21.5
t35.5 -8h265v-189h-265q-68 0 -118.5 24.5t-84 64t-50.5 90.5t-17 104t17 103.5t50.5 90t84 63.5t118.5 24h273q25 0 47.5 9.5t39 25.5t26 37.5t9.5 45.5v212q0 78 -21.5 128.5t-56 80t-79.5 41.5t-91 12q-44 0 -90 -8t-88 -19.5t-77 -25t-57 -23.5zM896 -328q0 -20 -13 -33
t-33 -13q-19 0 -32 13t-13 33q0 19 13 32.5t32 13.5q20 0 33 -13.5t13 -32.5zM829 -232q0 -19 -13 -32t-32 -13q-20 0 -33 13t-13 32q0 20 13 33t33 13q19 0 32 -13t13 -33zM963 -232q0 -19 -13.5 -32t-32.5 -13t-32.5 13t-13.5 32q0 20 13.5 33t32.5 13t32.5 -13t13.5 -33z
" />
    <glyph glyph-name="tchehfinal" unicode="&#x686;" horiz-adv-x="1113" arabic-form="final" 
d="M129 875q27 13 71 29.5t97.5 31.5t112 25t114.5 10q55 0 108.5 -8.5t102.5 -29t90.5 -54t72 -83.5t47.5 -118.5t17 -158.5v-330h193v-189h-780q-20 0 -35 -8t-25 -20.5t-15 -29t-5 -34.5q0 -17 5 -34t15 -30.5t25 -21.5t35 -8h265v-189h-265q-68 0 -118.5 24.5t-84 64
t-50.5 90.5t-17 104t17 103.5t50.5 90t84 63.5t118.5 24h397v330q0 78 -21.5 128.5t-56 80t-79.5 41.5t-91 12q-44 0 -90 -8t-88.5 -19.5t-77.5 -25t-57 -23.5zM896 -328q0 -20 -13 -33t-33 -13q-19 0 -32 13t-13 33q0 19 13 32.5t32 13.5q20 0 33 -13.5t13 -32.5zM829 -232
q0 -19 -13 -32t-32 -13q-20 0 -33 13t-13 32q0 20 13 33t33 13q19 0 32 -13t13 -33zM963 -232q0 -19 -13.5 -32t-32.5 -13t-32.5 13t-13.5 32q0 20 13.5 33t32.5 13t32.5 -13t13.5 -33z" />
    <glyph glyph-name="tchehinitial" unicode="&#x686;" horiz-adv-x="1075" arabic-form="initial" 
d="M138 875q27 13 71 29.5t97.5 31.5t112 25t114.5 10q82 0 160.5 -20t140 -71t99 -138.5t37.5 -222.5v-212q0 -63 -24.5 -119t-67 -98t-99.5 -66t-121 -24h-700v189h700q25 0 47.5 9.5t39.5 25.5t26.5 37.5t9.5 45.5v212q0 78 -21.5 128.5t-56 80t-79.5 41.5t-91 12
q-44 0 -90.5 -8t-88.5 -19.5t-77.5 -25t-57.5 -23.5zM629 -481q0 -20 -7.5 -37.5t-20.5 -31t-30.5 -21t-37.5 -7.5t-37.5 7.5t-31 21t-21 31t-7.5 37.5t7.5 37.5t21 31t31 21t37.5 7.5t37.5 -7.5t30.5 -21t20.5 -31t7.5 -37.5zM488 -276q0 -20 -7.5 -37.5t-21 -31t-31 -21
t-37.5 -7.5t-37.5 7.5t-30.5 21t-20.5 31t-7.5 37.5q0 40 28 68t68 28q20 0 37.5 -7.5t31 -20.5t21 -30.5t7.5 -37.5zM771 -276q0 -20 -7.5 -37.5t-21 -31t-31 -21t-37.5 -7.5t-37.5 7.5t-31 21t-21 31t-7.5 37.5t7.5 37.5t21 30.5t31 20.5t37.5 7.5t37.5 -7.5t31 -20.5
t21 -30.5t7.5 -37.5z" />
    <glyph glyph-name="tchehmedial" unicode="&#x686;" horiz-adv-x="1125" arabic-form="medial" 
d="M141 875q27 13 71 29.5t97.5 31.5t112 25t114.5 10q82 0 160.5 -20t140 -71t99 -138.5t37.5 -222.5v-330h194v-189h-1209v189h826v330q0 78 -21.5 128.5t-56 80t-79.5 41.5t-91 12q-44 0 -90.5 -8t-88.5 -19.5t-77.5 -25t-57.5 -23.5zM631 -481q0 -20 -7.5 -37.5
t-20.5 -31t-30.5 -21t-37.5 -7.5t-37.5 7.5t-31 21t-21 31t-7.5 37.5t7.5 37.5t21 31t31 21t37.5 7.5t37.5 -7.5t30.5 -21t20.5 -31t7.5 -37.5zM490 -276q0 -20 -7.5 -37.5t-21 -31t-31 -21t-37.5 -7.5t-37.5 7.5t-30.5 21t-20.5 31t-7.5 37.5q0 40 28 68t68 28
q20 0 37.5 -7.5t31 -20.5t21 -30.5t7.5 -37.5zM773 -276q0 -20 -7.5 -37.5t-21 -31t-31 -21t-37.5 -7.5t-37.5 7.5t-31 21t-21 31t-7.5 37.5t7.5 37.5t21 30.5t31 20.5t37.5 7.5t37.5 -7.5t31 -20.5t21 -30.5t7.5 -37.5z" />
    <glyph glyph-name="jehisolated" unicode="&#x698;" horiz-adv-x="714" arabic-form="isolated" 
d="M462 969v-864q-1 -93 -40 -183q-17 -38 -43.5 -79.5t-67 -82t-95.5 -78.5t-129 -69l-73 175q51 21 88.5 45.5t65.5 50.5t46 51.5t30 49.5q27 55 28 112v872h190zM275 1453q0 20 7.5 37.5t20.5 31t30.5 21t37.5 7.5t37.5 -7.5t31 -21t21 -31t7.5 -37.5t-7.5 -37.5t-21 -31
t-31 -21t-37.5 -7.5t-37.5 7.5t-30.5 21t-20.5 31t-7.5 37.5zM416 1248q0 20 7.5 37.5t21 31t31 21t37.5 7.5t37.5 -7.5t30.5 -21t20.5 -31t7.5 -37.5q0 -40 -28 -68t-68 -28q-20 0 -37.5 7.5t-31 20.5t-21 30.5t-7.5 37.5zM133 1248q0 20 7.5 37.5t21 31t31 21t37.5 7.5
t37.5 -7.5t31 -21t21 -31t7.5 -37.5t-7.5 -37.5t-21 -30.5t-31 -20.5t-37.5 -7.5t-37.5 7.5t-31 20.5t-21 30.5t-7.5 37.5z" />
    <glyph glyph-name="jehfinal" unicode="&#x698;" horiz-adv-x="612" arabic-form="final" 
d="M461 969v-780h193v-189h-204q-9 -40 -30 -90t-62 -102.5t-107 -103t-164 -91.5l-73 175q50 21 88 45t65.5 49.5t45.5 50.5t30 48q27 54 28 109v879h190zM275 1453q0 20 7.5 37.5t20.5 31t30.5 21t37.5 7.5t37.5 -7.5t31 -21t21 -31t7.5 -37.5t-7.5 -37.5t-21 -31t-31 -21
t-37.5 -7.5t-37.5 7.5t-30.5 21t-20.5 31t-7.5 37.5zM416 1248q0 20 7.5 37.5t21 31t31 21t37.5 7.5t37.5 -7.5t30.5 -21t20.5 -31t7.5 -37.5q0 -40 -28 -68t-68 -28q-20 0 -37.5 7.5t-31 20.5t-21 30.5t-7.5 37.5zM133 1248q0 20 7.5 37.5t21 31t31 21t37.5 7.5t37.5 -7.5
t31 -21t21 -31t7.5 -37.5t-7.5 -37.5t-21 -30.5t-31 -20.5t-37.5 -7.5t-37.5 7.5t-31 20.5t-21 30.5t-7.5 37.5z" />
    <glyph glyph-name="kehehisolated" unicode="&#x6a9;" horiz-adv-x="2278" arabic-form="isolated" 
d="M2250 172q-46 -43 -112 -43h-2098l560 549l44 -103q34 -80 127 -80h234l-66 -68q-44 -46 -71 -57q-21 -10 -70 -10h-143q-64 0 -88 13q-34 18 -70 89l-70 -75q-30 -39 -30 -45q0 -22 24 -42.5t52 -20.5h1468l-41 81h-723q-36 0 -64 25q-31 28 -31 76q0 17 91 105l398 384
q82 79 82 142q0 152 -144 152q-48 0 -113 -27q-50 -21 -99 -43l296 294l100 -198q51 -101 51 -174q0 -100 -99 -194l-168 -160q-64 -61 -64 -86q0 -35 10 -50l15 -38q23 -58 91 -58h463q26 0 61 -75l68 -144q33 -69 47 -86q29 -33 82 -33z" />
    <glyph glyph-name="kehehfinal" unicode="&#x6a9;" horiz-adv-x="2185" arabic-form="final" 
d="M2255 129h-2215l560 549l44 -103q34 -80 127 -80h234l-66 -68q-44 -46 -71 -57q-21 -10 -70 -10h-143q-64 0 -88 13q-34 18 -70 89l-70 -75q-30 -39 -30 -45q0 -22 24 -42.5t52 -20.5h1468l-41 81h-723q-36 0 -64 25q-31 28 -31 76q0 17 91 105l398 384q82 79 82 142
q0 152 -144 152q-48 0 -113 -27q-50 -21 -99 -43l296 294l100 -198q51 -101 51 -174q0 -100 -99 -194l-168 -160q-64 -61 -64 -86q0 -35 10 -50l15 -38q23 -58 91 -58h463q26 0 61 -75l72 -156h130v-150z" />
    <glyph glyph-name="kehehinitial" unicode="&#x6a9;" horiz-adv-x="1246" arabic-form="initial" 
d="M1213 172q-46 -43 -112 -43h-1101v150h904l-41 81h-723q-36 0 -64 25q-31 28 -31 76q0 17 91 105l398 384q82 79 82 142q0 152 -144 152q-48 0 -113 -27q-50 -21 -99 -43l296 294l100 -198q51 -101 51 -174q0 -100 -99 -194l-168 -160q-64 -61 -64 -86q0 -35 10 -50
l15 -38q23 -58 91 -58h463q26 0 61 -75l68 -144q33 -70 47 -86q29 -33 82 -33z" />
    <glyph glyph-name="kehehmedial" unicode="&#x6a9;" horiz-adv-x="1148" arabic-form="medial" 
d="M1218 129h-1218v150h904l-41 81h-723q-36 0 -64 25q-31 28 -31 76q0 17 91 105l398 384q82 79 82 142q0 152 -144 152q-48 0 -113 -27q-50 -21 -99 -43l296 294l100 -198q51 -101 51 -174q0 -100 -99 -194l-168 -160q-64 -61 -64 -86q0 -35 10 -50l15 -38q23 -58 91 -58
h463q26 0 61 -75l72 -156h130v-150z" />
    <glyph glyph-name="gafisolated" unicode="&#x6af;" horiz-adv-x="2278" arabic-form="isolated" 
d="M2250 172q-26 -24 -112 -43h-2098l560 549l44 -103q34 -80 127 -80h234l-66 -68q-44 -46 -71 -57q-21 -10 -70 -10h-143q-64 0 -88 13q-34 18 -70 89l-70 -75q-30 -39 -30 -45q0 -22 24 -42.5t52 -20.5h1468l-41 81h-723q-36 0 -64 25q-31 28 -31 76q0 17 91 105l398 384
q82 79 82 142q0 152 -144 152q-48 0 -113 -27q-50 -21 -99 -43l296 294l100 -198q51 -101 51 -174q0 -100 -99 -194l-168 -160q-64 -61 -64 -86q0 -35 10 -50l15 -38q23 -58 91 -58h463q26 0 61 -75l68 -144q33 -69 47 -86q29 -33 82 -33zM1650 1605l-577 -389l-26 39
l522 470z" />
    <glyph glyph-name="gaffinal" unicode="&#x6af;" horiz-adv-x="2185" arabic-form="final" 
d="M2255 129h-2215l560 549l44 -103q34 -80 127 -80h234l-66 -68q-44 -46 -71 -57q-21 -10 -70 -10h-143q-64 0 -88 13q-34 18 -70 89l-70 -75q-30 -39 -30 -45q0 -22 24 -42.5t52 -20.5h1468l-41 81h-723q-36 0 -64 25q-31 28 -31 76q0 17 91 105l398 384q82 79 82 142
q0 152 -144 152q-48 0 -113 -27q-50 -21 -99 -43l296 294l100 -198q51 -101 51 -174q0 -100 -99 -194l-168 -160q-64 -61 -64 -86q0 -35 10 -50l15 -38q23 -58 91 -58h463q26 0 61 -75l72 -156h130v-150zM1650 1605l-577 -389l-26 39l522 470z" />
    <glyph glyph-name="gafinitial" unicode="&#x6af;" horiz-adv-x="1246" arabic-form="initial" 
d="M1213 172q-46 -43 -112 -43h-1101v150h904l-41 81h-723q-36 0 -64 25q-31 28 -31 76q0 17 91 105l398 384q82 79 82 142q0 152 -144 152q-48 0 -113 -27q-50 -21 -99 -43l296 294l100 -198q51 -101 51 -174q0 -100 -99 -194l-168 -160q-64 -61 -64 -86q0 -35 10 -50
l15 -38q23 -58 91 -58h463q26 0 61 -75l68 -144q33 -70 47 -86q29 -33 82 -33zM613 1605l-577 -389l-26 39l522 470z" />
    <glyph glyph-name="gafmedial" unicode="&#x6af;" horiz-adv-x="1148" arabic-form="medial" 
d="M1218 129h-1218v150h904l-41 81h-723q-36 0 -64 25q-31 28 -31 76q0 17 91 105l398 384q82 79 82 142q0 152 -144 152q-48 0 -113 -27q-50 -21 -99 -43l296 294l100 -198q51 -101 51 -174q0 -100 -99 -194l-168 -160q-64 -61 -64 -86q0 -35 10 -50l15 -38q23 -58 91 -58
h463q26 0 61 -75l72 -156h130v-150zM613 1605l-577 -389l-26 39l522 470z" />
    <glyph glyph-name="farsiyehisolated" unicode="&#x6cc;" horiz-adv-x="1380" arabic-form="isolated" 
d="M1350 277q-19 -7 -37 -15q-27 -9 -80 -9q-122 0 -176 22q-71 28 -115 115l-46 92q-35 70 -58 70q-22 0 -62 -38l-90 -86q-40 -38 -40 -68q0 -28 17 -42q5 -3 45 -22l162 -76q86 -40 86 -116q0 -52 -67 -116l-205 -197q-62 -60 -108 -60q-54 0 -113 59l-329 329
q-64 64 -64 88q0 42 50 90l188 182l-46 -82q-34 -64 -34 -86q0 -29 57 -86l271 -272q68 -68 90 -68q13 0 73 58l50 48q27 26 27 46q0 45 -49 69l-188 91q-46 22 -60 38q-21 24 -21 70q0 40 100 137l431 418q-14 -45 -14 -78q0 -36 43 -122l122 -244q60 -121 190 -139z" />
    <glyph glyph-name="farsiyehfinal" unicode="&#x6cc;" horiz-adv-x="1280" arabic-form="final" 
d="M1350 129h-167q-111 0 -165 109l-122 244q-35 70 -58 70q-22 0 -62 -38l-90 -86q-40 -38 -40 -68q0 -28 17 -42q5 -3 45 -22l162 -76q86 -40 86 -116q0 -52 -67 -116l-205 -197q-62 -60 -108 -60q-54 0 -113 59l-329 329q-64 64 -64 88q0 42 50 90l188 182l-46 -82
q-34 -64 -34 -86q0 -29 57 -86l271 -272q68 -68 90 -68q13 0 73 58l50 48q27 26 27 46q0 45 -49 69l-188 91q-46 22 -60 38q-21 24 -21 70q0 40 100 137l431 418q-14 -45 -14 -78q0 -36 43 -122l152 -304q39 -77 113 -77h47v-150z" />
    <glyph glyph-name="fathatanisolated" unicode="&#xfe70;" horiz-adv-x="583" arabic-form="isolated" 
d="M518 1275h-462v72h462v-72zM518 1419h-462v72h462v-72z" />
    <glyph glyph-name="dammatanisolated" unicode="&#xfe72;" horiz-adv-x="576" arabic-form="isolated" 
d="M233 1300q-9 0 -17 4q-12 5 -17.5 14.5t-11.5 21.5l-27 73l-49 -69l-58 43l68 94q4 6 16.5 18t33.5 9q27 -3 43 -37v-1l36 -92q54 19 97 59q-46 11 -73 47q-17 21 -24 47.5t-4 52.5q5 26 20 47.5t40 34.5q26 13 54 13.5t51 -11.5q53 -28 62 -85q6 -33 -4 -70l18 4t17 4
l18 -70q-21 -5 -42 -9.5t-44 -6.5q-7 -11 -14.5 -20.5t-13.5 -16.5q-61 -65 -150 -93q-5 -2 -11.5 -3.5t-13.5 -1.5zM362 1608q-15 0 -26 -8t-15.5 -20t-3 -26t12.5 -26q11 -15 27.5 -19t33.5 -4q8 17 11 34t1 33q-3 14 -13.5 25t-27.5 11z" />
    <glyph glyph-name="kasratanisolated" unicode="&#xfe74;" horiz-adv-x="583" arabic-form="isolated" 
d="M518 -441h-462v72h462v-72zM518 -297h-462v72h462v-72z" />
    <glyph glyph-name="fathaisolated" unicode="&#xfe76;" horiz-adv-x="583" arabic-form="isolated" 
d="M522 1250h-462v72h462v-72z" />
    <glyph glyph-name="dammaisolated" unicode="&#xfe78;" horiz-adv-x="511" arabic-form="isolated" 
d="M121 1209l-17 69q38 10 75.5 25t68.5 44q-45 11 -73 47q-17 21 -24 47.5t-3 52.5q5 26 20 47.5t39 34.5q26 13 54 13.5t52 -11.5q53 -28 62 -85q6 -33 -4 -70q9 2 17.5 4t17.5 4l17 -70q-20 -5 -41.5 -9.5t-44.5 -6.5q-7 -11 -14 -20.5t-13 -16.5q-43 -46 -92.5 -67
t-96.5 -32zM264 1518q-15 0 -26 -8t-15.5 -20t-3 -26t11.5 -26q5 -7 15 -13.5t27 -8.5q5 -1 10 -1h10q7 17 10.5 34t0.5 33q-2 14 -13 25t-27 11z" />
    <glyph glyph-name="kasraisolated" unicode="&#xfe7a;" horiz-adv-x="583" arabic-form="isolated" 
d="M525 -306h-462v72h462v-72z" />
    <glyph glyph-name="shaddaisolated" unicode="&#xfe7c;" horiz-adv-x="551" arabic-form="isolated" 
d="M142 1324q-21 0 -39.5 8t-32.5 22t-22 33t-8 40v126h72v-116q0 -17 12 -29t29 -12h84v157h72v-157h80q17 0 29 12t12 29v116h71v-126q0 -21 -8 -40t-21.5 -33t-32.5 -22t-40 -8h-257z" />
    <glyph glyph-name="sukunisolated" unicode="&#xfe7e;" horiz-adv-x="326" arabic-form="isolated" 
d="M165 1285q-33 0 -62 12.5t-50.5 34.5t-34 50.5t-12.5 61.5t12.5 62t34 50.5t50.5 34t62 12.5t61.5 -12.5t50 -34t34 -50.5t12.5 -62t-12.5 -61.5t-34 -50.5t-50 -34.5t-61.5 -12.5zM165 1531q-37 0 -62.5 -25.5t-25.5 -61.5t25.5 -61.5t62.5 -25.5q18 0 33.5 7t27 18.5
t18.5 27.5t7 34t-7 34t-18.5 27.5t-27 18.5t-33.5 7z" />
    <glyph glyph-name="hamzaisolated" unicode="&#x621;" horiz-adv-x="1147" arabic-form="isolated" 
d="M869 716h-197q-59 -4 -103.5 -26t-73.5 -55t-43.5 -74t-14.5 -84q0 -53 12.5 -104.5t34 -92t50.5 -66t63 -25.5h445v-189h-937v189h218q-36 64 -56 138t-20 150q0 81 23 157t73 135.5t130 96.5t194 39h202v-189z" />
    <glyph glyph-name="alefwithmaddaaboveisolated" unicode="&#x622;" horiz-adv-x="399" arabic-form="isolated" 
d="M383 1522q-26 -42 -54 -60.5t-58 -18.5q-24 0 -43 6.5t-34.5 14.5t-30 14.5t-30 6t-32.5 -11t-39 -35.5l-50 69q21 23 37 38t29 23.5t25 12t26 3.5q30 0 54 -13t47.5 -21.5t48 -2.5t54.5 44zM294 1345v-1345h-189v1345h189z" />
    <glyph glyph-name="alefwithmaddaabovefinal" unicode="&#x622;" horiz-adv-x="463" arabic-form="final" 
d="M382 1522q-26 -42 -54 -60.5t-58 -18.5q-24 0 -43 6.5t-34.5 14.5t-30 14.5t-30 6t-32.5 -11t-39 -35.5l-50 69q21 23 37 38t29 23.5t25 12t26 3.5q30 0 54 -13t47.5 -21.5t48 -2.5t54.5 44zM295 1345v-1035q0 -25 9.5 -47t26 -38.5t38.5 -26t47 -9.5h89v-189h-89
q-65 0 -121.5 24.5t-98.5 66.5t-66.5 98.5t-24.5 120.5v1035h190z" />
    <glyph glyph-name="alefwithhamzaaboveisolated" unicode="&#x623;" horiz-adv-x="399" arabic-form="isolated" 
d="M294 1345v-1345h-189v1345h189zM314 1682h-80h1q-34 -1 -49.5 -20.5t-15.5 -42.5q0 -15 3 -29t8 -25.5t12.5 -18.5t15.5 -7h142v-94h-308v94h49q-16 40 -16 80q0 30 8.5 58t27 50t48.5 35.5t73 14.5h81v-95z" />
    <glyph glyph-name="alefwithhamzaabovefinal" unicode="&#x623;" horiz-adv-x="463" arabic-form="final" 
d="M295 1345v-1035q0 -25 9.5 -47t26 -38.5t38.5 -26t47 -9.5h89v-189h-89q-65 0 -121.5 24.5t-98.5 66.5t-66.5 98.5t-24.5 120.5v1035h190zM320 1682h-80h1q-34 -1 -49.5 -20.5t-15.5 -42.5q0 -15 3 -29t8 -25.5t12.5 -18.5t15.5 -7h142v-94h-308v94h49q-16 40 -16 80
q0 30 8.5 58t27 50t48.5 35.5t73 14.5h81v-95z" />
    <glyph glyph-name="wawwithhamzaaboveisolated" unicode="&#x624;" horiz-adv-x="1087" arabic-form="isolated" 
d="M246 -187h298q43 0 82.5 14t71 39t54 59t32.5 75h-371q-63 0 -119 24t-98 65.5t-66.5 97.5t-24.5 120v214q0 93 34.5 174.5t93.5 142t139 96t170 35.5q61 0 117 -16.5t104.5 -46t89 -70.5t69 -90t44 -105t15.5 -115v-465q0 -90 -34.5 -170t-93.5 -139t-139 -93.5
t-170 -34.5h-298v189zM791 189v337q0 51 -19.5 97t-53.5 80.5t-79.5 55t-96.5 20.5t-96 -20t-78.5 -55t-53 -82t-19.5 -101v-214q0 -24 9.5 -45.5t25.5 -37.5t37.5 -25.5t45.5 -9.5h378zM626 1355h-80h1q-34 -1 -49.5 -20.5t-15.5 -42.5q0 -15 3 -29t8 -25.5t12.5 -18.5
t15.5 -7h142v-94h-308v94h49q-16 40 -16 80q0 30 8.5 58t27 50t48.5 35.5t73 14.5h81v-95z" />
    <glyph glyph-name="wawwithhamzaabovefinal" unicode="&#x624;" horiz-adv-x="1131" arabic-form="final" 
d="M245 -187h298q43 0 82.5 14t71 39t54 59t32.5 75h-371q-63 0 -119 24t-98 65.5t-66 97.5t-24 120v214q0 93 34.5 174.5t93.5 142t138.5 96t169.5 35.5q60 0 116.5 -16.5t105 -46t89 -70.5t69 -90t44 -105t15.5 -115v-337h193v-189h-197q-11 -80 -49 -148.5t-95.5 -119
t-131.5 -79.5t-157 -29h-298v189zM790 189v337q0 51 -19.5 97t-53 80.5t-79 55t-97.5 20.5q-51 0 -96 -20t-78.5 -55t-53 -82t-19.5 -101v-214q0 -24 9.5 -45.5t25.5 -37.5t37.5 -25.5t45.5 -9.5h378zM626 1355h-80h1q-34 -1 -49.5 -20.5t-15.5 -42.5q0 -15 3 -29t8 -25.5
t12.5 -18.5t15.5 -7h142v-94h-308v94h49q-16 40 -16 80q0 30 8.5 58t27 50t48.5 35.5t73 14.5h81v-95z" />
    <glyph glyph-name="alefwithhamzabelowisolated" unicode="&#x625;" horiz-adv-x="399" arabic-form="isolated" 
d="M294 1345v-1345h-189v1345h189zM321 -195h-80h1q-34 -1 -49.5 -20.5t-15.5 -42.5q0 -15 3 -29t8 -25.5t12.5 -18.5t15.5 -7h142v-94h-308v94h49q-16 40 -16 80q0 30 8.5 58t27 50t48.5 35.5t73 14.5h81v-95z" />
    <glyph glyph-name="alefwithhamzabelowfinal" unicode="&#x625;" horiz-adv-x="463" arabic-form="final" 
d="M295 1345v-1035q0 -25 9.5 -47t26 -38.5t38.5 -26t47 -9.5h89v-189h-89q-65 0 -121.5 24.5t-98.5 66.5t-66.5 98.5t-24.5 120.5v1035h190zM336 -100h-81q-43 -1 -73 -14.5t-48.5 -35.5t-27 -50t-8.5 -58q0 -40 16 -80h-49v-94h308v94h-142q-8 0 -15.5 7t-12.5 18.5
t-8 25.5t-3 29q0 23 15.5 42.5t49.5 20.5h-1h80v95z" />
    <glyph glyph-name="yehwithhamzaaboveisolated" unicode="&#x626;" horiz-adv-x="1267" arabic-form="isolated" 
d="M1105 779h-246q-25 0 -47.5 -9.5t-39 -26t-26 -39t-9.5 -48.5v-246h118q76 0 133.5 -24.5t96 -69t58 -107t19.5 -138.5q0 -111 -43 -195t-113 -140t-159.5 -84t-182.5 -28t-182 28t-159 83.5t-112.5 139t-42.5 194.5v723h189v-723q0 -64 26.5 -112t69.5 -80t98 -48
t113 -16t113.5 16.5t99 49t70 80.5t26.5 112q0 66 -29.5 108t-88.5 42h-308v435q0 65 24.5 122t67 99.5t99 67t121.5 24.5h246v-190zM376 1129h-80h1q-34 -1 -49.5 -20.5t-15.5 -42.5q0 -15 3 -29t8 -25.5t12.5 -18.5t15.5 -7h142v-94h-308v94h49q-16 40 -16 80q0 30 8.5 58
t27 50t48.5 35.5t73 14.5h81v-95z" />
    <glyph glyph-name="yehwithhamzaabovefinal" unicode="&#x626;" horiz-adv-x="1207" arabic-form="final" 
d="M1249 0h-92q-13 -95 -59.5 -165.5t-114 -117.5t-150.5 -70.5t-169 -23.5q-93 0 -182 28t-159 83.5t-112.5 139t-42.5 194.5v724h190v-724q0 -64 26.5 -112t69.5 -80t98 -48t112 -16q49 0 97 12t88.5 35.5t70.5 58.5t44 82h-337v189h622v-189zM376 1129h-80h1
q-34 -1 -49.5 -20.5t-15.5 -42.5q0 -15 3 -29t8 -25.5t12.5 -18.5t15.5 -7h142v-94h-308v94h49q-16 40 -16 80q0 30 8.5 58t27 50t48.5 35.5t73 14.5h81v-95z" />
    <glyph glyph-name="yehwithhamzaaboveinitial" unicode="&#x626;" horiz-adv-x="623" arabic-form="initial" 
d="M471 969v-658q0 -65 -24.5 -121.5t-67 -98.5t-99 -66.5t-120.5 -24.5h-202v189h202q25 0 47.5 9.5t39 26t26 38.5t9.5 48v658h189zM481 1356h-80h1q-34 -1 -49.5 -20.5t-15.5 -42.5q0 -15 3 -29t8 -25.5t12.5 -18.5t15.5 -7h142v-94h-308v94h49q-16 40 -16 80
q0 30 8.5 58t27 50t48.5 35.5t73 14.5h81v-95z" />
    <glyph glyph-name="yehwithhamzaabovemedial" unicode="&#x626;" horiz-adv-x="623" arabic-form="medial" 
d="M471 969v-780h194v-189h-707v189h324v780h189zM481 1356h-80h1q-34 -1 -49.5 -20.5t-15.5 -42.5q0 -15 3 -29t8 -25.5t12.5 -18.5t15.5 -7h142v-94h-308v94h49q-16 40 -16 80q0 30 8.5 58t27 50t48.5 35.5t73 14.5h81v-95z" />
    <glyph glyph-name="alefisolated" unicode="&#x627;" horiz-adv-x="399" arabic-form="isolated" 
d="M294 1345v-1345h-189v1345h189z" />
    <glyph glyph-name="aleffinal" unicode="&#x627;" horiz-adv-x="463" arabic-form="final" 
d="M295 1345v-1035q0 -25 9.5 -47t26 -38.5t38.5 -26t47 -9.5h89v-189h-89q-64 0 -120.5 24.5t-99 66.5t-67 98.5t-24.5 120.5v1035h190z" />
    <glyph glyph-name="behisolated" unicode="&#x628;" horiz-adv-x="1423" arabic-form="isolated" 
d="M1318 969v-658q0 -65 -24 -121.5t-66 -98.5t-98.5 -66.5t-120.5 -24.5h-463q-92 0 -172 34.5t-140 94t-94.5 139.5t-34.5 171v353h190v-353q0 -52 19.5 -97.5t53.5 -79.5t79.5 -53.5t98.5 -19.5h463q25 0 47 9.5t38 26t25.5 38.5t9.5 48v658h189zM616 -278q0 40 28 68
t68 28q20 0 37.5 -7.5t31 -20.5t21 -30.5t7.5 -37.5t-7.5 -37.5t-21 -31t-31 -21t-37.5 -7.5t-37.5 7.5t-30.5 21t-20.5 31t-7.5 37.5z" />
    <glyph glyph-name="behfinal" unicode="&#x628;" horiz-adv-x="1470" arabic-form="final" 
d="M1319 969v-780h193v-189h-967q-91 0 -171 34.5t-140 94t-94.5 139.5t-34.5 171v353h190v-353q0 -52 19.5 -97.5t53.5 -79.5t79.5 -53.5t97.5 -19.5h584v780h190zM616 -278q0 40 28 68t68 28q20 0 37.5 -7.5t31 -20.5t21 -30.5t7.5 -37.5t-7.5 -37.5t-21 -31t-31 -21
t-37.5 -7.5t-37.5 7.5t-30.5 21t-20.5 31t-7.5 37.5z" />
    <glyph glyph-name="behinitial" unicode="&#x628;" horiz-adv-x="576" arabic-form="initial" 
d="M277 -278q0 20 7.5 37.5t21 30.5t31 20.5t37.5 7.5q40 0 68 -28t28 -68q0 -20 -7.5 -37.5t-20.5 -31t-30.5 -21t-37.5 -7.5t-37.5 7.5t-31 21t-21 31t-7.5 37.5zM471 969v-658q0 -65 -24.5 -121.5t-66.5 -98.5t-98.5 -66.5t-120.5 -24.5h-203v189h203q25 0 47 9.5
t38.5 26t26 38.5t9.5 48v658h189z" />
    <glyph glyph-name="behmedial" unicode="&#x628;" horiz-adv-x="623" arabic-form="medial" 
d="M208 -278q0 20 7.5 37.5t21 30.5t31 20.5t37.5 7.5q40 0 68 -28t28 -68q0 -20 -7.5 -37.5t-20.5 -31t-30.5 -21t-37.5 -7.5t-37.5 7.5t-31 21t-21 31t-7.5 37.5zM471 969v-780h194v-189h-707v189h324v780h189z" />
    <glyph glyph-name="tehmarbutaisolated" unicode="&#x629;" horiz-adv-x="1078" arabic-form="isolated" 
d="M295 309q0 -54 35 -87t86 -33h244q52 0 87.5 34t35.5 90v217q0 51 -19 96t-52.5 79t-78 54t-95.5 20q-50 0 -94.5 -20t-77.5 -54t-52 -80.5t-19 -98.5v-217zM105 526q0 91 34 172t93 141t138 95t168 35q90 0 169 -35.5t138 -95.5t93 -139.5t34 -168.5v-217
q0 -71 -24.5 -128.5t-66.5 -98.5t-99 -63.5t-122 -22.5h-244q-66 0 -123 22t-98.5 62.5t-65.5 97.5t-24 127v217zM583 1248q0 20 7.5 37.5t21 31t31 21t37.5 7.5t37.5 -7.5t30.5 -21t20.5 -31t7.5 -37.5q0 -40 -28 -68t-68 -28q-20 0 -37.5 7.5t-31 20.5t-21 30.5t-7.5 37.5
zM300 1248q0 20 7.5 37.5t21 31t31 21t37.5 7.5t37.5 -7.5t31 -21t21 -31t7.5 -37.5t-7.5 -37.5t-21 -30.5t-31 -20.5t-37.5 -7.5t-37.5 7.5t-31 20.5t-21 30.5t-7.5 37.5z" />
    <glyph glyph-name="tehmarbutafinal" unicode="&#x629;" horiz-adv-x="1131" arabic-form="final" 
d="M1173 189v-189h-383v527q1 51 -18.5 96.5t-53.5 80t-79.5 55t-96.5 20.5t-96.5 -20t-79 -55t-53 -82t-19.5 -101v-213q0 -25 9.5 -46.5t25.5 -37.5t37.5 -25.5t46.5 -9.5h207v-189h-207q-64 0 -120 24t-98 66t-66 98t-24 120v213q0 93 34.5 174.5t93.5 142t139 96
t170 35.5t170 -35.5t140 -96t94.5 -141t33.5 -169.5v-338h193zM592 1248q0 20 7.5 37.5t21 31t31 21t37.5 7.5t37.5 -7.5t30.5 -21t20.5 -31t7.5 -37.5q0 -40 -28 -68t-68 -28q-20 0 -37.5 7.5t-31 20.5t-21 30.5t-7.5 37.5zM309 1248q0 20 7.5 37.5t21 31t31 21t37.5 7.5
t37.5 -7.5t31 -21t21 -31t7.5 -37.5t-7.5 -37.5t-21 -30.5t-31 -20.5t-37.5 -7.5t-37.5 7.5t-31 20.5t-21 30.5t-7.5 37.5z" />
    <glyph glyph-name="tehisolated" unicode="&#x62a;" horiz-adv-x="1423" arabic-form="isolated" 
d="M1318 969v-658q0 -65 -24 -121.5t-66 -98.5t-98.5 -66.5t-120.5 -24.5h-463q-92 0 -172 34.5t-140 94t-94.5 139.5t-34.5 171v353h190v-353q0 -52 19.5 -97.5t53.5 -79.5t79.5 -53.5t98.5 -19.5h463q25 0 47 9.5t38 26t25.5 38.5t9.5 48v658h189zM757 1248q0 20 7.5 37.5
t21 31t31 21t37.5 7.5t37.5 -7.5t30.5 -21t20.5 -31t7.5 -37.5q0 -40 -28 -68t-68 -28q-20 0 -37.5 7.5t-31 20.5t-21 30.5t-7.5 37.5zM474 1248q0 20 7.5 37.5t21 31t31 21t37.5 7.5t37.5 -7.5t31 -21t21 -31t7.5 -37.5t-7.5 -37.5t-21 -30.5t-31 -20.5t-37.5 -7.5
t-37.5 7.5t-31 20.5t-21 30.5t-7.5 37.5z" />
    <glyph glyph-name="tehfinal" unicode="&#x62a;" horiz-adv-x="1470" arabic-form="final" 
d="M1319 969v-780h193v-189h-967q-91 0 -171 34.5t-140 94t-94.5 139.5t-34.5 171v353h190v-353q0 -52 19.5 -97.5t53.5 -79.5t79.5 -53.5t97.5 -19.5h584v780h190zM757 1248q0 20 7.5 37.5t21 31t31 21t37.5 7.5t37.5 -7.5t30.5 -21t20.5 -31t7.5 -37.5q0 -40 -28 -68
t-68 -28q-20 0 -37.5 7.5t-31 20.5t-21 30.5t-7.5 37.5zM475 1248q0 20 7.5 37.5t20.5 31t30.5 21t37.5 7.5t37.5 -7.5t31 -21t21 -31t7.5 -37.5t-7.5 -37.5t-21 -30.5t-31 -20.5t-37.5 -7.5q-40 0 -68 28t-28 68z" />
    <glyph glyph-name="tehinitial" unicode="&#x62a;" horiz-adv-x="579" arabic-form="initial" 
d="M471 969v-658q0 -65 -24.5 -121.5t-66.5 -98.5t-98.5 -66.5t-120.5 -24.5h-203v189h203q25 0 47 9.5t38.5 26t26 38.5t9.5 48v658h189zM281 1248q0 20 7.5 37.5t21 31t31 21t37.5 7.5t37.5 -7.5t30.5 -21t20.5 -31t7.5 -37.5q0 -40 -28 -68t-68 -28q-20 0 -37.5 7.5
t-31 20.5t-21 30.5t-7.5 37.5zM-1 1248q0 20 7.5 37.5t20.5 31t30.5 21t37.5 7.5t37.5 -7.5t31 -21t21 -31t7.5 -37.5t-7.5 -37.5t-21 -30.5t-31 -20.5t-37.5 -7.5q-40 0 -68 28t-28 68z" />
    <glyph glyph-name="tehmedial" unicode="&#x62a;" horiz-adv-x="624" arabic-form="medial" 
d="M472 969v-780h194v-189h-707v189h324v780h189zM280 1248q0 20 7.5 37.5t21 31t31 21t37.5 7.5t37.5 -7.5t30.5 -21t20.5 -31t7.5 -37.5q0 -40 -28 -68t-68 -28q-20 0 -37.5 7.5t-31 20.5t-21 30.5t-7.5 37.5zM-2 1248q0 20 7.5 37.5t20.5 31t30.5 21t37.5 7.5t37.5 -7.5
t31 -21t21 -31t7.5 -37.5t-7.5 -37.5t-21 -30.5t-31 -20.5t-37.5 -7.5q-40 0 -68 28t-28 68z" />
    <glyph glyph-name="thehisolated" unicode="&#x62b;" horiz-adv-x="1423" arabic-form="isolated" 
d="M1318 969v-658q0 -65 -24 -121.5t-66 -98.5t-98.5 -66.5t-120.5 -24.5h-463q-92 0 -172 34.5t-140 94t-94.5 139.5t-34.5 171v353h190v-353q0 -52 19.5 -97.5t53.5 -79.5t79.5 -53.5t98.5 -19.5h463q25 0 47 9.5t38 26t25.5 38.5t9.5 48v658h189zM616 1453q0 20 7.5 37.5
t20.5 31t30.5 21t37.5 7.5t37.5 -7.5t31 -21t21 -31t7.5 -37.5t-7.5 -37.5t-21 -31t-31 -21t-37.5 -7.5t-37.5 7.5t-30.5 21t-20.5 31t-7.5 37.5zM757 1248q0 20 7.5 37.5t21 31t31 21t37.5 7.5t37.5 -7.5t30.5 -21t20.5 -31t7.5 -37.5q0 -40 -28 -68t-68 -28
q-20 0 -37.5 7.5t-31 20.5t-21 30.5t-7.5 37.5zM474 1248q0 20 7.5 37.5t21 31t31 21t37.5 7.5t37.5 -7.5t31 -21t21 -31t7.5 -37.5t-7.5 -37.5t-21 -30.5t-31 -20.5t-37.5 -7.5t-37.5 7.5t-31 20.5t-21 30.5t-7.5 37.5z" />
    <glyph glyph-name="thehfinal" unicode="&#x62b;" horiz-adv-x="1470" arabic-form="final" 
d="M1319 969v-780h193v-189h-967q-91 0 -171 34.5t-140 94t-94.5 139.5t-34.5 171v353h190v-353q0 -52 19.5 -97.5t53.5 -79.5t79.5 -53.5t97.5 -19.5h584v780h190zM614 1453q0 20 7.5 37.5t20.5 31t30.5 21t37.5 7.5t37.5 -7.5t31 -21t21 -31t7.5 -37.5t-7.5 -37.5t-21 -31
t-31 -21t-37.5 -7.5t-37.5 7.5t-30.5 21t-20.5 31t-7.5 37.5zM755 1248q0 20 7.5 37.5t21 31t31 21t37.5 7.5t37.5 -7.5t30.5 -21t20.5 -31t7.5 -37.5q0 -40 -28 -68t-68 -28q-20 0 -37.5 7.5t-31 20.5t-21 30.5t-7.5 37.5zM472 1248q0 20 7.5 37.5t21 31t31 21t37.5 7.5
t37.5 -7.5t31 -21t21 -31t7.5 -37.5t-7.5 -37.5t-21 -30.5t-31 -20.5t-37.5 -7.5t-37.5 7.5t-31 20.5t-21 30.5t-7.5 37.5z" />
    <glyph glyph-name="thehinitial" unicode="&#x62b;" horiz-adv-x="579" arabic-form="initial" 
d="M471 969v-658q0 -65 -24.5 -121.5t-66.5 -98.5t-98.5 -66.5t-120.5 -24.5h-203v189h203q25 0 47 9.5t38.5 26t26 38.5t9.5 48v658h189zM140 1453q0 20 7.5 37.5t20.5 31t30.5 21t37.5 7.5t37.5 -7.5t31 -21t21 -31t7.5 -37.5t-7.5 -37.5t-21 -31t-31 -21t-37.5 -7.5
t-37.5 7.5t-30.5 21t-20.5 31t-7.5 37.5zM281 1248q0 20 7.5 37.5t21 31t31 21t37.5 7.5t37.5 -7.5t30.5 -21t20.5 -31t7.5 -37.5q0 -40 -28 -68t-68 -28q-20 0 -37.5 7.5t-31 20.5t-21 30.5t-7.5 37.5zM-2 1248q0 20 7.5 37.5t21 31t31 21t37.5 7.5t37.5 -7.5t31 -21
t21 -31t7.5 -37.5t-7.5 -37.5t-21 -30.5t-31 -20.5t-37.5 -7.5t-37.5 7.5t-31 20.5t-21 30.5t-7.5 37.5z" />
    <glyph glyph-name="thehmedial" unicode="&#x62b;" horiz-adv-x="623" arabic-form="medial" 
d="M471 969v-780h194v-189h-707v189h324v780h189zM138 1453q0 20 7.5 37.5t20.5 31t30.5 21t37.5 7.5t37.5 -7.5t31 -21t21 -31t7.5 -37.5t-7.5 -37.5t-21 -31t-31 -21t-37.5 -7.5t-37.5 7.5t-30.5 21t-20.5 31t-7.5 37.5zM279 1248q0 20 7.5 37.5t21 31t31 21t37.5 7.5
t37.5 -7.5t30.5 -21t20.5 -31t7.5 -37.5q0 -40 -28 -68t-68 -28q-20 0 -37.5 7.5t-31 20.5t-21 30.5t-7.5 37.5zM-4 1248q0 20 7.5 37.5t21 31t31 21t37.5 7.5t37.5 -7.5t31 -21t21 -31t7.5 -37.5t-7.5 -37.5t-21 -30.5t-31 -20.5t-37.5 -7.5t-37.5 7.5t-31 20.5t-21 30.5
t-7.5 37.5z" />
    <glyph glyph-name="jeemisolated" unicode="&#x62c;" horiz-adv-x="1065" arabic-form="isolated" 
d="M129 875q27 13 71 29.5t97 31.5t111.5 25t114.5 10q82 0 160.5 -20t140 -71t99 -138.5t37.5 -222.5v-212q0 -63 -24.5 -119t-66.5 -98t-99 -66t-121 -24h-274q-20 0 -35 -8t-25 -20.5t-15 -29t-5 -34.5q0 -17 5 -34t15 -30.5t25 -21.5t35 -8h265v-189h-265
q-68 0 -118.5 24.5t-84 64t-50.5 90.5t-17 104t17 103.5t50.5 90t84 63.5t118.5 24h274q25 0 47.5 9.5t39 25.5t26 37.5t9.5 45.5v212q0 78 -21.5 128.5t-56 80t-79.5 41.5t-91 12q-44 0 -90.5 -8t-88.5 -19.5t-77 -25t-57 -23.5zM767 -278q0 20 7.5 37.5t21 30.5t31 20.5
t37.5 7.5q40 0 68 -28t28 -68q0 -20 -7.5 -37.5t-20.5 -31t-30.5 -21t-37.5 -7.5t-37.5 7.5t-31 21t-21 31t-7.5 37.5z" />
    <glyph glyph-name="jeemfinal" unicode="&#x62c;" horiz-adv-x="1113" arabic-form="final" 
d="M129 875q27 13 71 29.5t97.5 31.5t112 25t114.5 10q55 0 108.5 -8.5t102.5 -29t90.5 -54t72 -83.5t47.5 -118.5t17 -158.5v-330h193v-189h-780q-20 0 -35 -8t-25 -20.5t-15 -29t-5 -34.5q0 -17 5 -34t15 -30.5t25 -21.5t35 -8h265v-189h-265q-68 0 -118.5 24.5t-84 64
t-50.5 90.5t-17 104t17 103.5t50.5 90t84 63.5t118.5 24h397v330q0 78 -21.5 128.5t-56 80t-79.5 41.5t-91 12q-44 0 -90 -8t-88.5 -19.5t-77.5 -25t-57 -23.5zM767 -278q0 20 7.5 37.5t21 30.5t31 20.5t37.5 7.5t37.5 -7.5t31 -20.5t21 -30.5t7.5 -37.5t-7.5 -37.5t-21 -31
t-31 -21t-37.5 -7.5t-37.5 7.5t-31 21t-21 31t-7.5 37.5z" />
    <glyph glyph-name="jeeminitial" unicode="&#x62c;" horiz-adv-x="1075" arabic-form="initial" 
d="M138 875q27 13 71 29.5t97.5 31.5t112 25t114.5 10q82 0 160.5 -20t140 -71t99 -138.5t37.5 -222.5v-212q0 -63 -24.5 -119t-67 -98t-99.5 -66t-121 -24h-700v189h700q25 0 47.5 9.5t39.5 25.5t26.5 37.5t9.5 45.5v212q0 78 -21.5 128.5t-56 80t-79.5 41.5t-91 12
q-44 0 -90.5 -8t-88.5 -19.5t-77.5 -25t-57.5 -23.5zM441 -278q0 40 28 68t69 28q40 0 68 -28t28 -68q0 -20 -7.5 -37.5t-20.5 -31t-30.5 -21t-37.5 -7.5t-38 7.5t-31 21t-20.5 31t-7.5 37.5z" />
    <glyph glyph-name="jeemmedial" unicode="&#x62c;" horiz-adv-x="1125" arabic-form="medial" 
d="M141 875q27 13 71 29.5t97.5 31.5t112 25t114.5 10q82 0 160.5 -20t140 -71t99 -138.5t37.5 -222.5v-330h194v-189h-1209v189h826v330q0 78 -21.5 128.5t-56 80t-79.5 41.5t-91 12q-44 0 -90.5 -8t-88.5 -19.5t-77.5 -25t-57.5 -23.5zM440 -278q0 20 7.5 37.5t21 30.5
t31 20.5t37.5 7.5q40 0 68 -28t28 -68q0 -20 -7.5 -37.5t-20.5 -31t-30.5 -21t-37.5 -7.5t-37.5 7.5t-31 21t-21 31t-7.5 37.5z" />
    <glyph glyph-name="hahisolated" unicode="&#x62d;" horiz-adv-x="1065" arabic-form="isolated" 
d="M129 875q27 13 71 29.5t97 31.5t111.5 25t114.5 10q82 0 160.5 -20t140 -71t99 -138.5t37.5 -222.5v-212q0 -63 -24.5 -119t-66.5 -98t-99 -66t-121 -24h-274q-20 0 -35 -8t-25 -20.5t-15 -29t-5 -34.5q0 -17 5 -34t15 -30.5t25 -21.5t35 -8h396v-189h-396
q-68 0 -118.5 24.5t-84 64t-50.5 90.5t-17 104t17 103.5t50.5 90t84 63.5t118.5 24h274q25 0 47.5 9.5t39 25.5t26 37.5t9.5 45.5v212q0 78 -21.5 128.5t-56 80t-79.5 41.5t-91 12q-44 0 -90.5 -8t-88.5 -19.5t-77 -25t-57 -23.5z" />
    <glyph glyph-name="hahfinal" unicode="&#x62d;" horiz-adv-x="1113" arabic-form="final" 
d="M129 875q27 13 71 29.5t97.5 31.5t112 25t114.5 10q55 0 108.5 -8.5t102.5 -29t90.5 -54t72 -83.5t47.5 -118.5t17 -158.5v-330h193v-189h-780q-20 0 -35 -8t-25 -20.5t-15 -29t-5 -34.5q0 -17 5 -34t15 -30.5t25 -21.5t35 -8h396v-189h-396q-68 0 -118.5 24.5t-84 64
t-50.5 90.5t-17 104t17 103.5t50.5 90t84 63.5t118.5 24h397v330q0 78 -21.5 128.5t-56 80t-79.5 41.5t-91 12q-44 0 -90 -8t-88.5 -19.5t-77.5 -25t-57 -23.5z" />
    <glyph glyph-name="hahinitial" unicode="&#x62d;" horiz-adv-x="1075" arabic-form="initial" 
d="M138 875q27 13 71 29.5t97.5 31.5t112 25t114.5 10q82 0 160.5 -20t140 -71t99 -138.5t37.5 -222.5v-212q0 -63 -24.5 -119t-67 -98t-99.5 -66t-121 -24h-700v189h700q25 0 47.5 9.5t39.5 25.5t26.5 37.5t9.5 45.5v212q0 78 -21.5 128.5t-56 80t-79.5 41.5t-91 12
q-44 0 -90.5 -8t-88.5 -19.5t-77.5 -25t-57.5 -23.5z" />
    <glyph glyph-name="hahmedial" unicode="&#x62d;" horiz-adv-x="1125" arabic-form="medial" 
d="M141 875q27 13 71 29.5t97.5 31.5t112 25t114.5 10q82 0 160.5 -20t140 -71t99 -138.5t37.5 -222.5v-330h194v-189h-1209v189h826v330q0 78 -21.5 128.5t-56 80t-79.5 41.5t-91 12q-44 0 -90.5 -8t-88.5 -19.5t-77.5 -25t-57.5 -23.5z" />
    <glyph glyph-name="khahisolated" unicode="&#x62e;" horiz-adv-x="1065" arabic-form="isolated" 
d="M129 875q27 13 71 29.5t97 31.5t111.5 25t114.5 10q82 0 160.5 -20t140 -71t99 -138.5t37.5 -222.5v-212q0 -63 -24.5 -119t-66.5 -98t-99 -66t-121 -24h-274q-20 0 -35 -8t-25 -20.5t-15 -29t-5 -34.5q0 -17 5 -34t15 -30.5t25 -21.5t35 -8h397v-189h-397
q-68 0 -118.5 24.5t-84 64t-50.5 90.5t-17 104t17 103.5t50.5 90t84 63.5t118.5 24h274q25 0 47.5 9.5t39 25.5t26 37.5t9.5 45.5v212q0 78 -21.5 128.5t-56 80t-79.5 41.5t-91 12q-44 0 -90.5 -8t-88.5 -19.5t-77 -25t-57 -23.5zM427 1248q0 20 7.5 37.5t21 31t31 21
t37.5 7.5t37.5 -7.5t30.5 -21t20.5 -31t7.5 -37.5q0 -40 -28 -68t-68 -28q-20 0 -37.5 7.5t-31 20.5t-21 30.5t-7.5 37.5z" />
    <glyph glyph-name="khahfinal" unicode="&#x62e;" horiz-adv-x="1113" arabic-form="final" 
d="M129 875q27 13 71 29.5t97.5 31.5t112 25t114.5 10q55 0 108.5 -8.5t102.5 -29t90.5 -54t72 -83.5t47.5 -118.5t17 -158.5v-330h193v-189h-780q-20 0 -35 -8t-25 -20.5t-15 -29t-5 -34.5q0 -17 5 -34t15 -30.5t25 -21.5t35 -8h396v-189h-396q-68 0 -118.5 24.5t-84 64
t-50.5 90.5t-17 104t17 103.5t50.5 90t84 63.5t118.5 24h397v330q0 78 -21.5 128.5t-56 80t-79.5 41.5t-91 12q-44 0 -90 -8t-88.5 -19.5t-77.5 -25t-57 -23.5zM427 1248q0 20 7.5 37.5t21 31t31 21t37.5 7.5t37.5 -7.5t31 -21t21 -31t7.5 -37.5t-7.5 -37.5t-21 -30.5
t-31 -20.5t-37.5 -7.5t-37.5 7.5t-31 20.5t-21 30.5t-7.5 37.5z" />
    <glyph glyph-name="khahinitial" unicode="&#x62e;" horiz-adv-x="1075" arabic-form="initial" 
d="M138 875q27 13 71 29.5t97.5 31.5t112 25t114.5 10q82 0 160.5 -20t140 -71t99 -138.5t37.5 -222.5v-212q0 -63 -24.5 -119t-67 -98t-99.5 -66t-121 -24h-700v189h700q25 0 47.5 9.5t39.5 25.5t26.5 37.5t9.5 45.5v212q0 78 -21.5 128.5t-56 80t-79.5 41.5t-91 12
q-44 0 -90.5 -8t-88.5 -19.5t-77.5 -25t-57.5 -23.5zM436 1248q0 20 7.5 37.5t21 31t31 21t37.5 7.5t37.5 -7.5t30.5 -21t20.5 -31t7.5 -37.5q0 -40 -28 -68t-68 -28q-20 0 -37.5 7.5t-31 20.5t-21 30.5t-7.5 37.5z" />
    <glyph glyph-name="khahmedial" unicode="&#x62e;" horiz-adv-x="1125" arabic-form="medial" 
d="M141 875q27 13 71 29.5t97.5 31.5t112 25t114.5 10q82 0 160.5 -20t140 -71t99 -138.5t37.5 -222.5v-330h194v-189h-1209v189h826v330q0 78 -21.5 128.5t-56 80t-79.5 41.5t-91 12q-44 0 -90.5 -8t-88.5 -19.5t-77.5 -25t-57.5 -23.5zM438 1248q0 20 7.5 37.5t21 31
t31 21t37.5 7.5t37.5 -7.5t30.5 -21t20.5 -31t7.5 -37.5q0 -40 -28 -68t-68 -28q-20 0 -37.5 7.5t-31 20.5t-21 30.5t-7.5 37.5z" />
    <glyph glyph-name="dalisolated" unicode="&#x62f;" horiz-adv-x="913" arabic-form="isolated" 
d="M159 970q173 0 296 -29.5t201.5 -87t115 -141.5t36.5 -193v-212q0 -64 -24.5 -120t-67 -97.5t-99.5 -65.5t-122 -24h-390v189h390q25 0 47.5 9.5t39.5 25.5t26.5 37.5t9.5 45.5v212q0 63 -25.5 111.5t-81 82t-142.5 50.5t-210 17v190z" />
    <glyph glyph-name="dalfinal" unicode="&#x62f;" horiz-adv-x="959" arabic-form="final" 
d="M159 970q174 0 297 -29.5t201 -87t114.5 -141.5t36.5 -193v-330h193v-189h-896v189h514v330q0 63 -26 111.5t-81.5 82t-142.5 50.5t-210 17v190z" />
    <glyph glyph-name="thalisolated" unicode="&#x630;" horiz-adv-x="913" arabic-form="isolated" 
d="M159 970q173 0 296 -29.5t201.5 -87t115 -141.5t36.5 -193v-212q0 -64 -24.5 -120t-67 -97.5t-99.5 -65.5t-122 -24h-390v189h390q25 0 47.5 9.5t39.5 25.5t26.5 37.5t9.5 45.5v212q0 63 -25.5 111.5t-81 82t-142.5 50.5t-210 17v190zM392 1248q0 20 7.5 37.5t21 31
t31 21t37.5 7.5t37.5 -7.5t30.5 -21t20.5 -31t7.5 -37.5q0 -40 -28 -68t-68 -28q-20 0 -37.5 7.5t-31 20.5t-21 30.5t-7.5 37.5z" />
    <glyph glyph-name="thalfinal" unicode="&#x630;" horiz-adv-x="959" arabic-form="final" 
d="M159 970q174 0 297 -29.5t201 -87t114.5 -141.5t36.5 -193v-330h193v-189h-896v189h514v330q0 63 -26 111.5t-81.5 82t-142.5 50.5t-210 17v190zM392 1248q0 20 7.5 37.5t21 31t31 21t37.5 7.5t37.5 -7.5t30.5 -21t20.5 -31t7.5 -37.5q0 -40 -28 -68t-68 -28
q-20 0 -37.5 7.5t-31 20.5t-21 30.5t-7.5 37.5z" />
    <glyph glyph-name="rehisolated" unicode="&#x631;" horiz-adv-x="568" arabic-form="isolated" 
d="M462 969v-864q-1 -93 -40 -183q-17 -38 -43.5 -79.5t-67 -82t-95.5 -78.5t-129 -69l-73 175q51 21 88.5 45.5t65.5 50.5t46 51.5t30 49.5q27 55 28 112v872h190z" />
    <glyph glyph-name="rehfinal" unicode="&#x631;" horiz-adv-x="612" arabic-form="final" 
d="M461 969v-780h193v-189h-204q-9 -40 -30 -90t-62 -102.5t-107 -103t-164 -91.5l-73 175q50 21 88 45t65.5 49.5t45.5 50.5t30 48q27 54 28 109v879h190z" />
    <glyph glyph-name="zainisolated" unicode="&#x632;" horiz-adv-x="568" arabic-form="isolated" 
d="M268 1248q0 20 7.5 37.5t21 31t31 21t37.5 7.5t37.5 -7.5t31 -21t21 -31t7.5 -37.5t-7.5 -37.5t-21 -30.5t-31 -20.5t-37.5 -7.5t-37.5 7.5t-31 20.5t-21 30.5t-7.5 37.5zM462 969v-864q-1 -93 -40 -183q-17 -38 -43.5 -79.5t-67 -82t-95.5 -78.5t-129 -69l-73 175
q51 21 88.5 45.5t65.5 50.5t46 51.5t30 49.5q27 55 28 112v872h190z" />
    <glyph glyph-name="zainfinal" unicode="&#x632;" horiz-adv-x="612" arabic-form="final" 
d="M268 1248q0 20 7.5 37.5t20.5 31t30.5 21t37.5 7.5t37.5 -7.5t31 -21t21 -31t7.5 -37.5t-7.5 -37.5t-21 -30.5t-31 -20.5t-37.5 -7.5q-40 0 -68 28t-28 68zM461 969v-780h193v-189h-204q-9 -40 -30 -90t-62 -102.5t-107 -103t-164 -91.5l-73 175q50 21 88 45t65.5 49.5
t45.5 50.5t30 48q27 54 28 109v879h190z" />
    <glyph glyph-name="seenisolated" unicode="&#x633;" horiz-adv-x="2068" arabic-form="isolated" 
d="M1532 969v-780h119q25 0 47.5 9.5t39.5 25t26.5 37t9.5 45.5v663h189v-663q0 -63 -24.5 -119t-67 -97.5t-99.5 -65.5t-121 -24h-557q-12 -93 -58.5 -163.5t-114 -117.5t-150.5 -70.5t-169 -23.5q-93 0 -182.5 27t-159 82t-112.5 136.5t-43 191.5v730h190v-730
q0 -62 26.5 -108.5t69.5 -77.5t98.5 -46.5t112.5 -15.5q58 0 113 15.5t98 46.5t69.5 77.5t26.5 108.5v907h191v-780h242v780h190z" />
    <glyph glyph-name="seenfinal" unicode="&#x633;" horiz-adv-x="2114" arabic-form="final" 
d="M1532 969v-780h242v780h189v-780h193v-189h-1061q-12 -93 -58.5 -163.5t-114 -117.5t-150.5 -70.5t-169 -23.5q-94 0 -183.5 27t-159.5 82t-112.5 136.5t-42.5 191.5v730h190v-730q0 -62 26.5 -108.5t69.5 -77.5t98.5 -46.5t113.5 -15.5q57 0 112.5 15.5t98.5 46.5
t69.5 77.5t26.5 108.5v907h190v-780h242v780h190z" />
    <glyph glyph-name="seeninitial" unicode="&#x633;" horiz-adv-x="1471" arabic-form="initial" 
d="M933 969v-780h120q25 0 47.5 9.5t39.5 25.5t26.5 37.5t9.5 45.5v662h190v-662q0 -64 -24.5 -120t-67 -97.5t-99.5 -65.5t-122 -24h-1095v189h354v780h189v-780h243v780h189z" />
    <glyph glyph-name="seenmedial" unicode="&#x633;" horiz-adv-x="1517" arabic-form="medial" 
d="M1366 969v-780h193v-189h-1601v189h353v780h189v-780h243v780h189v-780h245v780h189z" />
    <glyph glyph-name="sheenisolated" unicode="&#x634;" horiz-adv-x="2068" arabic-form="isolated" 
d="M1532 969v-780h119q25 0 47.5 9.5t39.5 25t26.5 37t9.5 45.5v663h189v-663q0 -63 -24.5 -119t-67 -97.5t-99.5 -65.5t-121 -24h-557q-12 -93 -58.5 -163.5t-114 -117.5t-150.5 -70.5t-169 -23.5q-93 0 -182.5 27t-159 82t-112.5 136.5t-43 191.5v730h190v-730
q0 -62 26.5 -108.5t69.5 -77.5t98.5 -46.5t112.5 -15.5q58 0 113 15.5t98 46.5t69.5 77.5t26.5 108.5v907h191v-780h242v780h190zM1344 1453q0 20 7.5 37.5t20.5 31t30.5 21t37.5 7.5t37.5 -7.5t31 -21t21 -31t7.5 -37.5t-7.5 -37.5t-21 -31t-31 -21t-37.5 -7.5t-37.5 7.5
t-30.5 21t-20.5 31t-7.5 37.5zM1485 1248q0 20 7.5 37.5t21 31t31 21t37.5 7.5t37.5 -7.5t30.5 -21t20.5 -31t7.5 -37.5q0 -40 -28 -68t-68 -28q-20 0 -37.5 7.5t-31 20.5t-21 30.5t-7.5 37.5zM1202 1248q0 20 7.5 37.5t21 31t31 21t37.5 7.5t37.5 -7.5t31 -21t21 -31
t7.5 -37.5t-7.5 -37.5t-21 -30.5t-31 -20.5t-37.5 -7.5t-37.5 7.5t-31 20.5t-21 30.5t-7.5 37.5z" />
    <glyph glyph-name="sheenfinal" unicode="&#x634;" horiz-adv-x="2114" arabic-form="final" 
d="M1532 969v-780h242v780h189v-780h193v-189h-1061q-12 -93 -58.5 -163.5t-114 -117.5t-150.5 -70.5t-169 -23.5q-94 0 -183.5 27t-159.5 82t-112.5 136.5t-42.5 191.5v730h190v-730q0 -62 26.5 -108.5t69.5 -77.5t98.5 -46.5t113.5 -15.5q57 0 112 15.5t98 46.5t69.5 77.5
t26.5 108.5v907h191v-780h242v780h190zM1342 1453q0 20 7.5 37.5t20.5 31t30.5 21t37.5 7.5t37.5 -7.5t31 -21t21 -31t7.5 -37.5t-7.5 -37.5t-21 -31t-31 -21t-37.5 -7.5t-37.5 7.5t-30.5 21t-20.5 31t-7.5 37.5zM1483 1248q0 20 7.5 37.5t21 31t31 21t37.5 7.5t37.5 -7.5
t30.5 -21t20.5 -31t7.5 -37.5q0 -40 -28 -68t-68 -28q-20 0 -37.5 7.5t-31 20.5t-21 30.5t-7.5 37.5zM1200 1248q0 20 7.5 37.5t21 31t31 21t37.5 7.5t37.5 -7.5t31 -21t21 -31t7.5 -37.5t-7.5 -37.5t-21 -30.5t-31 -20.5t-37.5 -7.5t-37.5 7.5t-31 20.5t-21 30.5t-7.5 37.5
z" />
    <glyph glyph-name="sheeninitial" unicode="&#x634;" horiz-adv-x="1471" arabic-form="initial" 
d="M933 969v-780h120q25 0 47.5 9.5t39.5 25.5t26.5 37.5t9.5 45.5v662h190v-662q0 -64 -24.5 -120t-67 -97.5t-99.5 -65.5t-122 -24h-1095v189h354v780h189v-780h243v780h189zM741 1453q0 20 7.5 37.5t20.5 31t30.5 21t37.5 7.5t37.5 -7.5t31 -21t21 -31t7.5 -37.5
t-7.5 -37.5t-21 -31t-31 -21t-37.5 -7.5t-37.5 7.5t-30.5 21t-20.5 31t-7.5 37.5zM882 1248q0 20 7.5 37.5t21 31t31 21t37.5 7.5t37.5 -7.5t30.5 -21t20.5 -31t7.5 -37.5q0 -40 -28 -68t-68 -28q-20 0 -37.5 7.5t-31 20.5t-21 30.5t-7.5 37.5zM599 1248q0 20 7.5 37.5
t21 31t31 21t37.5 7.5t37.5 -7.5t31 -21t21 -31t7.5 -37.5t-7.5 -37.5t-21 -30.5t-31 -20.5t-37.5 -7.5t-37.5 7.5t-31 20.5t-21 30.5t-7.5 37.5z" />
    <glyph glyph-name="sheenmedial" unicode="&#x634;" horiz-adv-x="1517" arabic-form="medial" 
d="M1366 969v-780h193v-189h-1601v189h353v780h189v-780h243v780h189v-780h245v780h189zM739 1453q0 20 7.5 37.5t20.5 31t30.5 21t37.5 7.5t37.5 -7.5t31 -21t21 -31t7.5 -37.5t-7.5 -37.5t-21 -31t-31 -21t-37.5 -7.5t-37.5 7.5t-30.5 21t-20.5 31t-7.5 37.5zM880 1248
q0 20 7.5 37.5t21 31t31 21t37.5 7.5t37.5 -7.5t30.5 -21t20.5 -31t7.5 -37.5q0 -40 -28 -68t-68 -28q-20 0 -37.5 7.5t-31 20.5t-21 30.5t-7.5 37.5zM597 1248q0 20 7.5 37.5t21 31t31 21t37.5 7.5t37.5 -7.5t31 -21t21 -31t7.5 -37.5t-7.5 -37.5t-21 -30.5t-31 -20.5
t-37.5 -7.5t-37.5 7.5t-31 20.5t-21 30.5t-7.5 37.5z" />
    <glyph glyph-name="sadisolated" unicode="&#x635;" horiz-adv-x="2068" arabic-form="isolated" 
d="M1100 969v-170q48 37 103 68.5t113.5 54t119 35t117.5 12.5q84 0 158.5 -24t130.5 -77.5t88.5 -139.5t32.5 -210v-212q0 -63 -24.5 -119t-67.5 -97.5t-100 -65.5t-121 -24h-555q-12 -93 -58.5 -163.5t-114 -117.5t-151 -70.5t-169.5 -23.5q-93 0 -182.5 27t-159.5 82
t-112.5 136.5t-42.5 191.5v730h190v-730q0 -62 26.5 -108.5t69.5 -77.5t98 -46.5t113 -15.5t113 15.5t98.5 46.5t70 77.5t26.5 108.5v907h190zM1100 189h550q25 0 47.5 9.5t39.5 25t26.5 37t9.5 45.5v212q0 72 -17.5 121.5t-47.5 80.5t-70 45t-85 14q-51 0 -104 -12
t-103.5 -32.5t-95 -49t-78 -61.5t-53 -69t-19.5 -72v-294z" />
    <glyph glyph-name="sadfinal" unicode="&#x635;" horiz-adv-x="2113" arabic-form="final" 
d="M1099 969v-170q48 37 103 68.5t114 54t119 35t118 12.5q83 0 157.5 -24t130.5 -77.5t88.5 -139.5t32.5 -210v-329h193v-189h-1061q-12 -93 -58.5 -163.5t-114 -117.5t-150 -70.5t-168.5 -23.5q-93 0 -182.5 27t-159.5 82t-113 136.5t-43 191.5v730h190v-730
q0 -62 26.5 -108.5t70 -77.5t98.5 -46.5t113 -15.5q57 0 112 15.5t98 46.5t69.5 77.5t26.5 108.5v907h190zM1099 189h673v329q0 72 -17.5 121.5t-47.5 80.5t-70 45t-84 14q-51 0 -104.5 -12t-104 -32.5t-95 -49t-78 -61.5t-53 -69t-19.5 -72v-294z" />
    <glyph glyph-name="sadinitial" unicode="&#x635;" horiz-adv-x="1310" arabic-form="initial" 
d="M341 969v-170q48 37 103 68.5t114 54t119 35t118 12.5q84 0 158.5 -24t130.5 -77.5t88.5 -139.5t32.5 -210v-212q0 -63 -24.5 -119t-67.5 -97.5t-100 -65.5t-121 -24h-934v189h193v780h190zM795 779q-51 0 -104.5 -12t-104 -32.5t-95 -49t-78 -61.5t-53 -69t-19.5 -72
v-294h551q25 0 47.5 9.5t39.5 25t26.5 37t9.5 45.5v212q0 72 -17.5 121.5t-47.5 80.5t-70 45t-85 14z" />
    <glyph glyph-name="sadmedial" unicode="&#x635;" horiz-adv-x="1356" arabic-form="medial" 
d="M342 969v-170q48 37 103 68.5t114 54t119 35t118 12.5q83 0 157.5 -24t130.5 -77.5t88.5 -139.5t32.5 -210v-329h193v-189h-1440v189h194v780h190zM796 779q-51 0 -104.5 -12t-104 -32.5t-95 -49t-78 -61.5t-53 -69t-19.5 -72v-294h673v329q0 72 -17.5 121.5t-47.5 80.5
t-70 45t-84 14z" />
    <glyph glyph-name="dadisolated" unicode="&#x636;" horiz-adv-x="2068" arabic-form="isolated" 
d="M1100 969v-170q48 37 103 68.5t113.5 54t119 35t117.5 12.5q84 0 158.5 -24t130.5 -77.5t88.5 -139.5t32.5 -210v-212q0 -63 -24.5 -119t-67.5 -97.5t-100 -65.5t-121 -24h-555q-12 -93 -58.5 -163.5t-114 -117.5t-151 -70.5t-169.5 -23.5q-93 0 -182.5 27t-159.5 82
t-112.5 136.5t-42.5 191.5v730h190v-730q0 -62 26.5 -108.5t69.5 -77.5t98 -46.5t113 -15.5t113 15.5t98.5 46.5t70 77.5t26.5 108.5v907h190zM1100 189h550q25 0 47.5 9.5t39.5 25t26.5 37t9.5 45.5v212q0 72 -17.5 121.5t-47.5 80.5t-70 45t-85 14q-51 0 -104 -12
t-103.5 -32.5t-95 -49t-78 -61.5t-53 -69t-19.5 -72v-294zM1339 1248q0 20 7.5 37.5t21 31t31 21t37.5 7.5t37.5 -7.5t31 -21t21 -31t7.5 -37.5t-7.5 -37.5t-21 -30.5t-31 -20.5t-37.5 -7.5t-37.5 7.5t-31 20.5t-21 30.5t-7.5 37.5z" />
    <glyph glyph-name="dadfinal" unicode="&#x636;" horiz-adv-x="2113" arabic-form="final" 
d="M1099 969v-170q48 37 103 68.5t114 54t119 35t118 12.5q83 0 157.5 -24t130.5 -77.5t88.5 -139.5t32.5 -210v-329h193v-189h-1061q-12 -93 -58.5 -163.5t-114 -117.5t-150 -70.5t-168.5 -23.5q-93 0 -182.5 27t-159.5 82t-113 136.5t-43 191.5v730h190v-730
q0 -62 26.5 -108.5t70 -77.5t98.5 -46.5t113 -15.5q57 0 112 15.5t98 46.5t69.5 77.5t26.5 108.5v907h190zM1099 189h673v329q0 72 -17.5 121.5t-47.5 80.5t-70 45t-84 14q-51 0 -104.5 -12t-104 -32.5t-95 -49t-78 -61.5t-53 -69t-19.5 -72v-294zM1339 1248q0 20 7.5 37.5
t21 31t31 21t37.5 7.5t37.5 -7.5t31 -21t21 -31t7.5 -37.5t-7.5 -37.5t-21 -30.5t-31 -20.5t-37.5 -7.5t-37.5 7.5t-31 20.5t-21 30.5t-7.5 37.5z" />
    <glyph glyph-name="dadinitial" unicode="&#x636;" horiz-adv-x="1310" arabic-form="initial" 
d="M341 969v-170q48 37 103 68.5t114 54t119 35t118 12.5q84 0 158.5 -24t130.5 -77.5t88.5 -139.5t32.5 -210v-212q0 -63 -24.5 -119t-67.5 -97.5t-100 -65.5t-121 -24h-934v189h193v780h190zM795 779q-51 0 -104.5 -12t-104 -32.5t-95 -49t-78 -61.5t-53 -69t-19.5 -72
v-294h551q25 0 47.5 9.5t39.5 25t26.5 37t9.5 45.5v212q0 72 -17.5 121.5t-47.5 80.5t-70 45t-85 14zM580 1248q0 20 7.5 37.5t21 31t31 21t37.5 7.5t37.5 -7.5t31 -21t21 -31t7.5 -37.5t-7.5 -37.5t-21 -30.5t-31 -20.5t-37.5 -7.5t-37.5 7.5t-31 20.5t-21 30.5t-7.5 37.5z
" />
    <glyph glyph-name="dadmedial" unicode="&#x636;" horiz-adv-x="1356" arabic-form="medial" 
d="M342 969v-170q48 37 103 68.5t114 54t119 35t118 12.5q83 0 157.5 -24t130.5 -77.5t88.5 -139.5t32.5 -210v-329h193v-189h-1450v189h204v780h190zM796 779q-51 0 -104.5 -12t-104 -32.5t-95 -49t-78 -61.5t-53 -69t-19.5 -72v-294h673v329q0 72 -17.5 121.5t-47.5 80.5
t-70 45t-84 14zM582 1248q0 20 7.5 37.5t20.5 31t30.5 21t37.5 7.5t37.5 -7.5t31 -21t21 -31t7.5 -37.5t-7.5 -37.5t-21 -30.5t-31 -20.5t-37.5 -7.5q-40 0 -68 28t-28 68z" />
    <glyph glyph-name="tahisolated" unicode="&#x637;" horiz-adv-x="1415" arabic-form="isolated" 
d="M446 1345v-545q48 38 103 69t113.5 53.5t119 35t118.5 12.5q83 0 157.5 -24t130.5 -78t89 -140t33 -210v-211q0 -64 -24.5 -120t-67.5 -97.5t-100 -65.5t-121 -24h-892v189h152v1156h189zM900 780q-51 0 -104.5 -12t-104 -32.5t-95 -49t-78 -61.5t-53 -69t-19.5 -72v-295
h551q25 0 47.5 9.5t39.5 25.5t26.5 37.5t9.5 45.5v211q0 72 -17.5 121.5t-47.5 81t-70 45.5t-85 14z" />
    <glyph glyph-name="tahfinal" unicode="&#x637;" horiz-adv-x="1461" arabic-form="final" 
d="M446 1345v-545q48 38 103 69t113.5 53.5t119 35t118.5 12.5q83 0 157.5 -24t130.5 -78t89 -140t33 -210v-329h193v-189h-1398v189h152v1156h189zM900 780q-51 0 -104.5 -12t-104 -32.5t-95 -49t-78 -61.5t-53 -69t-19.5 -72v-295h675v329q0 72 -18 121.5t-48 81t-70 45.5
t-85 14z" />
    <glyph glyph-name="tahinitial" unicode="&#x637;" horiz-adv-x="1309" arabic-form="initial" 
d="M341 1345v-546q48 38 103 69.5t114 54t119 35t118 12.5q84 0 158 -24t130 -78t88.5 -140t32.5 -210v-211q0 -64 -24.5 -120t-67 -97.5t-99.5 -65.5t-121 -24h-934v189h193v1156h190zM795 780q-51 0 -104 -12t-103.5 -33t-95.5 -49.5t-78.5 -61.5t-53 -69t-19.5 -72v-294
h551q25 0 47.5 9.5t39 25.5t26 37.5t9.5 45.5v211q0 72 -17.5 122t-47.5 81t-69.5 45t-84.5 14z" />
    <glyph glyph-name="tahmedial" unicode="&#x637;" horiz-adv-x="1356" arabic-form="medial" 
d="M341 1345v-545q48 38 103 69t113.5 53.5t119 35t118.5 12.5q83 0 157.5 -24t130.5 -78t89 -140t33 -210v-329h193v-189h-1440v189h194v1156h189zM795 780q-51 0 -104.5 -12t-104 -32.5t-95 -49t-78 -61.5t-53 -69t-19.5 -72v-295h674v329q0 72 -17.5 121.5t-47.5 81
t-70 45.5t-85 14z" />
    <glyph glyph-name="zahisolated" unicode="&#x638;" horiz-adv-x="1415" arabic-form="isolated" 
d="M446 1345v-545q48 38 103 69t113.5 53.5t119 35t118.5 12.5q83 0 157.5 -24t130.5 -78t89 -140t33 -210v-211q0 -64 -24.5 -120t-67.5 -97.5t-100 -65.5t-121 -24h-892v189h152v1156h189zM900 780q-51 0 -104.5 -12t-104 -32.5t-95 -49t-78 -61.5t-53 -69t-19.5 -72v-295
h551q25 0 47.5 9.5t39.5 25.5t26.5 37.5t9.5 45.5v211q0 72 -17.5 121.5t-47.5 81t-70 45.5t-85 14zM687 1248q0 20 7.5 37.5t20.5 31t30.5 21t37.5 7.5t37.5 -7.5t31 -21t21 -31t7.5 -37.5t-7.5 -37.5t-21 -30.5t-31 -20.5t-37.5 -7.5q-40 0 -68 28t-28 68z" />
    <glyph glyph-name="zahfinal" unicode="&#x638;" horiz-adv-x="1461" arabic-form="final" 
d="M446 1345v-545q48 38 103 69t113.5 53.5t119 35t118.5 12.5q83 0 157.5 -24t130.5 -78t89 -140t33 -210v-329h193v-189h-1398v189h152v1156h189zM900 780q-51 0 -104.5 -12t-104 -32.5t-95 -49t-78 -61.5t-53 -69t-19.5 -72v-295h675v329q0 72 -18 121.5t-48 81t-70 45.5
t-85 14zM688 1248q0 20 7.5 37.5t20.5 31t30.5 21t37.5 7.5t37.5 -7.5t31 -21t21 -31t7.5 -37.5t-7.5 -37.5t-21 -30.5t-31 -20.5t-37.5 -7.5q-40 0 -68 28t-28 68z" />
    <glyph glyph-name="zahinitial" unicode="&#x638;" horiz-adv-x="1309" arabic-form="initial" 
d="M341 1345v-546q48 38 103 69.5t114 54t119 35t118 12.5q84 0 158 -24t130 -78t88.5 -140t32.5 -210v-211q0 -64 -24.5 -120t-67 -97.5t-99.5 -65.5t-121 -24h-934v189h193v1156h190zM795 780q-51 0 -104 -12t-103.5 -33t-95.5 -49.5t-78.5 -61.5t-53 -69t-19.5 -72v-294
h551q25 0 47.5 9.5t39 25.5t26 37.5t9.5 45.5v211q0 72 -17.5 122t-47.5 81t-69.5 45t-84.5 14zM580 1248q0 20 7.5 37.5t21 31t31 21t37.5 7.5t37.5 -7.5t31 -21t21 -31t7.5 -37.5t-7.5 -37.5t-21 -30.5t-31 -20.5t-37.5 -7.5t-37.5 7.5t-31 20.5t-21 30.5t-7.5 37.5z" />
    <glyph glyph-name="zahmedial" unicode="&#x638;" horiz-adv-x="1356" arabic-form="medial" 
d="M341 1345v-545q48 38 103 69t113.5 53.5t119 35t118.5 12.5q83 0 157.5 -24t130.5 -78t89 -140t33 -210v-329h193v-189h-1440v189h194v1156h189zM795 780q-51 0 -104.5 -12t-104 -32.5t-95 -49t-78 -61.5t-53 -69t-19.5 -72v-295h674v329q0 72 -17.5 121.5t-47.5 81
t-70 45.5t-85 14zM582 1248q0 20 7.5 37.5t20.5 31t30.5 21t37.5 7.5t37.5 -7.5t31 -21t21 -31t7.5 -37.5t-7.5 -37.5t-21 -30.5t-31 -20.5t-37.5 -7.5q-40 0 -68 28t-28 68z" />
    <glyph glyph-name="ainisolated" unicode="&#x639;" horiz-adv-x="1207" arabic-form="isolated" 
d="M1102 0h-727q-20 0 -35 -8t-25 -20.5t-15 -29t-5 -34.5q0 -17 5 -34t15 -30.5t25 -21.5t35 -8h545v-189h-545q-68 0 -118.5 24.5t-84 64t-50.5 90.5t-17 104q0 49 14.5 96.5t44.5 86t76 64.5t109 33v345q0 92 34 171.5t92.5 138t137.5 91.5t168 33q98 2 217 -54l-78 -172
q-41 18 -75.5 28t-63.5 9q-50 0 -94.5 -18.5t-77.5 -51.5t-52 -78t-19 -97v-344h564v-189z" />
    <glyph glyph-name="ainfinal" unicode="&#x639;" horiz-adv-x="1144" arabic-form="final" 
d="M1186 0h-811q-20 0 -35 -8t-25.5 -20.5t-15.5 -29t-5 -34.5q0 -17 5 -34t15.5 -30.5t25.5 -21.5t35 -8h545v-189h-545q-68 0 -118.5 24.5t-84 64t-50.5 90.5t-17 104q0 45 12.5 89t38.5 81t66 64.5t95 39.5q-43 50 -84.5 113.5t-67.5 136.5q-17 46 -26.5 94t-9.5 96
q0 71 22 134.5t72.5 111t132.5 75t203 27.5t204 -28t133.5 -76t72.5 -112t22 -136q0 -46 -8.5 -92t-23.5 -91q-24 -72 -63 -133.5t-81 -112.5h371v-189zM343 493q18 -50 46 -94.5t59 -82t62 -67t55 -50.5q23 18 52.5 46t59 65.5t56.5 83.5t46 100q10 31 16.5 63.5t6.5 60.5
q0 33 -12.5 62.5t-41 51.5t-75 35t-114.5 13t-113.5 -12.5t-74 -34t-40.5 -50.5t-12 -61q0 -31 6 -64.5t18 -64.5z" />
    <glyph glyph-name="aininitial" unicode="&#x639;" horiz-adv-x="1008" arabic-form="initial" 
d="M903 0h-945v189h193v347q0 92 34 171.5t92.5 138t137.5 91.5t169 33q99 2 216 -54l-76 -173q-41 18 -76.5 28t-63.5 9q-51 0 -95 -18.5t-77 -51.5t-52 -77.5t-19 -96.5v-347h562v-189z" />
    <glyph glyph-name="ainmedial" unicode="&#x639;" horiz-adv-x="1168" arabic-form="medial" 
d="M1210 0h-1252v189h380q-43 50 -81.5 110t-64.5 132q-17 47 -26.5 94.5t-9.5 95.5q0 71 22 134.5t72.5 111t132.5 75t203 27.5q122 0 205 -28t133.5 -76t72.5 -112t22 -136q0 -47 -9 -93t-24 -91q-24 -72 -63.5 -133t-81.5 -111h369v-189zM369 496q19 -51 46.5 -96
t58.5 -83t61.5 -67.5t54.5 -49.5q24 20 54.5 49t60.5 66.5t57 82.5t44 96q23 64 23 123q0 33 -12.5 62.5t-41 51.5t-75 35t-114.5 13t-114 -12.5t-74 -34t-40.5 -50.5t-12.5 -61q0 -31 6.5 -62.5t17.5 -62.5z" />
    <glyph glyph-name="ghainisolated" unicode="&#x63a;" horiz-adv-x="1207" arabic-form="isolated" 
d="M685 1248q0 20 7.5 37.5t20.5 31t30.5 21t37.5 7.5t37.5 -7.5t31 -21t21 -31t7.5 -37.5t-7.5 -37.5t-21 -30.5t-31 -20.5t-37.5 -7.5q-40 0 -68 28t-28 68zM1102 0h-727q-20 0 -35 -8t-25 -20.5t-15 -29t-5 -34.5q0 -17 5 -34t15 -30.5t25 -21.5t35 -8h545v-189h-545
q-68 0 -118.5 24.5t-84 64t-50.5 90.5t-17 104q0 49 14.5 96.5t44.5 86t76 64.5t109 33v345q0 92 34 171.5t92.5 138t137.5 91.5t168 33q98 2 217 -54l-78 -172q-41 18 -75.5 28t-63.5 9q-50 0 -94.5 -18.5t-77.5 -51.5t-52 -78t-19 -97v-344h564v-189z" />
    <glyph glyph-name="ghainfinal" unicode="&#x63a;" horiz-adv-x="1144" arabic-form="final" 
d="M463 1248q0 20 7.5 37.5t20.5 31t30.5 21t37.5 7.5t37.5 -7.5t31 -21t21 -31t7.5 -37.5t-7.5 -37.5t-21 -30.5t-31 -20.5t-37.5 -7.5q-40 0 -68 28t-28 68zM1186 0h-811q-20 0 -35 -8t-25.5 -20.5t-15.5 -29t-5 -34.5q0 -17 5 -34t15.5 -30.5t25.5 -21.5t35 -8h545v-189
h-545q-68 0 -118.5 24.5t-84 64t-50.5 90.5t-17 104q0 45 12.5 89t38.5 81t66 64.5t95 39.5q-43 50 -84.5 113.5t-67.5 136.5q-17 46 -26.5 94t-9.5 96q0 71 22 134.5t72.5 111t132.5 75t203 27.5t204 -28t133.5 -76t72.5 -112t22 -136q0 -46 -8.5 -92t-23.5 -91
q-24 -72 -63 -133.5t-81 -112.5h371v-189zM343 493q18 -50 46 -94.5t59 -82t62 -67t55 -50.5q23 18 52.5 46t59 65.5t56.5 83.5t46 100q10 31 16.5 63.5t6.5 60.5q0 33 -12.5 62.5t-41 51.5t-75 35t-114.5 13t-113.5 -12.5t-74 -34t-40.5 -50.5t-12 -61q0 -31 6 -64.5
t18 -64.5z" />
    <glyph glyph-name="ghaininitial" unicode="&#x63a;" horiz-adv-x="1008" arabic-form="initial" 
d="M488 1248q0 20 7.5 37.5t21 31t31 21t37.5 7.5t37.5 -7.5t31 -21t21 -31t7.5 -37.5t-7.5 -37.5t-21 -30.5t-31 -20.5t-37.5 -7.5t-37.5 7.5t-31 20.5t-21 30.5t-7.5 37.5zM903 0h-945v189h193v347q0 92 34 171.5t92.5 138t137.5 91.5t169 33q99 2 216 -54l-76 -173
q-41 18 -76.5 28t-63.5 9q-51 0 -95 -18.5t-77 -51.5t-52 -77.5t-19 -96.5v-347h562v-189z" />
    <glyph glyph-name="ghainmedial" unicode="&#x63a;" horiz-adv-x="1168" arabic-form="medial" 
d="M489 1248q0 20 7.5 37.5t21 31t31 21t37.5 7.5t37.5 -7.5t30.5 -21t20.5 -31t7.5 -37.5q0 -40 -28 -68t-68 -28q-20 0 -37.5 7.5t-31 20.5t-21 30.5t-7.5 37.5zM1210 0h-1252v189h380q-43 50 -81.5 110t-64.5 132q-17 47 -26.5 94.5t-9.5 95.5q0 71 22 134.5t72.5 111
t132.5 75t203 27.5q122 0 205 -28t133.5 -76t72.5 -112t22 -136q0 -47 -9 -93t-24 -91q-24 -72 -63.5 -133t-81.5 -111h369v-189zM369 496q19 -51 46.5 -96t58.5 -83t61.5 -67.5t54.5 -49.5q24 20 54.5 49t60.5 66.5t57 82.5t44 96q23 64 23 123q0 33 -12.5 62.5t-41 51.5
t-75 35t-114.5 13t-114 -12.5t-74 -34t-40.5 -50.5t-12.5 -61q0 -31 6.5 -62.5t17.5 -62.5z" />
    <glyph glyph-name="fehisolated" unicode="&#x641;" horiz-adv-x="1874" arabic-form="isolated" 
d="M295 443q0 -53 20 -99t54.5 -80.5t80.5 -54.5t99 -20h352v347q0 93 34 172t93 137.5t137.5 91.5t168.5 33t169 -33.5t138 -91.5t93 -136t34 -167v-229q0 -71 -24.5 -128.5t-67 -98.5t-99.5 -63.5t-122 -22.5h-906q-92 0 -173 35t-141 95t-95 140.5t-35 172.5v349h190
v-349zM1091 189h364q52 0 87.5 33.5t35.5 90.5v229q0 50 -19 93.5t-52.5 75.5t-78 50.5t-94.5 18.5q-51 0 -95 -18.5t-77 -51.5t-52 -77.5t-19 -96.5v-347zM1237 1248q0 20 7.5 37.5t21 31t31 21t37.5 7.5t37.5 -7.5t31 -21t21 -31t7.5 -37.5t-7.5 -37.5t-21 -30.5
t-31 -20.5t-37.5 -7.5t-37.5 7.5t-31 20.5t-21 30.5t-7.5 37.5z" />
    <glyph glyph-name="fehfinal" unicode="&#x641;" horiz-adv-x="1917" arabic-form="final" 
d="M548 0q-92 0 -172.5 35t-140.5 95t-95 140.5t-35 172.5v349h189v-349q0 -53 20 -99t54.5 -80.5t80.5 -54.5t99 -20h352v347q0 93 34 172t92.5 137.5t137.5 91.5t168 33q90 0 169 -33.5t138 -91.5t93 -136t34 -167v-353h193v-189h-1411zM1090 189h486v353q0 50 -19 93.5
t-52 75.5t-77.5 50.5t-95.5 18.5q-50 0 -94 -18.5t-77 -51.5t-52 -77.5t-19 -96.5v-347zM1235 1248q0 20 7.5 37.5t21 31t31 21t37.5 7.5t37.5 -7.5t31 -21t21 -31t7.5 -37.5t-7.5 -37.5t-21 -30.5t-31 -20.5t-37.5 -7.5t-37.5 7.5t-31 20.5t-21 30.5t-7.5 37.5z" />
    <glyph glyph-name="fehinitial" unicode="&#x641;" horiz-adv-x="1123" arabic-form="initial" 
d="M-42 189h194v347q0 93 34 172t92.5 137.5t137.5 91.5t168 33q90 0 169 -33.5t138 -91.5t93 -136t33 -167v-229q0 -71 -24.5 -128.5t-66.5 -98.5t-99 -63.5t-121 -22.5h-748v189zM341 189h365q25 0 47.5 9t39 25t26 39t9.5 51v229q1 50 -18 93.5t-52.5 75.5t-78 50.5
t-95.5 18.5q-50 0 -94.5 -18.5t-77.5 -51.5t-52 -77.5t-19 -96.5v-347zM487 1248q0 20 7.5 37.5t21 31t31 21t37.5 7.5t37.5 -7.5t30.5 -21t20.5 -31t7.5 -37.5q0 -40 -28 -68t-68 -28q-20 0 -37.5 7.5t-31 20.5t-21 30.5t-7.5 37.5z" />
    <glyph glyph-name="fehmedial" unicode="&#x641;" horiz-adv-x="1170" arabic-form="medial" 
d="M-42 0v189h194v347q0 93 34 172t92.5 137.5t137.5 91.5t168 33q90 0 169 -33.5t138 -91.5t93.5 -136t34.5 -167v-353h193v-189h-1254zM341 189h488v353q0 50 -19.5 93.5t-52.5 75.5t-77.5 50.5t-95.5 18.5q-50 0 -94.5 -18.5t-77.5 -51.5t-52 -77.5t-19 -96.5v-347z
M487 1248q0 20 7.5 37.5t21 31t31 21t37.5 7.5t37.5 -7.5t30.5 -21t20.5 -31t7.5 -37.5q0 -40 -28 -68t-68 -28q-20 0 -37.5 7.5t-31 20.5t-21 30.5t-7.5 37.5z" />
    <glyph glyph-name="qafisolated" unicode="&#x642;" horiz-adv-x="1428" arabic-form="isolated" 
d="M295 791v-718q0 -54 20 -101t55.5 -82t82.5 -55.5t101 -20.5h332q43 0 82 14t70.5 39t54 59t32.5 74h-370q-64 0 -120 24t-98 66t-66 98t-24 120v213q0 93 34 174.5t93.5 142t139 96t170.5 35.5q90 0 170 -35.5t139.5 -96.5t94 -141t34.5 -170v-464q0 -90 -34.5 -170
t-93.5 -139t-138.5 -93.5t-169.5 -34.5h-332q-93 0 -175 35.5t-142.5 96t-96 142t-35.5 174.5v718h190zM1133 189v337q0 51 -19.5 97t-53.5 80.5t-79.5 55t-96.5 20.5q-52 0 -97 -20t-78.5 -55t-52.5 -82t-19 -101v-213q0 -25 9.5 -46.5t25.5 -37.5t37.5 -25.5t45.5 -9.5
h378zM927 1248q0 20 7.5 37.5t21 31t31 21t37.5 7.5t37.5 -7.5t30.5 -21t20.5 -31t7.5 -37.5q0 -40 -28 -68t-68 -28q-20 0 -37.5 7.5t-31 20.5t-21 30.5t-7.5 37.5zM644 1248q0 20 7.5 37.5t21 31t31 21t37.5 7.5t37.5 -7.5t31 -21t21 -31t7.5 -37.5t-7.5 -37.5t-21 -30.5
t-31 -20.5t-37.5 -7.5t-37.5 7.5t-31 20.5t-21 30.5t-7.5 37.5z" />
    <glyph glyph-name="qaffinal" unicode="&#x642;" horiz-adv-x="1473" arabic-form="final" 
d="M295 791v-718q0 -54 20 -101t55 -82t81.5 -55.5t100.5 -20.5h333q43 0 82 14t71 39t54.5 59t32.5 74h-371q-64 0 -120 24t-98 66t-66.5 98t-24.5 120v213q0 93 34.5 174.5t94 142t139 96t170.5 35.5q90 0 170 -35.5t140 -96.5t94.5 -141t34.5 -170v-337h193v-189h-198
q-12 -80 -50 -148.5t-95.5 -118.5t-131 -79t-155.5 -29h-333q-93 0 -174 35.5t-142 96t-96 142t-35 174.5v718h190zM1132 189v337q0 51 -19.5 97t-53.5 80.5t-79.5 55t-96.5 20.5t-96.5 -20t-79 -55t-53 -82t-19.5 -101v-213q0 -25 9.5 -46.5t25.5 -37.5t37.5 -25.5
t46.5 -9.5h378zM925 1248q0 20 7.5 37.5t21 31t31 21t37.5 7.5t37.5 -7.5t30.5 -21t20.5 -31t7.5 -37.5q0 -40 -28 -68t-68 -28q-20 0 -37.5 7.5t-31 20.5t-21 30.5t-7.5 37.5zM642 1248q0 20 7.5 37.5t21 31t31 21t37.5 7.5t37.5 -7.5t31 -21t21 -31t7.5 -37.5t-7.5 -37.5
t-21 -30.5t-31 -20.5t-37.5 -7.5t-37.5 7.5t-31 20.5t-21 30.5t-7.5 37.5z" />
    <glyph glyph-name="qafinitial" unicode="&#x642;" horiz-adv-x="1123" arabic-form="initial" 
d="M-42 189h194v347q0 93 34 172t92.5 137.5t137.5 91.5t168 33q90 0 169 -33.5t138 -91.5t93 -136t33 -167v-229q0 -71 -24.5 -128.5t-66.5 -98.5t-99 -63.5t-121 -22.5h-748v189zM341 189h365q25 0 47.5 9t39 25t26 39t9.5 51v229q1 50 -18 93.5t-52.5 75.5t-78 50.5
t-95.5 18.5q-50 0 -94.5 -18.5t-77.5 -51.5t-52 -77.5t-19 -96.5v-347zM631 1248q0 20 7.5 37.5t21 31t31 21t37.5 7.5t37.5 -7.5t30.5 -21t20.5 -31t7.5 -37.5q0 -40 -28 -68t-68 -28q-20 0 -37.5 7.5t-31 20.5t-21 30.5t-7.5 37.5zM348 1248q0 20 7.5 37.5t21 31t31 21
t37.5 7.5t37.5 -7.5t31 -21t21 -31t7.5 -37.5t-7.5 -37.5t-21 -30.5t-31 -20.5t-37.5 -7.5t-37.5 7.5t-31 20.5t-21 30.5t-7.5 37.5z" />
    <glyph glyph-name="qafmedial" unicode="&#x642;" horiz-adv-x="1170" arabic-form="medial" 
d="M-42 0v189h194v347q0 93 34 172t92.5 137.5t137.5 91.5t168 33q90 0 169 -33.5t138 -91.5t93.5 -136t34.5 -167v-353h193v-189h-1254zM341 189h487v353q0 50 -19 93.5t-52 75.5t-77.5 50.5t-95.5 18.5q-50 0 -94.5 -18.5t-77.5 -51.5t-52 -77.5t-19 -96.5v-347zM629 1248
q0 20 7.5 37.5t21 31t31 21t37.5 7.5t37.5 -7.5t30.5 -21t20.5 -31t7.5 -37.5q0 -40 -28 -68t-68 -28q-20 0 -37.5 7.5t-31 20.5t-21 30.5t-7.5 37.5zM346 1248q0 20 7.5 37.5t21 31t31 21t37.5 7.5t37.5 -7.5t31 -21t21 -31t7.5 -37.5t-7.5 -37.5t-21 -30.5t-31 -20.5
t-37.5 -7.5t-37.5 7.5t-31 20.5t-21 30.5t-7.5 37.5z" />
    <glyph glyph-name="kafisolated" unicode="&#x643;" horiz-adv-x="1424" arabic-form="isolated" 
d="M1319 1345v-1034q0 -65 -24.5 -121.5t-66.5 -98.5t-98.5 -66.5t-120.5 -24.5h-464q-91 0 -171 34.5t-140 94t-94.5 139.5t-34.5 171v353h190v-353q0 -52 19.5 -97.5t53.5 -79.5t79.5 -53.5t97.5 -19.5h464q25 0 47 9.5t38.5 26t26 38.5t9.5 48v1034h189zM821 1180h-80h1
q-34 -1 -49.5 -20.5t-15.5 -42.5q0 -15 3 -29t8 -25.5t12.5 -18.5t15.5 -7h142v-94h-308v94h49q-16 40 -16 80q0 30 8.5 58t27 50t48.5 35.5t73 14.5h81v-95z" />
    <glyph glyph-name="arabickaffinal" unicode="&#x643;" horiz-adv-x="1470" arabic-form="final" 
d="M1319 1345v-1156h193v-189h-966q-92 0 -172 34.5t-140 94t-94.5 139.5t-34.5 171v353h190v-353q0 -52 19.5 -97.5t53.5 -79.5t80 -53.5t98 -19.5h583v1156h190zM821 1180h-80h1q-34 -1 -49.5 -20.5t-15.5 -42.5q0 -15 3 -29t8 -25.5t12.5 -18.5t15.5 -7h142v-94h-308v94
h49q-16 40 -16 80q0 30 8.5 58t27 50t48.5 35.5t73 14.5h81v-95z" />
    <glyph glyph-name="kafinitial" unicode="&#x643;" horiz-adv-x="1255" arabic-form="initial" 
d="M812 1226l-293 -260q23 2 45.5 3t45.5 1q67 0 133 -8.5t126 -29t111.5 -54t89 -83.5t59 -118.5t21.5 -157.5v-212q0 -64 -24.5 -120t-67 -97.5t-99.5 -65.5t-122 -24h-879v189h879q26 0 48.5 9.5t39 25.5t26 37.5t9.5 45.5v212q0 77 -30.5 127.5t-80 80t-112.5 41.5
t-127 12q-59 0 -118 -8t-111 -19.5t-92.5 -24.5t-62.5 -23l-86 157l536 497z" />
    <glyph glyph-name="kafmedial" unicode="&#x643;" horiz-adv-x="1307" arabic-form="medial" 
d="M819 1226l-293 -260q22 2 45 3t45 1q67 0 133 -8.5t126 -29t111.5 -54t89 -83.5t59 -118.5t21.5 -157.5v-330h193v-189h-1391v189h1008v330q0 77 -30.5 127.5t-80 80t-112.5 41.5t-127 12q-59 0 -118 -8t-111 -19.5t-92.5 -24.5t-62.5 -23l-86 157l537 497z" />
    <glyph glyph-name="lamisolated" unicode="&#x644;" horiz-adv-x="1205" arabic-form="isolated" 
d="M1100 1345v-1280q0 -111 -43 -193.5t-113 -138t-159.5 -83t-182.5 -27.5t-182.5 27.5t-159.5 83t-112.5 138t-42.5 193.5v727h190v-727q0 -63 26.5 -110.5t69.5 -79t98 -47.5t113 -16t113 16t98.5 47.5t70 79t26.5 110.5v1280h190z" />
    <glyph glyph-name="lamfinal" unicode="&#x644;" horiz-adv-x="1249" arabic-form="final" 
d="M1291 0h-197q-13 -94 -59.5 -164.5t-114 -118t-150.5 -71.5t-168 -24q-93 0 -182.5 27.5t-159.5 83t-112.5 138t-42.5 193.5v728h190v-728q0 -63 26.5 -110.5t69.5 -79t98 -47t113 -15.5q57 0 112 15.5t98 47t69.5 79t26.5 110.5v1281h190v-1156h193v-189z" />
    <glyph glyph-name="laminitial" unicode="&#x644;" horiz-adv-x="463" arabic-form="initial" 
d="M358 1345v-1035q0 -64 -24.5 -120.5t-66.5 -98.5t-99 -66.5t-121 -24.5h-89v189h89q25 0 47.5 9.5t39 26t26 38.5t9.5 47v1035h189z" />
    <glyph glyph-name="lammedial" unicode="&#x644;" horiz-adv-x="492" arabic-form="medial" 
d="M341 1345v-1156h193v-189h-576v189h193v1156h190z" />
    <glyph glyph-name="meemisolated" unicode="&#x645;" horiz-adv-x="1430" arabic-form="isolated" 
d="M892 969q90 0 168.5 -35t137.5 -95t93 -140.5t34 -171.5v-216q0 -92 -34 -173t-93 -141t-137.5 -95t-168.5 -35q-89 0 -168 36t-138 96.5t-93 140.5t-34 169v19q-46 -5 -77 -20.5t-50.5 -39t-28 -53t-8.5 -62.5v-528h-190v528q0 72 19.5 136.5t62 113.5t109.5 79.5
t163 35.5v9q0 88 34 168t93 141t138 97t168 36zM1136 527q0 52 -19 98t-52 80t-77.5 54t-95.5 20q-50 0 -94.5 -20.5t-78 -55t-52.5 -80t-19 -96.5v-218q0 -51 19 -97t52.5 -80.5t78 -54.5t94.5 -20q51 0 95.5 20t77.5 54.5t52 80.5t19 99v216z" />
    <glyph glyph-name="meemfinal" unicode="&#x645;" horiz-adv-x="1477" arabic-form="final" 
d="M1519 0h-317q-59 -63 -138 -98t-171 -35q-90 0 -169 36t-138 96.5t-93 140.5t-34 169v19q-46 -5 -77 -20.5t-50.5 -39t-28 -53t-8.5 -62.5v-528h-190v528q0 72 19.5 136.5t62 113.5t109.5 79.5t163 35.5v9q0 88 34 168t93 141t138 97t169 36q89 0 168 -35t137.5 -95
t92.5 -140.5t34 -171.5v-216q0 -65 -16 -122h210v-189zM1136 527q0 52 -19 98t-52 80t-77.5 54t-94.5 20q-51 0 -95.5 -20.5t-78 -55t-52.5 -80t-19 -96.5v-218q0 -51 19 -97t52.5 -80.5t78 -54.5t95.5 -20q50 0 94.5 20t77.5 54.5t52 80.5t19 99v216z" />
    <glyph glyph-name="meeminitial" unicode="&#x645;" horiz-adv-x="1124" arabic-form="initial" 
d="M-42 189h210q-8 29 -12 59.5t-4 62.5v216q0 91 34 171.5t93 140.5t137.5 95t168.5 35q89 0 168 -36t138 -97t93 -141t34 -168v-218q0 -89 -34 -169t-93 -140.5t-138 -96.5t-168 -36q-93 0 -171.5 35t-137.5 98h-318v189zM585 779q-51 0 -95.5 -20t-77.5 -54t-52 -80
t-19 -98v-216q0 -53 19 -99t52 -80.5t77.5 -54.5t95.5 -20q50 0 94.5 20t78 54.5t52.5 80.5t19 97v218q0 51 -19 96.5t-52.5 80t-78 55t-94.5 20.5z" />
    <glyph glyph-name="meemmedial" unicode="&#x645;" horiz-adv-x="1169" arabic-form="medial" 
d="M-42 189h210q-8 29 -12 59.5t-4 62.5v216q0 91 34 171.5t92.5 140.5t137.5 95t168 35t168 -36t138.5 -97t93.5 -141t34 -168v-218q1 -32 -4 -62t-13 -58h210v-189h-318q-60 -61 -139.5 -97t-169.5 -36q-91 0 -169.5 35t-138.5 98h-318v189zM584 779q-50 0 -94.5 -20
t-77.5 -54t-52 -80t-19 -98v-216q0 -53 19 -99t52 -80.5t77.5 -54.5t94.5 -20t94.5 20t78 54.5t52.5 80.5t19 97v218q0 51 -19 96.5t-52.5 80t-78 55t-94.5 20.5z" />
    <glyph glyph-name="noonisolated" unicode="&#x646;" horiz-adv-x="1205" arabic-form="isolated" 
d="M1100 969v-902q0 -111 -43 -194t-113 -138.5t-159.5 -83t-182.5 -27.5t-182.5 27.5t-159.5 83t-112.5 138.5t-42.5 194v725h190v-725q0 -63 26.5 -110.5t69.5 -79.5t98 -48t113 -16t113 16t98.5 48t70 79.5t26.5 110.5v902h190zM506 1248q0 20 7.5 37.5t20.5 31t30.5 21
t37.5 7.5t37.5 -7.5t31 -21t21 -31t7.5 -37.5t-7.5 -37.5t-21 -30.5t-31 -20.5t-37.5 -7.5q-40 0 -68 28t-28 68z" />
    <glyph glyph-name="noonfinal" unicode="&#x646;" horiz-adv-x="1251" arabic-form="final" 
d="M1100 969v-779h193v-190h-198q-13 -95 -59 -165.5t-113.5 -117t-150.5 -70t-169 -23.5q-94 0 -183.5 27.5t-159.5 83t-112.5 138.5t-42.5 194v725h190v-725q0 -63 26.5 -110.5t69.5 -79.5t98.5 -48t113.5 -16q57 0 112.5 16t98.5 48t69.5 79.5t26.5 110.5v902h190z
M506 1248q0 20 7.5 37.5t21 31t31 21t37.5 7.5t37.5 -7.5t30.5 -21t20.5 -31t7.5 -37.5q0 -40 -28 -68t-68 -28q-20 0 -37.5 7.5t-31 20.5t-21 30.5t-7.5 37.5z" />
    <glyph glyph-name="nooninitial" unicode="&#x646;" horiz-adv-x="576" arabic-form="initial" 
d="M278 1248q0 20 7.5 37.5t21 31t31 21t37.5 7.5t37.5 -7.5t30.5 -21t20.5 -31t7.5 -37.5q0 -40 -28 -68t-68 -28q-20 0 -37.5 7.5t-31 20.5t-21 30.5t-7.5 37.5zM471 969v-658q0 -65 -24.5 -121.5t-66.5 -98.5t-98.5 -66.5t-120.5 -24.5h-203v189h203q25 0 47 9.5t38.5 26
t26 38.5t9.5 48v658h189z" />
    <glyph glyph-name="noonmedial" unicode="&#x646;" horiz-adv-x="623" arabic-form="medial" 
d="M204 1248q0 20 7.5 37.5t21 31t31 21t37.5 7.5t37.5 -7.5t30.5 -21t20.5 -31t7.5 -37.5q0 -40 -28 -68t-68 -28q-20 0 -37.5 7.5t-31 20.5t-21 30.5t-7.5 37.5zM471 969v-780h194v-189h-707v189h324v780h189z" />
    <glyph glyph-name="hehisolated" unicode="&#x647;" horiz-adv-x="1078" arabic-form="isolated" 
d="M295 309q0 -54 35 -87t86 -33h244q52 0 87.5 34t35.5 90v217q0 51 -19 96t-52.5 79t-78 54t-95.5 20q-50 0 -94.5 -20t-77.5 -54t-52 -80.5t-19 -98.5v-217zM105 526q0 91 34 172t93 141t138 95t168 35q90 0 169 -35.5t138 -95.5t93 -139.5t34 -168.5v-217
q0 -71 -24.5 -128.5t-66.5 -98.5t-99 -63.5t-122 -22.5h-244q-66 0 -123 22t-98.5 62.5t-65.5 97.5t-24 127v217z" />
    <glyph glyph-name="hehfinal" unicode="&#x647;" horiz-adv-x="1131" arabic-form="final" 
d="M1173 189v-189h-383v527q1 51 -18.5 96.5t-53.5 80t-79.5 55t-96.5 20.5t-96.5 -20t-79 -55t-53 -82t-19.5 -101v-213q0 -25 9.5 -46.5t25.5 -37.5t37.5 -25.5t46.5 -9.5h207v-189h-207q-64 0 -120 24t-98 66t-66 98t-24 120v213q0 93 34.5 174.5t93.5 142t139 96
t170 35.5t170 -35.5t140 -96t94.5 -141t33.5 -169.5v-338h193z" />
    <glyph glyph-name="hehinitial" unicode="&#x647;" horiz-adv-x="1441" arabic-form="initial" 
d="M151 393q0 58 18 109.5t50.5 93t76 70t94.5 41.5q30 60 83 109t119 83t140.5 52.5t149.5 18.5q88 0 170 -25t145 -79.5t101 -140.5t38 -207v-211q0 -64 -24.5 -120t-67 -97.5t-99.5 -65.5t-121 -24h-1066v189h193v204zM771 189h253q25 0 47.5 9.5t39.5 25.5t26.5 37.5
t9.5 45.5v211q0 70 -22.5 120t-59 81.5t-84.5 46t-99 14.5q-39 0 -78.5 -7t-75.5 -19.5t-68 -31t-56 -42.5q37 -20 67.5 -49.5t53 -66.5t34.5 -79.5t12 -88.5v-207zM341 190h240v206q0 27 -9 51t-25.5 41.5t-38.5 27.5t-47 10t-47 -10t-38 -28t-25.5 -42.5t-9.5 -52.5v-203z
" />
    <glyph glyph-name="hehmedial" unicode="&#x647;" horiz-adv-x="1490" arabic-form="medial" 
d="M-42 0v189h193v203q0 58 18.5 109.5t50.5 93t75.5 70t94.5 41.5q30 60 82.5 109t118.5 83.5t141 53t150 18.5q88 0 170 -25t145 -79.5t101 -140.5t38 -207v-329h196v-189h-1574zM771 189h376v329q0 70 -22.5 120t-59 81.5t-84.5 46t-99 14.5q-39 0 -78.5 -7t-76 -19.5
t-68.5 -31.5t-57 -43q38 -20 69.5 -49t53.5 -65.5t34 -79.5t12 -89v-207zM341 189h240v207q1 27 -8.5 50.5t-26 41.5t-38.5 28t-47 10t-47 -10.5t-38 -28.5t-25.5 -42.5t-9.5 -52.5v-203z" />
    <glyph glyph-name="wawisolated" unicode="&#x648;" horiz-adv-x="1087" arabic-form="isolated" 
d="M246 -187h298q43 0 82.5 14t71 39t54 59t32.5 75h-371q-63 0 -119 24t-98 65.5t-66.5 97.5t-24.5 120v214q0 93 34.5 174.5t93.5 142t139 96t170 35.5q61 0 117 -16.5t104.5 -46t89 -70.5t69 -90t44 -105t15.5 -115v-465q0 -90 -34.5 -170t-93.5 -139t-139 -93.5
t-170 -34.5h-298v189zM791 189v337q0 51 -19.5 97t-53.5 80.5t-79.5 55t-96.5 20.5t-96 -20t-78.5 -55t-53 -82t-19.5 -101v-214q0 -24 9.5 -45.5t25.5 -37.5t37.5 -25.5t45.5 -9.5h378z" />
    <glyph glyph-name="wawfinal" unicode="&#x648;" horiz-adv-x="1131" arabic-form="final" 
d="M245 -187h298q43 0 82.5 14t71 39t54 59t32.5 75h-371q-63 0 -119 24t-98 65.5t-66 97.5t-24 120v214q0 93 34.5 174.5t93.5 142t138.5 96t169.5 35.5q60 0 116.5 -16.5t105 -46t89 -70.5t69 -90t44 -105t15.5 -115v-337h193v-189h-197q-11 -80 -49 -148.5t-95.5 -119
t-131.5 -79.5t-157 -29h-298v189zM790 189v337q0 51 -19.5 97t-53 80.5t-79 55t-97.5 20.5q-51 0 -96 -20t-78.5 -55t-53 -82t-19.5 -101v-214q0 -24 9.5 -45.5t25.5 -37.5t37.5 -25.5t45.5 -9.5h378z" />
    <glyph glyph-name="alefmaksuraisolated" unicode="&#x649;" horiz-adv-x="1205" arabic-form="isolated" 
d="M1043 779h-246q-25 0 -47.5 -9.5t-39 -26t-26 -39t-9.5 -48.5v-246h118q76 0 133.5 -24.5t96 -69t58 -107t19.5 -138.5q0 -111 -43 -195t-113 -140t-159.5 -84t-182.5 -28t-182.5 28t-159 83.5t-112.5 139t-43 194.5v723h190v-723q0 -64 26.5 -112t69.5 -80t98 -48
t113 -16t113 16.5t98.5 49t70 80.5t26.5 112q0 66 -29 108t-88 42h-308v435q0 65 24.5 122t67 99.5t99 67t121.5 24.5h246v-190z" />
    <glyph glyph-name="alefmaksurafinal" unicode="&#x649;" horiz-adv-x="1144" arabic-form="final" 
d="M1186 0h-92q-13 -95 -59.5 -165.5t-114 -117.5t-150.5 -70.5t-169 -23.5q-93 0 -182 28t-159 83.5t-112.5 139t-42.5 194.5v724h189v-724q0 -64 26.5 -112t69.5 -80t98.5 -48t112.5 -16q49 0 97 12t88.5 35.5t70 58.5t43.5 82h-337v189h623v-189z" />
    <glyph glyph-name="yehisolated" unicode="&#x64a;" horiz-adv-x="1205" arabic-form="isolated" 
d="M1043 779h-246q-26 0 -48 -9.5t-39 -26t-26.5 -39t-9.5 -48.5v-246h119q76 0 133.5 -24.5t96 -69t58 -107t19.5 -138.5q0 -111 -43 -195t-113 -140t-159.5 -84t-183.5 -28q-93 0 -182 28t-159 83.5t-112.5 139t-42.5 194.5v723h190v-723q0 -64 26.5 -112t69.5 -80t98 -48
t112 -16q58 0 113.5 16.5t99 49t70 80.5t26.5 112q0 66 -29.5 108t-87.5 42h-308v435q0 65 24.5 122t67 99.5t99 67t121.5 24.5h246v-190zM643 -657q0 20 7.5 37.5t21 31t31 21t37.5 7.5t37.5 -7.5t30.5 -21t20.5 -31t7.5 -37.5q0 -40 -28 -68t-68 -28q-20 0 -37.5 7.5
t-31 20.5t-21 30.5t-7.5 37.5zM360 -657q0 20 7.5 37.5t21 31t31 21t37.5 7.5t37.5 -7.5t31 -21t21 -31t7.5 -37.5t-7.5 -37.5t-21 -30.5t-31 -20.5t-37.5 -7.5t-37.5 7.5t-31 20.5t-21 30.5t-7.5 37.5z" />
    <glyph glyph-name="yehfinal" unicode="&#x64a;" horiz-adv-x="1144" arabic-form="final" 
d="M1186 0h-92q-13 -95 -59.5 -165.5t-114 -117.5t-150.5 -70.5t-169 -23.5q-93 0 -182 28t-159 83.5t-112.5 139t-42.5 194.5v724h189v-724q0 -64 26.5 -112t69.5 -80t98.5 -48t112.5 -16q49 0 97 12t88.5 35.5t70 58.5t43.5 82h-337v189h623v-189zM644 -657q0 20 7.5 37.5
t21 31t31 21t37.5 7.5t37.5 -7.5t30.5 -21t20.5 -31t7.5 -37.5q0 -40 -28 -68t-68 -28q-20 0 -37.5 7.5t-31 20.5t-21 30.5t-7.5 37.5zM361 -657q0 20 7.5 37.5t21 31t31 21t37.5 7.5t37.5 -7.5t31 -21t21 -31t7.5 -37.5t-7.5 -37.5t-21 -30.5t-31 -20.5t-37.5 -7.5
t-37.5 7.5t-31 20.5t-21 30.5t-7.5 37.5z" />
    <glyph glyph-name="yehinitial" unicode="&#x64a;" horiz-adv-x="577" arabic-form="initial" 
d="M472 969v-658q0 -65 -24.5 -121.5t-66.5 -98.5t-98.5 -66.5t-120.5 -24.5h-203v189h203q25 0 47 9.5t38.5 26t26 38.5t9.5 48v658h189zM279 -281q0 20 7.5 37.5t21 31t31 21t37.5 7.5t37.5 -7.5t30.5 -21t20.5 -31t7.5 -37.5q0 -40 -28 -68t-68 -28q-20 0 -37.5 7.5
t-31 20.5t-21 30.5t-7.5 37.5zM-4 -281q0 20 7.5 37.5t21 31t31 21t37.5 7.5t37.5 -7.5t31 -21t21 -31t7.5 -37.5t-7.5 -37.5t-21 -30.5t-31 -20.5t-37.5 -7.5t-37.5 7.5t-31 20.5t-21 30.5t-7.5 37.5z" />
    <glyph glyph-name="yehmedial" unicode="&#x64a;" horiz-adv-x="623" arabic-form="medial" 
d="M471 969v-780h194v-189h-707v189h324v780h189zM276 -281q0 20 7.5 37.5t21 31t31 21t37.5 7.5t37.5 -7.5t30.5 -21t20.5 -31t7.5 -37.5q0 -40 -28 -68t-68 -28q-20 0 -37.5 7.5t-31 20.5t-21 30.5t-7.5 37.5zM-7 -281q0 20 7.5 37.5t21 31t31 21t37.5 7.5t37.5 -7.5
t31 -21t21 -31t7.5 -37.5t-7.5 -37.5t-21 -30.5t-31 -20.5t-37.5 -7.5t-37.5 7.5t-31 20.5t-21 30.5t-7.5 37.5z" />
    <glyph glyph-name=".notdef" horiz-adv-x="0" 
 />
    <glyph glyph-name=".null" horiz-adv-x="0" 
 />
    <glyph glyph-name="nonmarkingreturn" horiz-adv-x="500" 
 />
    <glyph glyph-name="endash" horiz-adv-x="1024" 
d="M1036 618h-1048v61h1048v-61z" />
    <glyph glyph-name="guilsinglright" horiz-adv-x="512" 
d="M457 586l-393 -457v75l231 382l-222 381v77z" />
    <glyph glyph-name="ordmasculine" horiz-adv-x="661" 
d="M638 1149q0 -139 -96 -244q-98 -109 -236 -109q-126 0 -200 79t-74 206q0 139 94 245q98 111 235 111q130 0 203.5 -78.5t73.5 -209.5zM548 1079q0 110 -64 203q-71 104 -177 104q-90 0 -141 -68q-45 -61 -45 -155q0 -111 67 -206q74 -104 181 -104q86 0 136 72
q43 64 43 154z" />
    <glyph glyph-name="paragraph" horiz-adv-x="896" 
d="M899 1372q-95 -5 -118 -41q-17 -27 -17 -134v-1525h-58v1682h-187v-1682h-59v1011q-467 -10 -467 348q0 120 68 218q72 104 185 133q100 26 273 26h380v-36z" />
    <glyph glyph-name="multiply" horiz-adv-x="1319" 
d="M1227 881l-427 -448l415 -431h-276l-275 290l-275 -290h-278l415 431l-424 448h275l287 -301l288 301h275z" />
    <glyph glyph-name="space" unicode=" " horiz-adv-x="325" 
 />
    <glyph glyph-name="exclam" unicode="!" horiz-adv-x="419" 
d="M314 105q0 -22 -8.5 -41t-22.5 -33t-33 -22t-41 -8q-21 0 -40 8t-33.5 22t-22.5 33t-8 41t8 41t22.5 32.5t33.5 21.5t40 8q44 0 74.5 -29t30.5 -74zM299 1345v-1047h-189v1047h189z" />
    <glyph glyph-name="quotedbl" unicode="&#x22;" horiz-adv-x="709" 
d="M575 843h-81l-28 566h138zM214 843h-81l-28 566h138z" />
    <glyph glyph-name="numbersign" unicode="#" horiz-adv-x="1238" 
d="M811 475l-56 -400h-111l56 400h-235l-56 -400h-111l56 400h-249l15 108h250l31 223h-249l15 109h249l52 367h111l-52 -367h235l52 367h111l-52 -367h260l-16 -109h-259l-31 -223h259l-15 -108h-260zM747 806h-235l-32 -223h236z" />
    <glyph glyph-name="dollar" unicode="$" horiz-adv-x="1161" 
d="M106 430h163q3 -140 60 -213q49 -65 133 -85q26 -6 72 -10v533q-147 25 -249 89q-154 98 -154 288q0 139 85 240q107 126 318 137v172h106v-172q183 -15 278 -108q102 -100 100 -264h-162q-11 118 -59 170q-55 60 -157 66v-482q85 -22 123 -34q293 -88 293 -374
q0 -220 -179 -334q-86 -55 -237 -64v-212h-106v212q-105 8 -177 34q-163 57 -224 234q-28 81 -27 177zM640 122q101 0 173 62q81 70 81 184q0 144 -105 210q-57 37 -149 54v-510zM534 1274q-92 -3 -146 -40q-95 -65 -95 -188q0 -117 93 -180q48 -32 148 -50v458z" />
    <glyph glyph-name="percent" unicode="%" horiz-adv-x="1797" 
d="M1361 1446l-790 -1514h-134l793 1514h131zM1386 764q102 0 178 -53q128 -88 128 -324q0 -415 -321 -415q-163 0 -244 108q-72 97 -72 274q0 195 76 296q87 114 255 114zM1377 651q-96 0 -139 -87q-32 -66 -32 -200q0 -281 168 -281t168 285q0 283 -165 283zM434 1406
q153 0 236 -105q72 -93 72 -273q0 -203 -85 -312q-80 -102 -234 -102q-318 0 -318 399q0 197 93 299q84 94 236 94zM426 1292q-172 0 -172 -288q0 -277 169 -277q69 0 105 40q67 74 67 255q0 270 -169 270z" />
    <glyph glyph-name="ampersand" unicode="&#x26;" horiz-adv-x="1418" 
d="M1136 668q-4 -81 -32 -188q-28 -104 -65 -162l274 -318h-219l-149 177q-26 -44 -94 -101q-125 -106 -316 -106q-204 0 -327 126q-103 106 -103 272q0 189 159 315q95 75 170 109q-61 73 -99 140q-54 94 -54 187q0 117 73 196q94 102 256 102q139 0 227 -77
q95 -84 95 -216q0 -222 -259 -366l256 -311q42 115 46 221h161zM583 867q77 47 118 89q68 73 68 154q0 70 -46 121q-44 48 -116 48q-69 0 -114 -42q-50 -46 -50 -112q0 -69 62 -156q20 -28 78 -102zM526 684q-80 -46 -120 -78q-127 -101 -127 -232q0 -100 76 -179
q77 -81 194 -81q134 0 237 100q25 25 64 79z" />
    <glyph glyph-name="quotesingle" unicode="'" horiz-adv-x="348" 
d="M214 843h-81l-28 566h138z" />
    <glyph glyph-name="parenleft" unicode="(" horiz-adv-x="646" 
d="M541 1409q-112 -174 -179 -383q-82 -255 -82 -525q0 -260 81 -513q64 -201 180 -385h-128l-9 15q-120 192 -161 280q-138 297 -138 599q0 293 112 562q82 199 196 350h128z" />
    <glyph glyph-name="parenright" unicode=")" horiz-adv-x="647" 
d="M105 -397q114 175 180 383q82 259 82 527q0 478 -262 896h129l9 -15q122 -195 161 -280q138 -297 138 -598q0 -293 -112 -563q-84 -202 -196 -350h-129z" />
    <glyph glyph-name="asterisk" unicode="*" horiz-adv-x="2943" 
d="M470 1120q82 0 149.5 -30.5t115.5 -81.5t74 -116.5t26 -134.5q0 -70 -27 -137t-75 -119t-115 -83.5t-148 -31.5q-80 0 -147 30t-115.5 80t-75.5 114t-27 133v587q0 11 8 18.5t19 7.5t18.5 -7.5t7.5 -18.5v-383q30 48 75 86q19 16 43 31.5t53.5 28t64.5 20t76 7.5z
M470 443q64 0 120.5 24.5t98.5 67t66.5 100t24.5 122.5q0 64 -24.5 120.5t-66.5 99t-98.5 67t-120.5 24.5q-65 0 -121.5 -24.5t-98.5 -67t-66.5 -99t-24.5 -120.5q0 -65 24.5 -122.5t66.5 -100t98.5 -67t121.5 -24.5zM1547 562q-24 -39 -56.5 -71t-72.5 -55.5t-86 -36
t-96 -12.5q-76 0 -143 29t-116.5 79t-78 117t-28.5 142q0 76 28.5 143t78 116.5t116.5 78.5t143 29t143 -29t117 -78.5t78.5 -116.5t28.5 -143q0 -8 -6 -16.5t-22 -8.5h-391q-11 0 -19.5 7.5t-8.5 20.5q0 11 8.5 19t19.5 8h362q-6 59 -32 110.5t-67.5 90t-95.5 60.5t-115 22
q-65 0 -121.5 -24.5t-98.5 -67t-66 -99.5t-24 -122q0 -64 24 -120.5t66 -99t98.5 -67t121.5 -24.5q42 0 81 11t73.5 30.5t63 47t48.5 60.5q6 11 17.5 13t21.5 -5q8 -6 11 -17t-5 -21zM1703 385q-26 1 -44 18t-20 37v630q2 20 20 37t44 17t44 -17t19 -37v-630q-1 -20 -19 -37
t-44 -18zM1891 385q-27 1 -45 17t-20 34v474q3 40 18 77q13 32 40.5 65t78.5 54q52 19 97 16t81 -19t61.5 -40t37.5 -46l289 -455q14 -22 33 -35q17 -11 41.5 -15t56.5 13q15 7 24.5 17.5t15.5 22t8.5 21.5t2.5 17v466q2 20 19.5 37t42.5 17q27 0 45 -17t19 -37v-466
q0 -41 -13 -78q-12 -32 -39 -65.5t-81 -55.5q-52 -21 -98 -17.5t-82 19t-61 37.5t-35 37q-5 8 -20 31.5t-36 57.5t-46.5 74t-51.5 81q-61 96 -135 212q-9 18 -22 31q-11 11 -28 20.5t-39 7.5q-38 -4 -58.5 -19.5t-28.5 -32.5q-11 -20 -10 -46v-454q0 -22 -18 -39.5
t-44 -18.5zM1609 350q25 0 47.5 -9.5t38.5 -25.5t25.5 -38t9.5 -46q0 -25 -9.5 -47t-25.5 -38.5t-38.5 -26t-47.5 -9.5h-81v-94q0 -19 -19 -19q-8 0 -13 5.5t-5 13.5l-1 215q0 52 32.5 85.5t86.5 33.5zM1609 147q17 0 32.5 6.5t27 18t18 26.5t6.5 33q0 34 -24.5 59t-59.5 25
q-38 0 -59.5 -24.5t-21.5 -59.5v-84h81zM1914 352q37 0 69.5 -14t56.5 -38t38 -56.5t14 -69.5q0 -36 -14 -68.5t-38 -57t-56.5 -38.5t-69.5 -14q-36 0 -68.5 14t-56.5 38.5t-38 57t-14 68.5q0 37 14 69.5t38 56.5t56.5 38t68.5 14zM1914 36q29 0 54 11t44 29.5t29.5 43.5
t10.5 54q0 28 -10.5 53t-29.5 44t-44 29.5t-54 10.5q-28 0 -53 -10.5t-43.5 -29.5t-29.5 -44t-11 -53q0 -29 11 -54t29.5 -43.5t43.5 -29.5t53 -11zM2568 350q8 0 13.5 -5.5t5.5 -13.5t-5.5 -14t-13.5 -6h-82v-294q0 -8 -5.5 -14t-13.5 -6q-9 0 -14.5 6t-5.5 14v294h-83
q-9 0 -15 6t-6 14t6 13.5t15 5.5h204zM1338 199q62 0 91.5 -27.5t29.5 -65.5q0 -19 -6.5 -37.5t-20.5 -33.5t-37.5 -24t-56.5 -9q-26 0 -47.5 8.5t-37 23.5t-23.5 34.5t-8 42.5q0 18 19 18q7 0 12.5 -5t5.5 -13q0 -6 2 -18t10 -24t24 -21t44 -9q33 0 50.5 10t24.5 23
t7.5 23.5t0.5 11.5l-0.5 9t-8 19t-25 18.5t-50.5 8.5t-55 8t-35.5 20.5t-19.5 27t-6 28.5q0 13 4.5 31t17.5 34t35.5 27.5t58.5 11.5q32 -1 58 -13q22 -11 40.5 -33.5t18.5 -65.5q0 -7 -5.5 -12t-13.5 -5q-7 0 -12 5t-5 12q0 21 -9 38q-8 14 -24 26.5t-48 12.5t-48.5 -11
t-23.5 -24q-8 -16 -8 -35q1 -13 10 -23q8 -9 24 -16t46 -7zM2353 231q0 -39 -22.5 -70t-59.5 -44l56 -92q4 -6 2.5 -13.5t-8.5 -10.5q-8 -5 -15.5 -3.5t-11.5 9.5l-64 103h-82v-95q0 -8 -5 -13.5t-13 -5.5q-19 0 -19 19v216q0 52 32.5 86.5t88.5 34.5q25 0 47 -9.5t38.5 -26
t26 -38.5t9.5 -47zM2232 147q35 0 59.5 24.5t24.5 59.5q0 18 -6.5 33t-18 26.5t-27 18t-32.5 6.5q-38 0 -61 -23.5t-23 -60.5v-84h84zM2714 196q63 0 93 -27t30 -65q0 -19 -7 -38t-21.5 -34.5t-38 -25t-56.5 -9.5q-26 0 -48 9t-37.5 24t-23.5 35t-6 43q0 19 16 19
q8 0 13 -5.5t5 -13.5q0 -6 2.5 -18.5t11 -25t25 -21.5t44.5 -9q34 0 51 10.5t24.5 23.5t8 24t0.5 12t-0.5 9.5t-8 18.5t-25 18.5t-50.5 8.5q-34 0 -56.5 8t-36 21t-19 28t-5.5 29q0 13 4.5 31t17 34.5t35 28t58.5 11.5q33 -1 59 -13q22 -11 40.5 -33.5t18.5 -66.5
q0 -7 -5 -13t-13 -6q-9 0 -14 6t-5 13q0 21 -8 38q-7 14 -23 26t-48 12q-33 0 -49.5 -11t-24.5 -24q-9 -15 -9 -34q1 -13 10 -24q8 -9 24 -16.5t47 -7.5z" />
    <glyph glyph-name="plus" unicode="+" horiz-adv-x="1126" 
d="M105 758h392v390h134v-390h390v-134h-390v-391h-134v391h-392v134z" />
    <glyph glyph-name="comma" unicode="," horiz-adv-x="456" 
d="M115 -90q88 5 131 60q20 25 20 54q0 20 -21 20q-23 -2 -38 -3q-102 0 -102 90q0 46 31 70q31 23 66 23q70 0 109.5 -44t39.5 -114q0 -98 -64.5 -157t-161.5 -58z" />
    <glyph glyph-name="hyphenminus" unicode="-" horiz-adv-x="689" 
d="M584 610v-169h-479v169h479z" />
    <glyph glyph-name="period" unicode="." horiz-adv-x="403" 
d="M105 97q0 40 28 68t68 28q20 0 37.5 -7.5t31 -20.5t21 -30.5t7.5 -37.5t-7.5 -37.5t-21 -31t-31 -21t-37.5 -7.5t-37.5 7.5t-30.5 21t-20.5 31t-7.5 37.5z" />
    <glyph glyph-name="slash" unicode="/" horiz-adv-x="911" 
d="M806 1409l-559 -1412h-142l564 1412h137z" />
    <glyph glyph-name="zero" unicode="0" horiz-adv-x="1079" 
d="M539 0q-88 0 -167 32.5t-142 94.5q-60 62 -92.5 140.5t-32.5 166.5v472q0 88 32.5 167.5t92.5 140.5q63 62 142 94.5t167 32.5q87 0 166 -33t140 -95q63 -63 96 -141t33 -166v-472q0 -87 -33 -165.5t-96 -140.5q-62 -63 -140.5 -95.5t-165.5 -32.5zM539 1155
q-51 0 -96.5 -19t-80.5 -54t-54 -80t-19 -96v-472q0 -52 19.5 -97.5t53.5 -79.5t79.5 -53.5t97.5 -19.5q51 0 96.5 19.5t79.5 53.5t53.5 79.5t19.5 97.5v472q0 51 -18.5 96t-53.5 80t-80.5 54t-96.5 19z" />
    <glyph glyph-name="one" unicode="1" horiz-adv-x="705" 
d="M400 1v1130h-295l82 212h255q79 0 120 -60q18 -26 28 -63t10 -79v-1140h-200z" />
    <glyph glyph-name="two" unicode="2" horiz-adv-x="1123" 
d="M287 0q-80 0 -129 35q-53 38 -53 111q0 27 7.5 47t21 36.5t32 31.5t39.5 31q9 9 20 17l462 360q29 25 54 53t43 57q42 72 42 143q0 52 -18.5 97t-55.5 79q-35 33 -80.5 51t-96.5 18q-59 0 -107 -19t-82 -54.5t-52 -85.5t-18 -111q0 -77 49 -139q17 -20 38 -37.5t46 -30.5
l-158 -113q-84 58 -126.5 144.5t-42.5 198.5q0 48 9.5 91t29.5 84q36 76 102 133q66 56 150.5 85.5t178.5 29.5q86 0 164 -31t138 -89q60 -60 92 -136.5t32 -162.5q0 -78 -20.5 -143t-65.5 -124q-41 -54 -95 -101.5t-121 -100.5l-352 -277h648v-178h-725z" />
    <glyph glyph-name="three" unicode="3" horiz-adv-x="1082" 
d="M538 0q-82 0 -157 29t-136 84q-57 51 -92.5 117.5t-47.5 141.5h187q12 -41 36 -75.5t56 -59.5t71.5 -39t82.5 -14q53 0 99.5 20t81 54.5t54.5 81.5t20 100q0 67 -20.5 109t-52.5 68.5t-71 41t-75 25.5q-32 10 -56 18.5t-41 20t-25.5 27.5t-8.5 40q0 12 11.5 38t47.5 77
q26 38 57 75.5t59 69.5q18 21 33.5 39t25.5 32l25 35h-465l-45 186h597q38 0 70.5 -9t55.5 -25q54 -36 54 -107q0 -28 -18 -63.5t-44.5 -73t-57.5 -74t-58 -67.5q-16 -18 -29.5 -33.5t-24.5 -29.5l-17 -19l24 -13q53 -29 96 -69.5t74 -92.5q31 -51 47 -108.5t16 -117.5
q0 -88 -33.5 -168t-96.5 -143t-142 -96t-167 -33z" />
    <glyph glyph-name="four" unicode="4" horiz-adv-x="1245" 
d="M731 0v221h-477q-27 0 -54 10t-48 28t-34 43.5t-13 57.5q0 16 5 34.5t13 32.5l564 915h257l-576 -931h363v153h217v-153h192v-190h-192v-221h-217z" />
    <glyph glyph-name="five" unicode="5" horiz-adv-x="1032" 
d="M513 1q-75 0 -144 25.5t-126 75.5q-51 45 -86 103t-50 125h179q13 -35 36 -63t53 -48.5t65 -31.5t73 -11q51 0 95.5 19.5t77.5 53t52 79t19 96.5q0 50 -18.5 95t-52.5 80q-35 35 -80 54t-93 19q-23 0 -46.5 -1t-46.5 -2q-22 -1 -44.5 -2t-44.5 -1q-74 0 -109.5 11.5
t-51.5 22.5q-65 44 -65 164v321q0 77 54 117q49 37 134 37h570l-52 -185h-510v-307h212q83 0 158.5 -32.5t134.5 -92.5t90 -136.5t31 -161.5t-31 -161.5t-89 -136.5q-60 -61 -135 -93t-159 -32z" />
    <glyph glyph-name="six" unicode="6" horiz-adv-x="1200" 
d="M602 0q-96 0 -186 33.5t-160 95.5q-74 65 -112.5 149t-38.5 179q0 56 14.5 109.5t42.5 103.5l395 674h250l-256 -428h37q99 0 190.5 -33t162.5 -93q74 -65 112 -145q42 -87 42 -188q0 -94 -38.5 -178.5t-111.5 -149.5q-70 -62 -159.5 -95.5t-183.5 -33.5zM606 731
q-55 0 -107.5 -20t-92.5 -58q-43 -39 -65.5 -89t-22.5 -107q0 -56 22.5 -106t65.5 -89q40 -37 92.5 -57t107.5 -20q56 0 107.5 20t92.5 57q42 39 65 89t23 106q0 57 -23 107t-65 89q-41 38 -92.5 58t-107.5 20z" />
    <glyph glyph-name="seven" unicode="7" horiz-adv-x="1038" 
d="M307 0l406 1129h-559l-49 211h660q35 0 65.5 -13t53.5 -35.5t36 -52.5t13 -64q0 -21 -26.5 -113.5t-76.5 -245t-121.5 -359.5t-160.5 -457h-241z" />
    <glyph glyph-name="eight" unicode="8" horiz-adv-x="1068" 
d="M534 0q-84 0 -162 29.5t-138 83.5q-63 57 -96 130.5t-33 156.5q0 94 43.5 176.5t121.5 139.5l20 15l-18 17q-52 51 -79 114t-27 132q0 72 28.5 135t82.5 112q52 47 118.5 72t138.5 25q71 0 138 -25t119 -72q54 -49 82.5 -112t28.5 -135q0 -69 -27 -132t-79 -114l-18 -17
l21 -15q78 -57 121 -139.5t43 -176.5q0 -83 -33.5 -156.5t-97.5 -130.5q-60 -54 -137.5 -83.5t-160.5 -29.5zM534 638q-49 0 -92 -18.5t-75 -50t-50.5 -73.5t-18.5 -90q0 -47 18 -88.5t53 -74.5q33 -32 76 -49t89 -17q48 0 91 18t75.5 49t51 73t18.5 89q0 97 -71 165
q-34 32 -76 49.5t-89 17.5zM534 1163q-37 0 -69.5 -13.5t-57.5 -38.5q-54 -54 -54 -128q0 -38 14.5 -70.5t39 -57.5t57.5 -39t70 -14t70 14t57.5 39t39 57.5t14.5 70.5q0 37 -14.5 70t-39 57.5t-57.5 38.5t-70 14z" />
    <glyph glyph-name="nine" unicode="9" horiz-adv-x="1124" 
d="M373 0l238 430h-35q-97 0 -182.5 33t-151.5 96q-66 64 -101.5 148t-35.5 180q0 94 36 177t98 145.5t145.5 98.5t178.5 36q92 0 174.5 -35t147.5 -99q66 -66 100 -149t34 -174q0 -60 -13 -113.5t-37 -99.5l-368 -674h-228zM558 1159q-56 0 -104.5 -21.5t-85.5 -58.5
t-58 -86.5t-21 -105.5t20 -106t58 -88q38 -40 86.5 -60.5t104.5 -20.5q54 0 103 21t88 62q37 38 57 88t20 104t-19.5 103t-57.5 87q-39 40 -88 61t-103 21z" />
    <glyph glyph-name="colon" unicode=":" horiz-adv-x="403" 
d="M105 98q0 40 28 68t68 28q20 0 37.5 -7.5t31 -20.5t21 -30.5t7.5 -37.5t-7.5 -37.5t-21 -31t-31 -21t-37.5 -7.5t-37.5 7.5t-30.5 21t-20.5 31t-7.5 37.5zM105 751q0 40 28 68t68 28q20 0 37.5 -7.5t31 -20.5t21 -30.5t7.5 -37.5t-7.5 -37.5t-21 -31t-31 -21t-37.5 -7.5
t-37.5 7.5t-30.5 21t-20.5 31t-7.5 37.5z" />
    <glyph glyph-name="semicolon" unicode=";" horiz-adv-x="456" 
d="M115 -91q88 5 131 60q20 25 20 54q0 20 -21 20q-23 -2 -38 -3q-102 0 -102 90q0 46 31 70q31 23 66 23q70 0 109.5 -44t39.5 -114q0 -98 -64.5 -157t-161.5 -58zM151 761q0 40 28 68t68 28q20 0 37.5 -7.5t31 -20.5t21 -30.5t7.5 -37.5t-7.5 -37.5t-21 -31t-31 -21
t-37.5 -7.5t-37.5 7.5t-30.5 21t-20.5 31t-7.5 37.5z" />
    <glyph glyph-name="less" unicode="&#x3c;" horiz-adv-x="1126" 
d="M1021 1226v-183l-721 -335l720 -335v-181l-915 438v158z" />
    <glyph glyph-name="equal" unicode="=" horiz-adv-x="1126" 
d="M105 599h916v-134h-916v134zM105 916h916v-134h-916v134z" />
    <glyph glyph-name="greater" unicode="&#x3e;" horiz-adv-x="1125" 
d="M105 192v183l719 334l-719 335v182l915 -439v-157z" />
    <glyph glyph-name="question" unicode="?" horiz-adv-x="1089" 
d="M105 826q2 106 20 186.5t50 132.5q34 53 82 95t110 68q85 36 190 36q200 0 319 -116q108 -107 108 -268q0 -143 -82 -249v1q-18 -24 -56 -63t-96 -95q-30 -29 -49.5 -50.5t-27.5 -35.5v1q-7 -13 -12.5 -24.5t-9.5 -29.5t-6.5 -45t-2.5 -72h-188q0 48 2 78.5t5.5 52t9 37
t12.5 33.5v-1q12 32 36 67t56 70l104 104v-1q108 106 108 214q0 87 -54 146q-63 66 -178 66q-152 0 -218 -117q-19 -32 -29.5 -87.5t-15.5 -133.5h-187zM444 105q0 45 30 74t74 29t74 -29t30 -74q0 -44 -30 -74t-74 -30t-74 30t-30 74z" />
    <glyph glyph-name="at" unicode="@" horiz-adv-x="1798" 
d="M1550 214l53 -118q-236 -139 -666 -139q-325 0 -509 104q-323 182 -323 597q0 269 132 460q120 173 336 261q179 73 394 73q357 0 557 -195q169 -165 169 -408q0 -213 -120 -362q-86 -106 -240 -157q-92 -30 -174 -30q-130 0 -167 110q-108 -110 -228 -110
q-117 0 -189 89q-61 75 -61 198q0 169 107 318q138 191 328 191q133 0 192 -102l28 69h143l-177 -509q-19 -54 -19 -85q0 -55 74 -55q70 0 144 36q107 52 160 164q47 99 47 220q0 194 -119 318q-158 164 -452 164q-315 0 -510 -168q-203 -175 -203 -494q0 -252 144 -394
q105 -103 245 -136q128 -31 281 -31q278 0 461 55q73 23 162 66zM1010 625l49 136q26 71 26 107q0 49 -35 83q-35 33 -84 33q-98 0 -190 -120q-54 -70 -85 -167q-24 -78 -24 -143q0 -63 28 -99q32 -41 89 -41q150 0 226 211z" />
    <glyph glyph-name="A" unicode="A" horiz-adv-x="1342" 
d="M776 1415l551 -1415h-207l-157 433h-592l-161 -433h-196l553 1415h209zM908 584l-139 374q-71 192 -100 285q-34 -97 -102 -277l-142 -382h483z" />
    <glyph glyph-name="B" unicode="B" horiz-adv-x="1369" 
d="M164 1409h567q206 0 300 -47t145 -140q43 -77 43 -166q0 -135 -97 -230q-45 -45 -111 -70q78 -21 122 -51q148 -101 148 -293q0 -172 -103 -282q-83 -88 -203 -116q-63 -14 -156 -14h-655v1409zM350 1247v-438h335q137 0 204 19q78 22 117 94q26 47 26 108
q0 153 -128 199q-51 18 -200 18h-354zM350 658v-496h372q193 0 258 34q114 57 114 210q0 171 -152 229q-60 23 -251 23h-341z" />
    <glyph glyph-name="C" unicode="C" horiz-adv-x="1431" 
d="M1357 531q-19 -215 -136 -359q-166 -204 -474 -204q-326 0 -503 231q-150 195 -150 504q0 330 192 542q178 196 476 196q290 0 456 -180q114 -123 128 -275h-188q-24 109 -96 181q-115 116 -304 116q-253 0 -380 -206q-97 -156 -97 -373q0 -231 101 -385
q126 -193 374 -193q211 0 324 147q73 95 92 258h185z" />
    <glyph glyph-name="D" unicode="D" horiz-adv-x="1420" 
d="M164 1409h506q176 0 276 -35q123 -43 216 -147q163 -180 163 -493q0 -376 -198 -578q-111 -112 -255 -142q-68 -14 -181 -14h-527v1409zM350 1247v-1085h305q147 0 220 25q142 48 213 223q49 121 49 315q0 275 -138 409q-75 75 -172 97q-70 16 -153 16h-324z" />
    <glyph glyph-name="E" unicode="E" horiz-adv-x="1238" 
d="M1140 1409v-162h-790v-447h738v-151h-738v-487h800v-162h-986v1409h976z" />
    <glyph glyph-name="F" unicode="F" horiz-adv-x="1136" 
d="M1090 1409v-162h-740v-445h651v-151h-651v-651h-186v1409h926z" />
    <glyph glyph-name="G" unicode="G" horiz-adv-x="1519" 
d="M1386 744v-744h-118l-29 107q-11 43 -19 69q-171 -208 -453 -208q-339 0 -524 244q-149 196 -149 478q0 332 192 546q183 205 493 205q287 0 452 -169q121 -124 139 -296h-182q-14 95 -80 172q-114 135 -329 135q-239 0 -375 -172q-123 -155 -123 -413q0 -237 112 -389
q136 -183 385 -183q193 0 316 121q122 119 126 346h-451v151h617z" />
    <glyph glyph-name="H" unicode="H" horiz-adv-x="1444" 
d="M1280 1409v-1409h-186v660h-744v-660h-186v1409h186v-587h744v587h186z" />
    <glyph glyph-name="I" unicode="I" horiz-adv-x="514" 
d="M350 1409v-1409h-186v1409h186z" />
    <glyph glyph-name="J" unicode="J" horiz-adv-x="995" 
d="M851 1409v-955q0 -128 -12 -199q-24 -135 -131 -214q-100 -73 -262 -73q-286 0 -378 193q-43 92 -43 250q0 25 1 54h181v-51q0 -140 39 -200q58 -88 198 -88q133 0 183 85q38 63 38 242v956h186z" />
    <glyph glyph-name="K" unicode="K" horiz-adv-x="1319" 
d="M1309 1409l-595 -565l618 -844h-236l-512 716l-234 -222v-494h-186v1409h186v-555q-1 -99 -1 -146q32 30 93 93l623 608h244z" />
    <glyph glyph-name="L" unicode="L" horiz-adv-x="1141" 
d="M1098 162v-162h-934v1409h186v-1247h748z" />
    <glyph glyph-name="M" unicode="M" horiz-adv-x="1737" 
d="M1573 1409v-1409h-179l3 632q1 352 22 626l-20 -56l-64 -183l-44 -117l-335 -902h-162l-352 891q-76 194 -122 354q19 -302 20 -607l3 -638h-179v1409h254l330 -859q88 -228 127 -357q47 144 123 354l317 862h258z" />
    <glyph glyph-name="N" unicode="N" horiz-adv-x="1455" 
d="M1291 1409v-1409h-205l-502 759q-191 289 -255 421q9 -105 12 -337l1 -131v-712h-178v1409h202l526 -802q160 -243 235 -385q-13 280 -13 482v705h177z" />
    <glyph glyph-name="O" unicode="O" horiz-adv-x="1538" 
d="M781 1441q289 0 476 -203q186 -202 186 -531q0 -293 -145 -487q-188 -252 -530 -252q-341 0 -530 254q-143 192 -143 481q0 341 185 535q195 203 501 203zM776 1283q-219 0 -355 -150q-139 -154 -139 -425q0 -254 117 -404q72 -93 183 -140q90 -38 190 -38q199 0 327 131
q157 160 157 448q0 262 -135 421q-133 157 -345 157z" />
    <glyph glyph-name="P" unicode="P" horiz-adv-x="1278" 
d="M164 1409h560q143 0 221 -23q126 -37 202 -147q67 -96 67 -235q0 -241 -164 -352q-80 -55 -187 -68q-41 -5 -131 -5h-382v-579h-186v1409zM350 1247v-517h359q153 0 223 51q95 70 95 213q0 147 -111 213q-49 29 -121 36q-42 4 -113 4h-332z" />
    <glyph glyph-name="Q" unicode="Q" horiz-adv-x="1514" 
d="M1419 -2l-96 -117l-215 171q-146 -84 -343 -84q-302 0 -491 210q-180 200 -180 527q0 328 187 533q99 109 235 159q121 44 251 44q311 0 495 -210q180 -207 180 -524q0 -228 -88 -397q-52 -98 -121 -164zM1093 252q68 71 100 143q62 137 62 313q0 255 -134 416
q-132 159 -355 159q-220 0 -355 -162q-130 -155 -130 -412q0 -246 109 -396q76 -105 201 -154q86 -33 182 -33q99 0 193 39l-155 124l97 117z" />
    <glyph glyph-name="R" unicode="R" horiz-adv-x="1416" 
d="M160 1409h644q178 0 277 -62q171 -106 171 -321q0 -165 -104 -266q-55 -53 -137 -81q102 -20 155 -101q40 -59 50 -154q4 -29 17 -180q16 -181 55 -224l18 -20h-213q-13 18 -24 57q-10 35 -19 220q-12 228 -107 290q-66 43 -226 43h-371v-610h-186v1409zM346 1247v-486
h351q122 0 189 14q88 18 136 83q43 58 43 151q0 109 -66 172q-47 45 -127 57q-54 9 -126 9h-400z" />
    <glyph glyph-name="S" unicode="S" horiz-adv-x="1273" 
d="M1131 996h-179q-16 130 -80 196q-89 91 -273 91q-133 0 -212 -47q-105 -63 -105 -187q0 -101 75 -144q75 -44 308 -94q159 -34 226 -57q151 -52 227 -151q68 -89 68 -207q0 -199 -158 -321q-137 -107 -390 -107q-209 0 -357 82q-223 123 -226 415h180q3 -136 71 -213
q110 -126 345 -126q173 0 260 72q88 72 88 184q0 87 -54 138q-57 54 -186 92q-36 10 -167 41q-196 46 -235 59q-127 43 -187 116q-67 83 -67 209q0 189 142 301q131 103 356 103q334 0 466 -209q59 -94 64 -236z" />
    <glyph glyph-name="T" unicode="T" horiz-adv-x="1199" 
d="M1166 1409v-162h-474v-1247h-186v1247h-473v162h1133z" />
    <glyph glyph-name="U" unicode="U" horiz-adv-x="1420" 
d="M1277 1409v-822q0 -189 -23 -269q-99 -350 -538 -350q-237 0 -368 90q-148 102 -187 285q-18 87 -18 247v819h186v-824q0 -131 10 -191q46 -268 379 -268q242 0 321 139q40 72 49 190q3 46 3 130v824h186z" />
    <glyph glyph-name="V" unicode="V" horiz-adv-x="1247" 
d="M1233 1409l-504 -1409h-212l-503 1409h207l296 -888l39 -125q42 -133 69 -239q38 141 113 363l298 889h197z" />
    <glyph glyph-name="W" unicode="W" horiz-adv-x="1835" 
d="M1812 1409l-375 -1409h-197l-238 862q-58 212 -86 370q-31 -147 -92 -359l-237 -873h-199l-365 1409h193l209 -864q51 -215 73 -353q21 129 83 357l235 860h205l240 -880q48 -176 77 -337q20 127 71 333l217 884h186z" />
    <glyph glyph-name="X" unicode="X" horiz-adv-x="1227" 
d="M1193 1409l-467 -683l495 -726h-226l-290 437q-48 74 -92 152q-36 -58 -96 -147l-297 -442h-213l497 726l-466 683h223l241 -369q77 -119 112 -188q58 97 119 188l250 369h210z" />
    <glyph glyph-name="Y" unicode="Y" horiz-adv-x="1240" 
d="M1259 1409l-543 -832v-577h-186v577l-549 832h224l332 -526q59 -93 92 -153q35 66 87 148l330 531h213z" />
    <glyph glyph-name="Z" unicode="Z" horiz-adv-x="1234" 
d="M1158 1409v-154l-801 -995q-8 -10 -40 -47q-16 -18 -47 -56q221 5 259 5h650v-162h-1124v158l809 1004q10 13 78 89q-129 -4 -250 -4h-568v162h1034z" />
    <glyph glyph-name="bracketleft" unicode="[" horiz-adv-x="636" 
d="M478 1409v-132h-212v-1540h212v-134h-373v1806h373z" />
    <glyph glyph-name="backslash" unicode="\" horiz-adv-x="911" 
d="M242 1409l564 -1412h-142l-559 1412h137z" />
    <glyph glyph-name="bracketright" unicode="]" horiz-adv-x="583" 
d="M105 -397v134h212v1540h-212v132h373v-1806h-373z" />
    <glyph glyph-name="asciicircum" unicode="^" horiz-adv-x="1142" 
d="M275 785h-170l362 628h208l362 -628h-171l-296 503z" />
    <glyph glyph-name="underscore" unicode="_" horiz-adv-x="1267" 
d="M105 -211h1057v-117h-1057v117z" />
    <glyph glyph-name="grave" unicode="`" horiz-adv-x="564" 
d="M105 1444h208l146 -282h-117z" />
    <glyph glyph-name="a" unicode="a" horiz-adv-x="1084" 
d="M1032 135v-131q-59 -21 -118 -21q-79 0 -119 55q-26 36 -27 97q-143 -165 -370 -165q-144 0 -229 70q-98 81 -98 221q0 201 192 278q57 23 144 37q12 1 170 21q127 15 158 59q21 29 21 77q0 178 -229 178q-143 0 -205 -73q-36 -43 -46 -136h-164q3 156 109 251
q110 99 319 99q215 0 318 -101q50 -48 64 -134q3 -17 3 -118v-510q0 -65 62 -65q21 0 45 11zM760 514q-37 -25 -86 -36q-38 -9 -140 -21q-147 -17 -204 -45q-86 -42 -86 -137q0 -74 55 -122q50 -44 147 -44q125 0 221 72q70 53 86 114q7 27 7 83v136z" />
    <glyph glyph-name="b" unicode="b" horiz-adv-x="1211" 
d="M324 1409v-528q106 171 337 171q205 0 333 -146q127 -144 127 -391q0 -255 -134 -403q-129 -142 -336 -142q-237 0 -339 178v-148h-156v1409h168zM640 911q-138 0 -226 -95q-96 -104 -96 -308q0 -189 85 -291q88 -106 233 -106q142 0 224 106q89 114 89 296
q0 189 -90 298q-83 100 -219 100z" />
    <glyph glyph-name="c" unicode="c" horiz-adv-x="1090" 
d="M1023 372q-20 -147 -98 -245q-126 -157 -349 -157q-248 0 -379 174q-106 141 -106 352q0 277 151 425q135 131 340 131q233 0 350 -145q69 -86 85 -218h-174q-17 87 -63 139q-74 83 -199 83q-167 0 -251 -136q-67 -107 -67 -265q0 -167 68 -271q84 -128 241 -128t235 128
q33 55 45 133h171z" />
    <glyph glyph-name="d" unicode="d" horiz-adv-x="1211" 
d="M1055 1409v-1409h-158v150q-96 -180 -335 -180q-209 0 -338 141q-134 146 -134 401q0 252 126 394q130 146 333 146q161 0 264 -82q44 -35 74 -90v529h168zM578 911q-141 0 -226 -99q-90 -106 -90 -296q0 -185 89 -298q85 -107 227 -107q145 0 230 107q83 105 83 290
q0 206 -96 309q-87 94 -217 94z" />
    <glyph glyph-name="e" unicode="e" horiz-adv-x="1114" 
d="M1021 327q-80 -357 -447 -357q-247 0 -375 168q-108 144 -108 365q0 240 132 393q135 156 346 156q172 0 294 -104q132 -113 161 -321q9 -64 8 -151h-768q12 -365 322 -365q151 0 222 108q27 43 48 108h165zM859 606q-8 105 -52 175q-82 130 -243 130q-155 0 -234 -117
q-49 -72 -64 -188h593z" />
    <glyph glyph-name="f" unicode="f" horiz-adv-x="607" 
d="M581 1414v-144q-52 11 -95 11q-82 0 -107 -34q-20 -26 -20 -108v-117h195v-138h-195v-884h-168v884h-172v138h172v67q0 100 6 141q15 94 91 147q64 45 177 45q49 0 116 -8z" />
    <glyph glyph-name="g" unicode="g" horiz-adv-x="1184" 
d="M1028 1022v-911q0 -133 -17 -210q-34 -156 -146 -233q-123 -86 -312 -86q-212 0 -327 97q-85 72 -102 205h173q31 -171 263 -171q178 0 246 101q56 85 56 236v124q-32 -56 -62 -86q-99 -101 -265 -101q-199 0 -324 143q-122 141 -122 377q0 251 130 398q129 147 327 147
q135 0 229 -70q50 -37 97 -108v148h156zM565 911q-155 0 -234 -118q-70 -105 -70 -267q0 -227 110 -326q79 -71 187 -71q150 0 231 125q70 108 70 276q0 209 -104 307q-77 74 -190 74z" />
    <glyph glyph-name="h" unicode="h" horiz-adv-x="1168" 
d="M324 1409v-412q0 -19 -4 -122q118 177 348 177q228 0 311 -153q40 -74 40 -235v-664h-168v643q0 135 -34 185q-58 83 -197 83q-125 0 -206 -77q-63 -60 -81 -157q-9 -52 -9 -194v-483h-168v1409h168z" />
    <glyph glyph-name="i" unicode="i" horiz-adv-x="479" 
d="M324 1022v-1022h-168v1022h168zM140 1248q0 20 7.5 37.5t21 31t31 21t37.5 7.5t37.5 -7.5t30.5 -21t20.5 -31t7.5 -37.5q0 -40 -28 -68t-68 -28q-20 0 -37.5 7.5t-31 20.5t-21 30.5t-7.5 37.5z" />
    <glyph glyph-name="j" unicode="j" horiz-adv-x="479" 
d="M323 1022v-1048q0 -138 -6 -193q-21 -192 -253 -192q-35 0 -76 7v142q33 -7 59 -7q68 0 89 30q19 25 19 212v1049h168zM140 1248q0 20 7.5 37.5t21 31t31 21t37.5 7.5t37.5 -7.5t30.5 -21t20.5 -31t7.5 -37.5q0 -40 -28 -68t-68 -28q-20 0 -37.5 7.5t-31 20.5t-21 30.5
t-7.5 37.5z" />
    <glyph glyph-name="k" unicode="k" horiz-adv-x="1068" 
d="M1019 1022l-405 -370l435 -652h-214l-350 534l-161 -147v-387h-168v1409h168v-692v-77v-69q48 51 69 71l402 380h224z" />
    <glyph glyph-name="l" unicode="l" horiz-adv-x="480" 
d="M324 1409v-1409h-168v1409h168z" />
    <glyph glyph-name="m" unicode="m" horiz-adv-x="1738" 
d="M312 1022v-148q65 83 123 120q93 58 212 58q143 0 223 -81q33 -35 60 -99q128 180 339 180q185 0 270 -127q50 -75 50 -220v-705h-168v644q0 123 -19 168q-42 99 -184 99q-99 0 -167 -56q-77 -64 -89 -173q-5 -44 -5 -141v-541h-168v656q0 147 -42 196q-50 59 -149 59
q-102 0 -175 -61q-75 -63 -92 -175q-7 -49 -7 -134v-541h-168v1022h156z" />
    <glyph glyph-name="n" unicode="n" horiz-adv-x="1168" 
d="M312 1022v-159q48 66 86 97q111 92 277 92q141 0 233 -71q86 -66 104 -187q7 -43 7 -134v-660h-168v601q0 107 -8 150q-14 72 -59 110q-60 50 -161 50q-133 0 -215 -84q-58 -60 -74 -158q-10 -59 -10 -174v-495h-168v1022h156z" />
    <glyph glyph-name="o" unicode="o" horiz-adv-x="1169" 
d="M594 1052q221 0 357 -150q129 -142 129 -390q0 -272 -152 -420q-126 -122 -336 -122q-242 0 -375 157q-126 148 -126 384q0 225 113 369q136 172 390 172zM592 911q-142 0 -230 -95q-99 -108 -99 -306q0 -196 96 -303q86 -96 232 -96q129 0 209 81q108 111 108 322
q0 193 -94 300q-86 97 -222 97z" />
    <glyph glyph-name="p" unicode="p" horiz-adv-x="1213" 
d="M312 1022v-146q41 57 76 87q104 89 265 89q200 0 326 -132q144 -150 144 -415q0 -241 -127 -388q-128 -147 -331 -147q-224 0 -341 170v-537h-168v1419h156zM638 911q-146 0 -233 -102q-89 -106 -89 -298q0 -200 99 -306q87 -94 223 -94q141 0 222 99q91 112 91 295
q0 191 -94 306q-82 100 -219 100z" />
    <glyph glyph-name="q" unicode="q" horiz-adv-x="1211" 
d="M1057 1022v-1419h-168v539q-118 -172 -343 -172q-201 0 -327 143q-127 143 -127 395q0 263 141 411q126 133 329 133q168 0 272 -92q32 -28 67 -85v147h156zM581 911q-143 0 -224 -100q-93 -114 -93 -306q0 -186 89 -294q84 -100 224 -100q134 0 220 93q98 106 98 312
q0 189 -89 293q-88 102 -225 102z" />
    <glyph glyph-name="r" unicode="r" horiz-adv-x="700" 
d="M696 1052v-175q-37 3 -53 3q-135 0 -222 -89q-73 -75 -89 -209q-8 -66 -8 -185v-397h-168v1022h156v-213q76 163 208 215q71 28 176 28z" />
    <glyph glyph-name="s" unicode="s" horiz-adv-x="997" 
d="M875 724h-169q-9 69 -36 105q-60 82 -212 82q-95 0 -150 -35q-59 -37 -59 -108q0 -46 26 -73q32 -31 86 -47q63 -19 160 -41q213 -47 299 -110q96 -70 96 -200q0 -114 -76 -200q-112 -127 -348 -127q-240 0 -353 123q-79 86 -85 230h165q10 -85 46 -129q70 -83 228 -83
q144 0 211 72q39 42 39 97q0 57 -39 89q-38 32 -97 50q-54 17 -121 33q-182 44 -217 56q-192 66 -192 243q0 163 143 245q97 56 246 56q230 0 337 -125q62 -72 72 -203z" />
    <glyph glyph-name="t" unicode="t" horiz-adv-x="612" 
d="M543 1022v-138h-202v-603q0 -97 15 -122q21 -36 98 -36q43 0 89 13v-145q-64 -8 -128 -8q-163 0 -212 80q-22 35 -27 104q-3 44 -3 208v509h-172v138h172v303h168v-303h202z" />
    <glyph glyph-name="u" unicode="u" horiz-adv-x="1140" 
d="M984 1022v-1022h-156v160q-127 -190 -346 -190q-178 0 -267 112q-66 83 -66 277v663h168v-602q0 -170 32 -223q52 -86 181 -86q168 0 247 152q39 74 39 265v494h168z" />
    <glyph glyph-name="v" unicode="v" horiz-adv-x="951" 
d="M942 1022l-373 -1022h-180l-380 1022h186l183 -518q56 -156 108 -336q30 115 109 348l171 506h176z" />
    <glyph glyph-name="w" unicode="w" horiz-adv-x="1468" 
d="M1450 1022l-326 -1022h-179l-152 558q-30 111 -60 255q-30 -138 -60 -253l-146 -560h-182l-327 1022h186l141 -489q46 -156 92 -347q52 242 80 352l126 484h186l147 -543q26 -96 67 -293q39 178 72 289l159 547h176z" />
    <glyph glyph-name="x" unicode="x" horiz-adv-x="991" 
d="M948 1022l-353 -470l395 -552h-216l-220 322q-37 55 -65 102q-24 -39 -67 -102l-217 -322h-204l384 538l-356 484h216l163 -231q16 -23 81 -126q70 102 88 127l167 230h204z" />
    <glyph glyph-name="y" unicode="y" horiz-adv-x="974" 
d="M964 1022l-375 -988q-101 -266 -141 -329q-72 -116 -218 -116q-48 0 -98 11l-26 6v151q73 -22 108 -22q77 0 121 86q25 47 78 186l-404 1015h188l224 -598q25 -65 78 -237q51 159 83 252l205 583h177z" />
    <glyph glyph-name="z" unicode="z" horiz-adv-x="948" 
d="M894 1022v-111l-549 -684q-12 -15 -77 -90q80 1 127 1h524v-138h-862v125l535 665q15 19 85 95q-76 -1 -96 -1h-485v138h798z" />
    <glyph glyph-name="braceleft" unicode="{" horiz-adv-x="693" 
d="M270 504q71 -39 97 -104q20 -50 20 -141v-300q0 -104 21 -144q21 -41 50 -55q49 -24 130 -25v-132h-14q-149 0 -202 19q-100 36 -130 147q-16 57 -16 148v320q0 106 -35 149q-29 36 -86 52v141q58 16 88 55q33 42 33 138v350q0 152 69 219q49 49 118 59q65 9 162 9h13
v-132q-101 -3 -144 -36q-38 -29 -49 -84q-8 -41 -8 -104v-308q0 -106 -31 -163q-23 -44 -86 -78z" />
    <glyph glyph-name="bar" unicode="|" horiz-adv-x="394" 
d="M105 1409h184v-1761h-184v1761z" />
    <glyph glyph-name="braceright" unicode="}" horiz-adv-x="693" 
d="M424 507q-71 40 -97 105q-20 50 -20 141v300q0 104 -21 144q-21 41 -51 55q-49 24 -130 25v132h14q150 0 203 -19q100 -36 130 -147q16 -57 16 -148v-320q0 -106 35 -149q28 -35 85 -52v-141q-57 -16 -87 -55q-33 -42 -33 -138v-350q0 -151 -69 -219q-49 -49 -118 -59
q-65 -9 -163 -9h-13v132q102 3 145 36q38 30 49 84q8 42 8 104v308q0 106 31 163q24 44 86 77z" />
    <glyph glyph-name="asciitilde" unicode="~" horiz-adv-x="1203" 
d="M189 557l-84 66q28 62 79 128q81 105 201 105q76 0 240 -81q102 -50 135 -59q34 -10 61 -10q108 0 193 150l84 -66q-49 -110 -119 -167q-79 -65 -168 -65q-34 0 -76 13q-45 13 -183 81q-113 55 -175 55q-102 0 -188 -150z" />
    <glyph glyph-name="delete" horiz-adv-x="1600" 
d="M1520 129h-366v586h78v-517h288v-69zM1080 129h-438v586h424v-69h-346v-179h324v-69h-324v-200h360v-69zM572 425q0 -126 -56 -203q-46 -64 -123 -83q-41 -10 -95 -10h-211v586h202q68 0 104 -8q112 -26 156 -142q23 -61 23 -140zM492 427q0 167 -104 207q-31 12 -100 12
h-124v-448h126q102 0 143 41q59 59 59 188z" />
    <glyph glyph-name="exclamdown.001" unicode="&#xa1;" horiz-adv-x="682" 
d="M488 1062v-281h-282v281h282zM426 678l73 -741v-344h-304v344l73 741h158z" />
    <glyph glyph-name="cent" unicode="&#xa2;" horiz-adv-x="1139" 
d="M744 811l-182 -602q22 -4 45 -4q79 0 130.5 45.5t72.5 156.5l276 -47q-43 -190 -165 -287t-326 -97q-50 0 -101 7l-117 -386l-122 34l116 385q-138 60 -212.5 196.5t-74.5 322.5q0 259 139 405t375 146q45 0 94 -6l113 376l123 -35l-112 -371q189 -72 256 -302l-277 -50
q-12 72 -51 113zM627 864q-13 1 -24 1q-106 0 -168.5 -73t-62.5 -243q0 -194 76 -280z" />
    <glyph glyph-name="sterling" unicode="&#xa3;" horiz-adv-x="1139" 
d="M999 285l108 -238q-57 -31 -131.5 -50.5t-144.5 -19.5q-90 0 -240 42.5t-222 42.5q-122 0 -249 -87l-107 242q113 81 162.5 172.5t49.5 174.5q0 27 -4 57h-208v221h157q-41 118 -41 239q0 109 59.5 208t168.5 150.5t238 51.5q197 0 314 -99.5t143 -285.5l-271 -40
q-19 107 -69 154t-125 47q-80 0 -133 -53.5t-53 -134.5q0 -42 14.5 -111t35.5 -126h312v-221h-266q3 -22 3 -44q0 -79 -30 -146t-123 -176q55 28 138 28q35 0 63 -4q14 -2 82 -19q121 -31 165 -31q78 0 204 56z" />
    <glyph glyph-name="currency" unicode="&#xa4;" horiz-adv-x="1139" 
d="M177 941l-132 131l166 178l136 -136q53 29 107.5 43t110.5 14q57 0 112 -14t107 -43l134 134l167 -169l-132 -133q28 -51 42 -105.5t14 -112.5q0 -57 -14 -111.5t-42 -106.5l134 -133l-167 -171l-136 136q-50 -28 -104.5 -42.5t-113.5 -14.5q-56 0 -110 14t-106 42
l-130 -131l-170 168l130 132q-28 52 -42.5 106.5t-14.5 111.5t13.5 110.5t40.5 102.5zM364 728q0 -84 59.5 -143t142.5 -59q84 0 143 59t59 143t-59 143t-143 59t-143 -59t-59 -143z" />
    <glyph glyph-name="idieresis" unicode="&#xa5;" horiz-adv-x="1139" 
d="M422 273h-371v221h371v120h-371v221h261l-311 631h308l200 -426q38 -80 54 -141q19 66 54 141l204 426h308l-315 -631h265v-221h-376v-120h376v-221h-376v-273h-281v273z" />
    <glyph glyph-name="brokenbar" unicode="&#xa6;" horiz-adv-x="573" 
d="M176 701v790h223v-790h-223zM176 -431v791h223v-791h-223z" />
    <glyph glyph-name="section" unicode="&#xa7;" horiz-adv-x="1139" 
d="M986 1154l-275 -29q-4 74 -43.5 113t-109.5 39q-65 0 -99 -28.5t-34 -64.5q0 -49 46 -94q31 -30 205 -142t230 -160q87 -73 124.5 -144.5t37.5 -158.5q0 -93 -45.5 -171.5t-136.5 -142.5q61 -56 91 -119.5t30 -134.5q0 -148 -111 -248t-319 -100q-200 0 -320 99t-142 264
l274 33q18 -90 68.5 -135.5t127.5 -45.5q66 0 105 34.5t39 83.5q0 47 -37 84q-38 37 -266.5 182.5t-297.5 241.5t-69 215q0 98 45 182t140 138q-50 54 -75.5 110t-25.5 114q0 135 105.5 228.5t296.5 93.5q196 0 308.5 -93.5t132.5 -243.5zM735 293q44 40 65.5 76.5
t21.5 70.5q0 33 -23 68t-126 110l-273 198q-34 -20 -60 -57t-26 -79q0 -101 135 -192z" />
    <glyph glyph-name="dieresis.001" unicode="&#xa8;" horiz-adv-x="682" 
d="M5 1250v241h241v-241h-241zM435 1250v241h242v-241h-242z" />
    <glyph glyph-name="copyright" unicode="&#xa9;" horiz-adv-x="1681" 
d="M1209 617q-13 -134 -86 -217q-103 -118 -291 -118q-200 0 -310 133q-92 113 -92 289q0 190 118 311q110 113 292 113q178 0 281 -104q72 -73 81 -171h-132q-14 64 -57 105q-65 62 -176 62q-145 0 -219 -111q-56 -85 -56 -204q0 -127 59 -211q72 -104 217 -104
q212 0 240 227h131zM851 1441q197 0 374 -109t271 -293q80 -158 80 -335q0 -207 -108 -384t-293 -271q-157 -81 -334 -81q-207 0 -383 108q-177 108 -272 294q-81 158 -81 333q0 209 108 387q106 175 295 271q157 80 343 80zM849 1338q-265 0 -449 -184q-88 -89 -136 -207
q-48 -117 -48 -244q0 -177 93 -330q92 -152 249 -233q134 -69 283 -69q258 0 441 185q183 186 183 449q0 178 -92 331q-89 150 -248 233q-132 69 -276 69z" />
    <glyph glyph-name="ocircumflex" unicode="&#xaa;" horiz-adv-x="758" 
d="M254 1252l-189 38q23 99 92.5 150t210.5 51q147 0 222 -39q49 -25 73 -89q15 -40 15 -154v-239q0 -104 6.5 -139.5t23.5 -69.5h-190q-13 26 -23 71q-88 -89 -216 -89q-114 0 -178 60.5t-64 155.5q0 68 31.5 115t92.5 74q45 19 188 47q79 16 125 33q0 14 -1 21
q-1 49 -18 64q-24 21 -83 21q-52 0 -78 -17q-19 -13 -40 -65zM474 1095q-22 -13 -62 -21q-108 -23 -128 -35q-40 -25 -40 -65q0 -31 27 -56t70 -25q58 0 95.5 41.5t37.5 120.5v40z" />
    <glyph glyph-name="yen" unicode="&#xab;" horiz-adv-x="1139" 
d="M633 983l-260 -451l260 -462h-221l-316 462l316 451h221zM1025 983l-259 -451l259 -462h-221l-316 462l316 451h221z" />
    <glyph glyph-name="registered" unicode="&#xac;" horiz-adv-x="1196" 
d="M853 376v441h-768v257h1025v-698h-257z" />
    <glyph glyph-name="hyphen" unicode="&#xad;" horiz-adv-x="682" 
d="M115 391v281h552v-281h-552z" />
    <glyph glyph-name="registered.003" unicode="&#xae;" horiz-adv-x="1096" 
d="M360 1409h227q63 0 99 -21q63 -36 63 -109t-65 -109q29 -18 40 -39q10 -20 14 -62q6 -70 11 -87q6 -18 29 -38h-97q-15 22 -17 62q-4 85 -21 108q-18 24 -85 24h-118v-194h-80v465zM440 1341v-138h111q64 0 87 13q31 17 31 57q0 48 -41 61q-20 7 -60 7h-128zM555 1619
q189 0 322 -147q114 -125 114 -295q0 -198 -146 -329q-127 -114 -297 -114q-198 0 -329 146q-114 126 -114 300q0 191 147 325q125 114 303 114zM554 1553q-172 0 -286 -125q-97 -106 -97 -248q0 -172 125 -283q107 -97 252 -97q168 0 280 124q97 107 97 253q0 166 -125 279
q-107 97 -246 97z" />
    <glyph glyph-name="ydieresis" unicode="&#xaf;" horiz-adv-x="1131" 
d="M-19 1552v183h1168v-183h-1168z" />
    <glyph glyph-name="degree.001" unicode="&#xb0;" horiz-adv-x="819" 
d="M86 1172q0 133 93.5 226t225.5 93t225.5 -93.5t93.5 -225.5t-93.5 -225.5t-225.5 -93.5t-225.5 93.5t-93.5 225.5zM252 1172q0 -63 45 -108t108 -45t108 45t45 108t-45 108t-108 45t-108 -45t-45 -108z" />
    <glyph glyph-name="plusminus" unicode="&#xb1;" horiz-adv-x="1124" 
d="M434 356v381h-384v263h384v381h256v-381h385v-263h-385v-381h-256zM50 0v263h1025v-263h-1025z" />
    <glyph glyph-name="twosuperior" unicode="&#xb2;" horiz-adv-x="682" 
d="M632 885v-158h-607q11 85 54.5 152t194.5 186q114 89 137 118q31 38 31 77q0 37 -25 59t-76 22t-76 -24.5t-31 -90.5l-189 16q15 117 75 171q80 71 226 71q139 0 212.5 -64t73.5 -151q0 -54 -23 -102.5t-73 -100.5q-26 -26 -135 -112q-58 -45 -83 -69h314z" />
    <glyph glyph-name="threesuperior.001" unicode="&#xb3;" horiz-adv-x="682" 
d="M40 946l184 20q8 -55 37 -81.5t76 -26.5q49 0 79 30t30 78q0 43 -28.5 71t-74.5 28q-30 0 -91 -15l23 146q52 -1 81.5 10.5t42 29t12.5 39.5q0 29 -21 47.5t-62 18.5t-66 -22.5t-33 -75.5l-178 26q25 103 74 147q76 68 208 68q124 0 196.5 -62t72.5 -142q0 -38 -21 -70
q-28 -45 -76 -74q67 -24 101.5 -70.5t34.5 -108.5q0 -95 -84 -168.5t-221 -73.5q-128 0 -205 63t-91 168z" />
    <glyph glyph-name="bullet" unicode="&#xb4;" horiz-adv-x="663" 
d="M105 1192l138 299h315l-275 -299h-178z" />
    <glyph glyph-name="micro" unicode="&#xb5;" horiz-adv-x="1180" 
d="M111 1062h279v-481q0 -208 42 -283q53 -97 157 -97q56 0 106 36t74 100t24 241v484h284v-1062h-262v128q-30 -56 -57 -84t-72.5 -49t-83.5 -21q-71 0 -126 39q-39 29 -86 115v-535h-279v1469z" />
    <glyph glyph-name="paragraph.001" unicode="&#xb6;" horiz-adv-x="1153" 
d="M501 -397v1064q-19 -1 -31 -1q-112 0 -203 55q-76 45 -119 127q-43 84 -43 185q0 127 65 224q68 100 194 133q72 19 184 19h500v-113h-92v-1693h-137v1693h-181v-1693h-137z" />
    <glyph glyph-name="glyph126" unicode="&#xb7;" horiz-adv-x="569" 
d="M147 573v281h281v-281h-281z" />
    <glyph glyph-name="cedilla" unicode="&#xb8;" horiz-adv-x="682" 
d="M38 -403v118q103 -11 189 -11q89 0 132 32q33 24 33 62q0 34 -31 59t-96 25q-64 0 -131 -20l26 99q78 27 168 27q125 0 190 -55t65 -134q0 -88 -72 -143q-97 -75 -278 -75q-129 0 -195 16z" />
    <glyph glyph-name="onesuperior" unicode="&#xb9;" horiz-adv-x="682" 
d="M495 727h-190v513q-94 -65 -214 -98v155q95 27 172 87q54 42 78 100h154v-757z" />
    <glyph glyph-name="ordmasculine.001" unicode="&#xba;" horiz-adv-x="748" 
d="M26 1115q0 178 94.5 277t252.5 99q157 0 252 -99.5t95 -276.5t-94.5 -276t-252.5 -99t-252.5 98.5t-94.5 276.5zM237 1113q0 -110 37 -156.5t96 -46.5t96.5 46.5t37.5 156.5t-37.5 156.5t-96.5 46.5t-96 -46t-37 -157z" />
    <glyph glyph-name="trademark" unicode="&#xbb;" horiz-adv-x="1139" 
d="M498 70l260 452l-260 461h221l316 -461l-316 -452h-221zM106 70l260 452l-260 461h221l316 -461l-316 -452h-221z" />
    <glyph glyph-name="onequarter" unicode="&#xbc;" horiz-adv-x="1708" 
d="M496 727h-190v513q-94 -65 -214 -98v155q95 27 172 87q54 42 78 100h154v-757zM499 -54h-159l869 1538h159zM1403 -42v146h-360v141l382 470h156v-466h107v-145h-107v-146h-178zM1403 249v225l-183 -225h183z" />
    <glyph glyph-name="macron" unicode="&#xbf;" horiz-adv-x="683" 
d="M603 1297h-521v108h521v-108z" />
    <glyph glyph-name="degree" unicode="&#xc1;" horiz-adv-x="768" 
d="M713 1139q0 -126 -89.5 -215.5t-215.5 -89.5q-127 0 -216 89t-89 216t89 216t216 89q128 0 216.5 -88.5t88.5 -216.5zM649 1139q0 101 -70 171t-171 70q-100 0 -170.5 -70.5t-70.5 -170.5q0 -101 70 -171t171 -70q100 0 170.5 70.5t70.5 170.5z" />
    <glyph glyph-name="dieresis" unicode="&#xc2;" horiz-adv-x="683" 
d="M626 1350q0 -42 -29.5 -71.5t-71.5 -29.5t-71.5 29.5t-29.5 71.5q0 41 29 71t70 30q43 0 73 -29t30 -72zM262 1351q0 -42 -29.5 -71.5t-71.5 -29.5t-71 29.5t-29 71.5q0 41 29 70.5t70 29.5q43 0 72.5 -28.5t29.5 -71.5z" />
    <glyph glyph-name="acute" unicode="&#xc7;" horiz-adv-x="564" 
d="M222 1162h-117l146 282h208z" />
    <glyph glyph-name="ordfeminine" unicode="&#xc8;" horiz-adv-x="640" 
d="M628 896q-100 -100 -164 -100q-57 0 -57 68v95q-154 -160 -245 -160q-53 0 -88.5 39.5t-35.5 93.5q0 138 369 310v68q0 95 -78 95q-79 0 -131 -74q-44 -64 -50 -148h-46v157q151 101 288 101q117 0 117 -93v-434q0 -38 24 -38q33 0 97 58v-38zM413 1183q-96 -20 -173 -67
q-101 -62 -101 -142q0 -90 91 -90q96 0 145 108q36 81 38 191z" />
    <glyph glyph-name="dagger" unicode="&#xca;" horiz-adv-x="896" 
d="M808 844h-45q-5 63 -118 94l-171 47q20 -162 95 -334q-79 -313 -95 -978h-53q-18 626 -95 978q72 164 95 334l-134 -36q-72 -19 -98 -32q-55 -27 -60 -73h-42v338h42q8 -70 149 -105l143 -36l-34 192q-20 113 -28 134q-28 78 -93 82v45h360v-45q-62 0 -91 -77
q-10 -28 -27 -128l-34 -203l121 30q161 40 168 111h45v-338z" />
    <glyph glyph-name="questiondown" unicode="&#xcb;" horiz-adv-x="917" 
d="M603 886q0 -50 -35 -85t-85 -35t-84.5 35t-34.5 85q0 49 34 84t83 35q51 0 86.5 -34t35.5 -85zM782 -180q-273 -151 -505 -151q-121 0 -197 51q-90 59 -90 174q0 95 68 190q39 53 141 151q123 117 168 192q63 105 64 243h100q-2 -154 -43 -261q-37 -95 -138 -227
q-142 -187 -142 -284q0 -79 49.5 -125.5t129.5 -46.5q144 0 239 130q84 115 90 266h66v-302z" />
    <glyph glyph-name="quoteright" unicode="&#xcd;" horiz-adv-x="512" 
d="M111 794q-9 13 51 112q63 106 125 166q-62 56 -125 162q-58 99 -51 114q10 17 242 -170q62 -50 57 -106q5 -60 -57 -109q-210 -171 -239 -171q-3 0 -3 2z" />
    <glyph glyph-name="icircumflex" unicode="&#xd3;" horiz-adv-x="555" 
d="M517 129h-458v48q84 2 118.5 37t34.5 119v547q0 63 -72 63q-26 0 -57 -13q-17 -7 -24 -9v51l256 101h49v-740q0 -84 34.5 -119t118.5 -37v-48zM545 1234h-66l-214 126l-211 -126h-68l279 242z" />
    <glyph glyph-name="edieresis" unicode="&#xd4;" horiz-adv-x="896" 
d="M1021 327q-80 -357 -447 -357q-247 0 -375 168q-108 144 -108 365q0 240 132 393q135 156 346 156q172 0 294 -104q132 -113 161 -321q9 -64 8 -151h-768q12 -365 322 -365q151 0 222 108q27 43 48 108h165zM859 606q-8 105 -52 175q-82 130 -243 130q-155 0 -234 -117
q-49 -72 -64 -188h593zM766 1350q0 -42 -29.5 -71.5t-71.5 -29.5t-71.5 29.5t-29.5 71.5q0 41 29 71t70 30q43 0 73 -29t30 -72zM402 1351q0 -42 -29.5 -71.5t-71.5 -29.5t-71 29.5t-29 71.5q0 41 29 70.5t70 29.5q43 0 72.5 -28.5t29.5 -71.5z" />
    <glyph glyph-name="caron" unicode="&#xd8;" horiz-adv-x="683" 
d="M617 1473l-280 -242l-281 242h68l213 -132l214 132h66z" />
    <glyph glyph-name="caron" unicode="&#x2c7;" horiz-adv-x="683" 
d="M617 1473l-280 -242l-281 242h68l213 -132l214 132h66z" />
    <glyph glyph-name="caron" unicode="&#xff;" horiz-adv-x="683" 
d="M617 1473l-280 -242l-281 242h68l213 -132l214 132h66z" />
    <glyph glyph-name="udieresis" unicode="&#xd9;" horiz-adv-x="1131" 
d="M984 1022v-1022h-156v160q-127 -190 -346 -190q-178 0 -267 112q-66 83 -66 277v663h168v-602q0 -170 32 -223q52 -86 181 -86q168 0 247 152q39 74 39 265v494h168zM817 1350q0 -42 -29.5 -71.5t-71.5 -29.5t-71.5 29.5t-29.5 71.5q0 41 29 71t70 30q43 0 73 -29t30 -72
zM453 1351q0 -42 -29.5 -71.5t-71.5 -29.5t-71 29.5t-29 71.5q0 41 29 70.5t70 29.5q43 0 72.5 -28.5t29.5 -71.5z" />
    <glyph glyph-name="acircumflex" unicode="&#xe4;" horiz-adv-x="960" 
d="M1032 135v-131q-59 -21 -118 -21q-79 0 -119 55q-26 36 -27 97q-143 -165 -370 -165q-144 0 -229 70q-98 81 -98 221q0 201 192 278q57 23 144 37q12 1 170 21q127 15 158 59q21 29 21 77q0 178 -229 178q-143 0 -205 -73q-36 -43 -46 -136h-164q3 156 109 251
q110 99 319 99q215 0 318 -101q50 -48 64 -134q3 -17 3 -118v-510q0 -65 62 -65q21 0 45 11zM760 514q-37 -25 -86 -36q-38 -9 -140 -21q-147 -17 -204 -45q-86 -42 -86 -137q0 -74 55 -122q50 -44 147 -44q125 0 221 72q70 53 86 114q7 27 7 83v136zM754 1234h-66l-214 126
l-211 -126h-68l279 242z" />
    <glyph glyph-name="logicalnot" unicode="&#xe5;" horiz-adv-x="1365" 
d="M1222 490h-108v466h-972v108h1080v-574z" />
    <glyph glyph-name="nonbreakingspace" unicode="&#xe6;" horiz-adv-x="500" 
 />
    <glyph glyph-name="exclamdown" unicode="&#xe7;" horiz-adv-x="650" 
d="M360 981q0 -36 -27 -63t-63 -27q-37 0 -63.5 27t-26.5 63t26.5 63t62.5 27q37 0 64 -27t27 -63zM438 81q-77 0 -220 -176v817l105 106v-480q0 -63 115 -267z" />
    <glyph glyph-name="Agrave" unicode="&#xe8;" horiz-adv-x="1237" 
d="M776 1415l551 -1415h-207l-157 433h-592l-161 -433h-196l553 1415h209zM908 584l-139 374q-71 192 -100 285q-34 -97 -102 -277l-142 -382h483zM567 1767h208l146 -282h-117z" />
    <glyph glyph-name="guillemotright" unicode="&#xe9;" horiz-adv-x="854" 
d="M784 529l-338 -400h-89l226 400l-226 393h87zM483 529l-340 -400h-93l232 400l-226 393h87z" />
    <glyph glyph-name="OE" unicode="&#xeb;" horiz-adv-x="1771" 
d="M1735 463l-76 -381h-51l1 10q0 37 -44 37h-512q-33 0 -154 -14q-129 -15 -188 -15q-352 0 -536 275q-96 143 -96 328q0 315 246 540q112 102 231 144q112 40 270 40q41 0 104 -7q108 -12 168 -12h467q57 0 57 48h49v-383h-73q0 287 -313 287h-106q-12 -73 -12 -200
q0 -166 62 -244q69 -87 229 -87h89v-70l-368 -8v-574h112q311 0 368 286h76zM997 177v1077q-125 101 -294 101q-211 0 -337 -142q-121 -136 -121 -350q0 -186 85 -349q90 -172 245.5 -259.5t314.5 -87.5q66 0 107 10z" />
    <glyph glyph-name="oe" unicode="&#xec;" horiz-adv-x="1685" 
d="M1624 379q-239 -279 -439 -279q-198 0 -329 223q-165 -223 -401 -223q-186 0 -299 127q-109 121 -109 310q0 215 145 374q149 163 362 163q240 0 354 -208q154 208 349 208q154 0 242 -105q82 -97 89 -255h-644q-2 -34 -2 -49q0 -166 80 -287q93 -139 251 -139
q167 0 351 210v-70zM1423 763q-6 101 -63 171q-63 77 -161 77q-94 0 -165 -79q-64 -70 -83 -169h472zM819 527q0 166 -96 307q-107 159 -267 159q-133 0 -209 -104q-68 -93 -68 -231q0 -165 101 -308q111 -158 270 -158q132 0 205 105q64 92 64 230z" />
    <glyph glyph-name="quotedblright" unicode="&#xee;" horiz-adv-x="795" 
d="M111 794q-9 13 51 112q63 106 125 166q-62 56 -125 162q-58 99 -51 114q10 17 242 -170q62 -50 57 -106q5 -60 -57 -109q-210 -171 -239 -171q-3 0 -3 2zM415 794q-9 13 49 112q63 106 125 166q-62 56 -125 162q-58 97 -49 114q8 17 240 -170q62 -50 58 -106
q4 -60 -58 -109q-210 -171 -237 -171q-2 0 -3 2z" />
    <glyph glyph-name="quoteleft" unicode="&#xef;" horiz-adv-x="498" 
d="M379 794q-2 -2 -4 -2q-27 0 -237 171q-63 49 -58 109q-5 56 58 106q231 187 241 170q8 -17 -50 -114q-63 -106 -124 -162q61 -60 124 -166q58 -99 50 -112z" />
    <glyph glyph-name="quotedblleft.001" unicode="&#xf1;" horiz-adv-x="795" 
d="M683 794q-2 -2 -4 -2q-29 0 -239 171q-61 49 -58 109q-3 56 58 106q232 187 243 170q6 -15 -52 -114q-63 -106 -124 -162q61 -60 124 -166q58 -99 52 -112zM379 794q-2 -2 -4 -2q-27 0 -237 171q-63 49 -58 109q-5 56 58 106q231 187 241 170q8 -17 -50 -114
q-63 -106 -124 -162q61 -60 124 -166q58 -99 50 -112z" />
    <glyph glyph-name="Ydieresis" unicode="&#xf4;" horiz-adv-x="1195" 
d="M1259 1409l-543 -832v-577h-186v577l-549 832h224l332 -526q59 -93 92 -153q35 66 87 148l330 531h213zM919 1675q0 -42 -29.5 -71.5t-71.5 -29.5t-71.5 29.5t-29.5 71.5q0 41 29 71t70 30q43 0 73 -29t30 -72zM555 1676q0 -42 -29.5 -71.5t-71.5 -29.5t-71 29.5
t-29 71.5q0 41 29 70.5t70 29.5q43 0 72.5 -28.5t29.5 -71.5z" />
    <glyph glyph-name="agrave" unicode="&#xf6;" horiz-adv-x="960" 
d="M1032 135v-131q-59 -21 -118 -21q-79 0 -119 55q-26 36 -27 97q-143 -165 -370 -165q-144 0 -229 70q-98 81 -98 221q0 201 192 278q57 23 144 37q12 1 170 21q127 15 158 59q21 29 21 77q0 178 -229 178q-143 0 -205 -73q-36 -43 -46 -136h-164q3 156 109 251
q110 99 319 99q215 0 318 -101q50 -48 64 -134q3 -17 3 -118v-510q0 -65 62 -65q21 0 45 11zM760 514q-37 -25 -86 -36q-38 -9 -140 -21q-147 -17 -204 -45q-86 -42 -86 -137q0 -74 55 -122q50 -44 147 -44q125 0 221 72q70 53 86 114q7 27 7 83v136zM437 1444h208l146 -282
h-117z" />
    <glyph glyph-name="_214" unicode="&#xf7;" horiz-adv-x="1126" 
d="M564 1137q49 0 83 -38q30 -33 30 -77q0 -51 -38 -85q-33 -30 -77 -30q-51 0 -85 38q-30 33 -30 78q0 50 38 84q33 30 79 30zM564 475q49 0 84 -38q30 -33 30 -77q0 -52 -38 -86q-33 -30 -77 -30q-52 0 -86 38q-30 33 -30 78q0 50 38 85q33 30 79 30zM105 758h916v-134
h-916v134z" />
    <glyph glyph-name="perthousand" unicode="&#x160;" horiz-adv-x="2048" 
d="M1 1119q0 186 81 279t209 93q127 0 207.5 -92t80.5 -282q0 -207 -80 -300.5t-210 -93.5q-131 0 -209.5 91t-78.5 305zM196 1107q0 -105 15 -158q11 -38 31.5 -54t45.5 -16q26 0 46 16t32 54q15 53 15 158t-15 158q-12 38 -32 54t-46 16q-25 0 -45 -16t-32 -54
q-15 -53 -15 -158zM280 -52l613 1543h196l-612 -1543h-197zM799 338q0 186 81 279t209 93q127 0 207 -92t80 -281q0 -208 -79.5 -302t-209.5 -94q-132 0 -210 91.5t-78 305.5zM993 326q0 -105 16 -158q11 -38 31.5 -54t45.5 -16t45.5 15.5t31.5 54.5q16 53 16 158
q0 104 -16 158q-11 38 -31.5 54t-45.5 16t-45.5 -16t-31.5 -55q-16 -52 -16 -157zM1469 338q0 186 81 279t209 93q127 0 207.5 -92t80.5 -281q0 -208 -80 -302t-210 -94q-131 0 -209.5 91.5t-78.5 305.5zM1664 326q-1 -101 3 -123q9 -55 33 -80.5t55 -25.5q25 0 46 16.5
t33 53.5q15 54 15 159q0 104 -15 158q-12 38 -32 54t-45 16q-26 0 -46 -16t-32 -55q-15 -52 -15 -157z" />
    <glyph glyph-name="circumflex" unicode="&#x161;" horiz-adv-x="683" 
d="M620 1234h-66l-214 126l-211 -126h-68l279 242z" />
    <glyph glyph-name="cedilla.001" unicode="&#x178;" horiz-adv-x="683" 
d="M543 -91q0 -66 -60 -106q-53 -36 -122 -36q-56 0 -144 25v55q81 -29 128 -29q86 0 86 72q0 78 -99 78h-54v184h54v-135q25 2 37 2q174 0 174 -110z" />
    <glyph glyph-name="ellipsis" unicode="&#x192;" horiz-adv-x="2048" 
d="M1827 219q0 -49 -35.5 -84t-84.5 -35q-50 0 -85.5 34.5t-35.5 84.5q0 48 35 83t83 35q51 0 87 -33.5t36 -84.5zM1144 219q0 -49 -35.5 -84t-84.5 -35q-50 0 -85 34.5t-35 84.5q0 49 34.5 83.5t83.5 34.5q50 0 86 -34t36 -84zM462 219q0 -50 -35.5 -84.5t-85.5 -34.5
q-49 0 -84.5 35t-35.5 84q0 48 35 83t83 35q51 0 87 -33.5t36 -84.5z" />
    <glyph glyph-name="daggerdbl" unicode="&#x2c6;" horiz-adv-x="896" 
d="M817 -21h-49q-6 51 -100 90l-190 54l49 -251q16 -82 26 -102q24 -49 82 -50v-46h-369v46q56 1 81 51q14 26 27 101l46 257l-196 -62q-84 -19 -90 -88h-51v346h51q7 -46 54 -72q19 -11 89 -32l143 -44q-20 150 -98 410q47 137 98 399l-170 -48q-119 -34 -123 -94h-44v341
h44q10 -43 41 -64q9 -5 74 -31l178 -49l-55 281q-12 61 -26 85q-23 38 -73 41v45h363v-45q-64 -2 -91 -71q-8 -20 -28 -125l-40 -211l105 27q92 24 115 34q68 30 71 83h56v-341h-56q-5 32 -27 53q-19 17 -99 41l-157 48q46 -250 97 -399q-64 -209 -97 -410l157 50l13 6
l36 12q77 26 84 80h49v-346z" />
    <glyph glyph-name="tilde" unicode="&#x2dc;" horiz-adv-x="682" 
d="M116 1205h-128q-1 23 -1 36q0 105 51 161.5t131 56.5q35 0 65 -7.5t109.5 -43t124.5 -35.5q32 0 53.5 20t27.5 67h130q-1 -135 -50.5 -193t-127.5 -58q-34 0 -67 7q-23 6 -115 41t-134 35q-32 0 -50 -19.5t-19 -67.5z" />
    <glyph glyph-name="arabiccomma" unicode="&#x60c;" horiz-adv-x="456" 
d="M331 373l10 -59q-88 -5 -131 -60q-20 -25 -20 -54q0 -20 21 -20q23 2 38 3q102 0 102 -90q0 -46 -31 -70q-31 -23 -66 -23q-70 0 -109.5 44t-39.5 114q0 98 64.5 157t161.5 58z" />
    <glyph glyph-name="arabicsemicolon" unicode="&#x61b;" horiz-adv-x="456" 
d="M341 968q-88 -5 -131 -60q-20 -25 -20 -54q0 -20 21 -20q23 2 38 3q102 0 102 -90q0 -46 -31 -70q-31 -23 -66 -23q-70 0 -109.5 44t-39.5 114q0 98 64.5 157t161.5 58zM305 96q0 20 -7.5 37.5t-20.5 31t-30.5 21t-37.5 7.5t-37.5 -7.5t-31 -21t-21 -31t-7.5 -37.5
t7.5 -37.5t21 -30.5t31 -20.5t37.5 -7.5q40 0 68 28t28 68z" />
    <glyph glyph-name="arabicquestionmark" unicode="&#x61f;" horiz-adv-x="1089" 
d="M797 826q-5 78 -15.5 133.5t-29.5 87.5q-66 117 -218 117q-115 0 -178 -66q-54 -59 -54 -146q0 -108 108 -214v1l104 -104q32 -35 56 -70t36 -67v1q7 -18 12.5 -33.5t9 -37t5.5 -52t2 -78.5h-188q0 45 -2.5 72t-6.5 45t-9.5 29.5t-12.5 24.5v-1q-8 14 -27.5 35.5
t-49.5 50.5q-58 56 -96 95t-56 63v-1q-82 106 -82 249q0 161 108 268q119 116 319 116q104 0 190 -36q62 -26 110 -68t82 -95q32 -52 50 -132.5t20 -186.5h-187zM645 105q0 -44 -30 -74t-74 -30t-74 30t-30 74q0 45 30 74t74 29t74 -29t30 -74z" />
    <glyph glyph-name="hamza" unicode="&#x621;" horiz-adv-x="1147" 
d="M869 716h-197q-59 -4 -103.5 -26t-73.5 -55t-43.5 -74t-14.5 -84q0 -53 12.5 -104.5t34 -92t50.5 -66t63 -25.5h445v-189h-937v189h218q-36 64 -56 138t-20 150q0 81 23 157t73 135.5t130 96.5t194 39h202v-189z" />
    <glyph glyph-name="alefwithmaddaabove" unicode="&#x622;" horiz-adv-x="399" 
d="M294 1345v-1345h-189v1345h189zM383 1522q-26 -42 -54 -60.5t-58 -18.5q-24 0 -43 6.5t-34.5 14.5t-30 14.5t-30 6t-32.5 -11t-39 -35.5l-50 69q21 23 37 38t29 23.5t25 12t26 3.5q30 0 54 -13t47.5 -21.5t48 -2.5t54.5 44z" />
    <glyph glyph-name="alefwithhamzaabove" unicode="&#x623;" horiz-adv-x="399" 
d="M294 1345v-1345h-189v1345h189zM313 1682h-80h1q-34 -1 -49.5 -20.5t-15.5 -42.5q0 -15 3 -29t8 -25.5t12.5 -18.5t15.5 -7h142v-94h-308v94h49q-16 40 -16 80q0 30 8.5 58t27 50t48.5 35.5t73 14.5h81v-95z" />
    <glyph glyph-name="wawwithhamzaabove" unicode="&#x624;" horiz-adv-x="1087" 
d="M246 -187h298q43 0 82.5 14t71 39t54 59t32.5 75h-371q-63 0 -119 24t-98 65.5t-66.5 97.5t-24.5 120v214q0 93 34.5 174.5t93.5 142t139 96t170 35.5q61 0 117 -16.5t104.5 -46t89 -70.5t69 -90t44 -105t15.5 -115v-465q0 -90 -34.5 -170t-93.5 -139t-139 -93.5
t-170 -34.5h-298v189zM791 189v337q0 51 -19.5 97t-53.5 80.5t-79.5 55t-96.5 20.5t-96 -20t-78.5 -55t-53 -82t-19.5 -101v-214q0 -24 9.5 -45.5t25.5 -37.5t37.5 -25.5t45.5 -9.5h378zM626 1355h-80h1q-34 -1 -49.5 -20.5t-15.5 -42.5q0 -15 3 -29t8 -25.5t12.5 -18.5
t15.5 -7h142v-94h-308v94h49q-16 40 -16 80q0 30 8.5 58t27 50t48.5 35.5t73 14.5h81v-95z" />
    <glyph glyph-name="alefwithhamzabelow" unicode="&#x625;" horiz-adv-x="399" 
d="M294 1345v-1345h-189v1345h189zM313 -195h-80h1q-34 -1 -49.5 -20.5t-15.5 -42.5q0 -15 3 -29t8 -25.5t12.5 -18.5t15.5 -7h142v-94h-308v94h49q-16 40 -16 80q0 30 8.5 58t27 50t48.5 35.5t73 14.5h81v-95z" />
    <glyph glyph-name="yehwithhamzaabove" unicode="&#x626;" horiz-adv-x="1267" 
d="M1105 779h-246q-25 0 -47.5 -9.5t-39 -26t-26 -39t-9.5 -48.5v-246h118q76 0 133.5 -24.5t96 -69t58 -107t19.5 -138.5q0 -111 -43 -195t-113 -140t-159.5 -84t-182.5 -28t-182 28t-159 83.5t-112.5 139t-42.5 194.5v723h189v-723q0 -64 26.5 -112t69.5 -80t98 -48
t113 -16t113.5 16.5t99 49t70 80.5t26.5 112q0 66 -29.5 108t-88.5 42h-308v435q0 65 24.5 122t67 99.5t99 67t121.5 24.5h246v-190zM376 1129h-80h1q-34 -1 -49.5 -20.5t-15.5 -42.5q0 -15 3 -29t8 -25.5t12.5 -18.5t15.5 -7h142v-94h-308v94h49q-16 40 -16 80q0 30 8.5 58
t27 50t48.5 35.5t73 14.5h81v-95z" />
    <glyph glyph-name="arabicalef" unicode="&#x627;" horiz-adv-x="399" 
d="M294 1345v-1345h-189v1345h189z" />
    <glyph glyph-name="beh" unicode="&#x628;" horiz-adv-x="1423" 
d="M1318 969v-658q0 -65 -24 -121.5t-66 -98.5t-98.5 -66.5t-120.5 -24.5h-463q-92 0 -172 34.5t-140 94t-94.5 139.5t-34.5 171v353h190v-353q0 -52 19.5 -97.5t53.5 -79.5t79.5 -53.5t98.5 -19.5h463q25 0 47 9.5t38 26t25.5 38.5t9.5 48v658h189zM616 -278q0 40 28 68
t68 28q20 0 37.5 -7.5t31 -20.5t21 -30.5t7.5 -37.5t-7.5 -37.5t-21 -31t-31 -21t-37.5 -7.5t-37.5 7.5t-30.5 21t-20.5 31t-7.5 37.5z" />
    <glyph glyph-name="tehmarbuta" unicode="&#x629;" horiz-adv-x="1078" 
d="M295 309q0 -54 35 -87t86 -33h244q52 0 87.5 34t35.5 90v217q0 51 -19 96t-52.5 79t-78 54t-95.5 20q-50 0 -94.5 -20t-77.5 -54t-52 -80.5t-19 -98.5v-217zM105 526q0 91 34 172t93 141t138 95t168 35q90 0 169 -35.5t138 -95.5t93 -139.5t34 -168.5v-217
q0 -71 -24.5 -128.5t-66.5 -98.5t-99 -63.5t-122 -22.5h-244q-66 0 -123 22t-98.5 62.5t-65.5 97.5t-24 127v217zM583 1248q0 20 7.5 37.5t21 31t31 21t37.5 7.5t37.5 -7.5t30.5 -21t20.5 -31t7.5 -37.5q0 -40 -28 -68t-68 -28q-20 0 -37.5 7.5t-31 20.5t-21 30.5t-7.5 37.5
zM300 1248q0 20 7.5 37.5t21 31t31 21t37.5 7.5t37.5 -7.5t31 -21t21 -31t7.5 -37.5t-7.5 -37.5t-21 -30.5t-31 -20.5t-37.5 -7.5t-37.5 7.5t-31 20.5t-21 30.5t-7.5 37.5z" />
    <glyph glyph-name="teh" unicode="&#x62a;" horiz-adv-x="1423" 
d="M1318 969v-658q0 -65 -24 -121.5t-66 -98.5t-98.5 -66.5t-120.5 -24.5h-463q-92 0 -172 34.5t-140 94t-94.5 139.5t-34.5 171v353h190v-353q0 -52 19.5 -97.5t53.5 -79.5t79.5 -53.5t98.5 -19.5h463q25 0 47 9.5t38 26t25.5 38.5t9.5 48v658h189zM757 1248q0 20 7.5 37.5
t21 31t31 21t37.5 7.5t37.5 -7.5t30.5 -21t20.5 -31t7.5 -37.5q0 -40 -28 -68t-68 -28q-20 0 -37.5 7.5t-31 20.5t-21 30.5t-7.5 37.5zM474 1248q0 20 7.5 37.5t21 31t31 21t37.5 7.5t37.5 -7.5t31 -21t21 -31t7.5 -37.5t-7.5 -37.5t-21 -30.5t-31 -20.5t-37.5 -7.5
t-37.5 7.5t-31 20.5t-21 30.5t-7.5 37.5z" />
    <glyph glyph-name="theh" unicode="&#x62b;" horiz-adv-x="1423" 
d="M1318 969v-658q0 -65 -24 -121.5t-66 -98.5t-98.5 -66.5t-120.5 -24.5h-463q-92 0 -172 34.5t-140 94t-94.5 139.5t-34.5 171v353h190v-353q0 -52 19.5 -97.5t53.5 -79.5t79.5 -53.5t98.5 -19.5h463q25 0 47 9.5t38 26t25.5 38.5t9.5 48v658h189zM616 1453q0 20 7.5 37.5
t20.5 31t30.5 21t37.5 7.5t37.5 -7.5t31 -21t21 -31t7.5 -37.5t-7.5 -37.5t-21 -31t-31 -21t-37.5 -7.5t-37.5 7.5t-30.5 21t-20.5 31t-7.5 37.5zM757 1248q0 20 7.5 37.5t21 31t31 21t37.5 7.5t37.5 -7.5t30.5 -21t20.5 -31t7.5 -37.5q0 -40 -28 -68t-68 -28
q-20 0 -37.5 7.5t-31 20.5t-21 30.5t-7.5 37.5zM474 1248q0 20 7.5 37.5t21 31t31 21t37.5 7.5t37.5 -7.5t31 -21t21 -31t7.5 -37.5t-7.5 -37.5t-21 -30.5t-31 -20.5t-37.5 -7.5t-37.5 7.5t-31 20.5t-21 30.5t-7.5 37.5z" />
    <glyph glyph-name="jeem" unicode="&#x62c;" horiz-adv-x="1065" 
d="M129 875q27 13 71 29.5t97 31.5t111.5 25t114.5 10q82 0 160.5 -20t140 -71t99 -138.5t37.5 -222.5v-212q0 -63 -24.5 -119t-66.5 -98t-99 -66t-121 -24h-274q-20 0 -35 -8t-25 -20.5t-15 -29t-5 -34.5q0 -17 5 -34t15 -30.5t25 -21.5t35 -8h265v-189h-265
q-68 0 -118.5 24.5t-84 64t-50.5 90.5t-17 104t17 103.5t50.5 90t84 63.5t118.5 24h274q25 0 47.5 9.5t39 25.5t26 37.5t9.5 45.5v212q0 78 -21.5 128.5t-56 80t-79.5 41.5t-91 12q-44 0 -90.5 -8t-88.5 -19.5t-77 -25t-57 -23.5zM767 -278q0 20 7.5 37.5t21 30.5t31 20.5
t37.5 7.5q40 0 68 -28t28 -68q0 -20 -7.5 -37.5t-20.5 -31t-30.5 -21t-37.5 -7.5t-37.5 7.5t-31 21t-21 31t-7.5 37.5z" />
    <glyph glyph-name="hah" unicode="&#x62d;" horiz-adv-x="1065" 
d="M129 875q27 13 71 29.5t97 31.5t111.5 25t114.5 10q82 0 160.5 -20t140 -71t99 -138.5t37.5 -222.5v-212q0 -63 -24.5 -119t-66.5 -98t-99 -66t-121 -24h-274q-20 0 -35 -8t-25 -20.5t-15 -29t-5 -34.5q0 -17 5 -34t15 -30.5t25 -21.5t35 -8h396v-189h-396
q-68 0 -118.5 24.5t-84 64t-50.5 90.5t-17 104t17 103.5t50.5 90t84 63.5t118.5 24h274q25 0 47.5 9.5t39 25.5t26 37.5t9.5 45.5v212q0 78 -21.5 128.5t-56 80t-79.5 41.5t-91 12q-44 0 -90.5 -8t-88.5 -19.5t-77 -25t-57 -23.5z" />
    <glyph glyph-name="khah" unicode="&#x62e;" horiz-adv-x="1065" 
d="M129 875q27 13 71 29.5t97 31.5t111.5 25t114.5 10q82 0 160.5 -20t140 -71t99 -138.5t37.5 -222.5v-212q0 -63 -24.5 -119t-66.5 -98t-99 -66t-121 -24h-274q-20 0 -35 -8t-25 -20.5t-15 -29t-5 -34.5q0 -17 5 -34t15 -30.5t25 -21.5t35 -8h397v-189h-397
q-68 0 -118.5 24.5t-84 64t-50.5 90.5t-17 104t17 103.5t50.5 90t84 63.5t118.5 24h274q25 0 47.5 9.5t39 25.5t26 37.5t9.5 45.5v212q0 78 -21.5 128.5t-56 80t-79.5 41.5t-91 12q-44 0 -90.5 -8t-88.5 -19.5t-77 -25t-57 -23.5zM427 1248q0 20 7.5 37.5t21 31t31 21
t37.5 7.5t37.5 -7.5t30.5 -21t20.5 -31t7.5 -37.5q0 -40 -28 -68t-68 -28q-20 0 -37.5 7.5t-31 20.5t-21 30.5t-7.5 37.5z" />
    <glyph glyph-name="dal" unicode="&#x62f;" horiz-adv-x="913" 
d="M159 970q173 0 296 -29.5t201.5 -87t115 -141.5t36.5 -193v-212q0 -64 -24.5 -120t-67 -97.5t-99.5 -65.5t-122 -24h-390v189h390q25 0 47.5 9.5t39.5 25.5t26.5 37.5t9.5 45.5v212q0 63 -25.5 111.5t-81 82t-142.5 50.5t-210 17v190z" />
    <glyph glyph-name="thal" unicode="&#x630;" horiz-adv-x="913" 
d="M159 970q173 0 296 -29.5t201.5 -87t115 -141.5t36.5 -193v-212q0 -64 -24.5 -120t-67 -97.5t-99.5 -65.5t-122 -24h-390v189h390q25 0 47.5 9.5t39.5 25.5t26.5 37.5t9.5 45.5v212q0 63 -25.5 111.5t-81 82t-142.5 50.5t-210 17v190zM392 1248q0 20 7.5 37.5t21 31
t31 21t37.5 7.5t37.5 -7.5t30.5 -21t20.5 -31t7.5 -37.5q0 -40 -28 -68t-68 -28q-20 0 -37.5 7.5t-31 20.5t-21 30.5t-7.5 37.5z" />
    <glyph glyph-name="reh" unicode="&#x631;" horiz-adv-x="568" 
d="M462 969v-864q-1 -93 -40 -183q-17 -38 -43.5 -79.5t-67 -82t-95.5 -78.5t-129 -69l-73 175q51 21 88.5 45.5t65.5 50.5t46 51.5t30 49.5q27 55 28 112v872h190z" />
    <glyph glyph-name="zain" unicode="&#x632;" horiz-adv-x="568" 
d="M268 1248q0 20 7.5 37.5t21 31t31 21t37.5 7.5t37.5 -7.5t31 -21t21 -31t7.5 -37.5t-7.5 -37.5t-21 -30.5t-31 -20.5t-37.5 -7.5t-37.5 7.5t-31 20.5t-21 30.5t-7.5 37.5zM462 969v-864q-1 -93 -40 -183q-17 -38 -43.5 -79.5t-67 -82t-95.5 -78.5t-129 -69l-73 175
q51 21 88.5 45.5t65.5 50.5t46 51.5t30 49.5q27 55 28 112v872h190z" />
    <glyph glyph-name="seen" unicode="&#x633;" horiz-adv-x="2068" 
d="M1532 969v-780h119q25 0 47.5 9.5t39.5 25t26.5 37t9.5 45.5v663h189v-663q0 -63 -24.5 -119t-67 -97.5t-99.5 -65.5t-121 -24h-557q-12 -93 -58.5 -163.5t-114 -117.5t-150.5 -70.5t-169 -23.5q-93 0 -182.5 27t-159 82t-112.5 136.5t-43 191.5v730h190v-730
q0 -62 26.5 -108.5t69.5 -77.5t98.5 -46.5t112.5 -15.5q58 0 113 15.5t98 46.5t69.5 77.5t26.5 108.5v907h191v-780h242v780h190z" />
    <glyph glyph-name="sheen" unicode="&#x634;" horiz-adv-x="2068" 
d="M1532 969v-780h119q25 0 47.5 9.5t39.5 25t26.5 37t9.5 45.5v663h189v-663q0 -63 -24.5 -119t-67 -97.5t-99.5 -65.5t-121 -24h-557q-12 -93 -58.5 -163.5t-114 -117.5t-150.5 -70.5t-169 -23.5q-93 0 -182.5 27t-159 82t-112.5 136.5t-43 191.5v730h190v-730
q0 -62 26.5 -108.5t69.5 -77.5t98.5 -46.5t112.5 -15.5q58 0 113 15.5t98 46.5t69.5 77.5t26.5 108.5v907h191v-780h242v780h190zM1344 1453q0 20 7.5 37.5t20.5 31t30.5 21t37.5 7.5t37.5 -7.5t31 -21t21 -31t7.5 -37.5t-7.5 -37.5t-21 -31t-31 -21t-37.5 -7.5t-37.5 7.5
t-30.5 21t-20.5 31t-7.5 37.5zM1485 1248q0 20 7.5 37.5t21 31t31 21t37.5 7.5t37.5 -7.5t30.5 -21t20.5 -31t7.5 -37.5q0 -40 -28 -68t-68 -28q-20 0 -37.5 7.5t-31 20.5t-21 30.5t-7.5 37.5zM1202 1248q0 20 7.5 37.5t21 31t31 21t37.5 7.5t37.5 -7.5t31 -21t21 -31
t7.5 -37.5t-7.5 -37.5t-21 -30.5t-31 -20.5t-37.5 -7.5t-37.5 7.5t-31 20.5t-21 30.5t-7.5 37.5z" />
    <glyph glyph-name="sad" unicode="&#x635;" horiz-adv-x="2068" 
d="M1100 969v-170q48 37 103 68.5t113.5 54t119 35t117.5 12.5q84 0 158.5 -24t130.5 -77.5t88.5 -139.5t32.5 -210v-212q0 -63 -24.5 -119t-67.5 -97.5t-100 -65.5t-121 -24h-555q-12 -93 -58.5 -163.5t-114 -117.5t-151 -70.5t-169.5 -23.5q-93 0 -182.5 27t-159.5 82
t-112.5 136.5t-42.5 191.5v730h190v-730q0 -62 26.5 -108.5t69.5 -77.5t98 -46.5t113 -15.5t113 15.5t98.5 46.5t70 77.5t26.5 108.5v907h190zM1100 189h550q25 0 47.5 9.5t39.5 25t26.5 37t9.5 45.5v212q0 72 -17.5 121.5t-47.5 80.5t-70 45t-85 14q-51 0 -104 -12
t-103.5 -32.5t-95 -49t-78 -61.5t-53 -69t-19.5 -72v-294z" />
    <glyph glyph-name="dad" unicode="&#x636;" horiz-adv-x="2068" 
d="M1100 969v-170q48 37 103 68.5t113.5 54t119 35t117.5 12.5q84 0 158.5 -24t130.5 -77.5t88.5 -139.5t32.5 -210v-212q0 -63 -24.5 -119t-67.5 -97.5t-100 -65.5t-121 -24h-555q-12 -93 -58.5 -163.5t-114 -117.5t-151 -70.5t-169.5 -23.5q-93 0 -182.5 27t-159.5 82
t-112.5 136.5t-42.5 191.5v730h190v-730q0 -62 26.5 -108.5t69.5 -77.5t98 -46.5t113 -15.5t113 15.5t98.5 46.5t70 77.5t26.5 108.5v907h190zM1100 189h550q25 0 47.5 9.5t39.5 25t26.5 37t9.5 45.5v212q0 72 -17.5 121.5t-47.5 80.5t-70 45t-85 14q-51 0 -104 -12
t-103.5 -32.5t-95 -49t-78 -61.5t-53 -69t-19.5 -72v-294zM1339 1248q0 20 7.5 37.5t21 31t31 21t37.5 7.5t37.5 -7.5t31 -21t21 -31t7.5 -37.5t-7.5 -37.5t-21 -30.5t-31 -20.5t-37.5 -7.5t-37.5 7.5t-31 20.5t-21 30.5t-7.5 37.5z" />
    <glyph glyph-name="tah" unicode="&#x637;" horiz-adv-x="1415" 
d="M446 1345v-545q48 38 103 69t113.5 53.5t119 35t118.5 12.5q83 0 157.5 -24t130.5 -78t89 -140t33 -210v-211q0 -64 -24.5 -120t-67.5 -97.5t-100 -65.5t-121 -24h-892v189h152v1156h189zM900 780q-51 0 -104.5 -12t-104 -32.5t-95 -49t-78 -61.5t-53 -69t-19.5 -72v-295
h551q25 0 47.5 9.5t39.5 25.5t26.5 37.5t9.5 45.5v211q0 72 -17.5 121.5t-47.5 81t-70 45.5t-85 14z" />
    <glyph glyph-name="zah" unicode="&#x638;" horiz-adv-x="1415" 
d="M446 1345v-545q48 38 103 69t113.5 53.5t119 35t118.5 12.5q83 0 157.5 -24t130.5 -78t89 -140t33 -210v-211q0 -64 -24.5 -120t-67.5 -97.5t-100 -65.5t-121 -24h-892v189h152v1156h189zM900 780q-51 0 -104.5 -12t-104 -32.5t-95 -49t-78 -61.5t-53 -69t-19.5 -72v-295
h551q25 0 47.5 9.5t39.5 25.5t26.5 37.5t9.5 45.5v211q0 72 -17.5 121.5t-47.5 81t-70 45.5t-85 14zM687 1248q0 20 7.5 37.5t20.5 31t30.5 21t37.5 7.5t37.5 -7.5t31 -21t21 -31t7.5 -37.5t-7.5 -37.5t-21 -30.5t-31 -20.5t-37.5 -7.5q-40 0 -68 28t-28 68z" />
    <glyph glyph-name="ain" unicode="&#x639;" horiz-adv-x="1207" 
d="M1102 0h-727q-20 0 -35 -8t-25 -20.5t-15 -29t-5 -34.5q0 -17 5 -34t15 -30.5t25 -21.5t35 -8h545v-189h-545q-68 0 -118.5 24.5t-84 64t-50.5 90.5t-17 104q0 49 14.5 96.5t44.5 86t76 64.5t109 33v345q0 92 34 171.5t92.5 138t137.5 91.5t168 33q98 2 217 -54l-78 -172
q-41 18 -75.5 28t-63.5 9q-50 0 -94.5 -18.5t-77.5 -51.5t-52 -78t-19 -97v-344h564v-189z" />
    <glyph glyph-name="ghain" unicode="&#x63a;" horiz-adv-x="1207" 
d="M685 1248q0 20 7.5 37.5t20.5 31t30.5 21t37.5 7.5t37.5 -7.5t31 -21t21 -31t7.5 -37.5t-7.5 -37.5t-21 -30.5t-31 -20.5t-37.5 -7.5q-40 0 -68 28t-28 68zM1102 0h-727q-20 0 -35 -8t-25 -20.5t-15 -29t-5 -34.5q0 -17 5 -34t15 -30.5t25 -21.5t35 -8h545v-189h-545
q-68 0 -118.5 24.5t-84 64t-50.5 90.5t-17 104q0 49 14.5 96.5t44.5 86t76 64.5t109 33v345q0 92 34 171.5t92.5 138t137.5 91.5t168 33q98 2 217 -54l-78 -172q-41 18 -75.5 28t-63.5 9q-50 0 -94.5 -18.5t-77.5 -51.5t-52 -78t-19 -97v-344h564v-189z" />
    <glyph glyph-name="tatweel" unicode="&#x640;" horiz-adv-x="345" 
d="M-42 189h429v-189h-429v189z" />
    <glyph glyph-name="feh" unicode="&#x641;" horiz-adv-x="1874" 
d="M295 443q0 -53 20 -99t54.5 -80.5t80.5 -54.5t99 -20h352v347q0 93 34 172t93 137.5t137.5 91.5t168.5 33t169 -33.5t138 -91.5t93 -136t34 -167v-229q0 -71 -24.5 -128.5t-67 -98.5t-99.5 -63.5t-122 -22.5h-906q-92 0 -173 35t-141 95t-95 140.5t-35 172.5v349h190
v-349zM1091 189h364q52 0 87.5 33.5t35.5 90.5v229q0 50 -19 93.5t-52.5 75.5t-78 50.5t-94.5 18.5q-51 0 -95 -18.5t-77 -51.5t-52 -77.5t-19 -96.5v-347zM1237 1248q0 20 7.5 37.5t21 31t31 21t37.5 7.5t37.5 -7.5t31 -21t21 -31t7.5 -37.5t-7.5 -37.5t-21 -30.5
t-31 -20.5t-37.5 -7.5t-37.5 7.5t-31 20.5t-21 30.5t-7.5 37.5z" />
    <glyph glyph-name="qaf" unicode="&#x642;" horiz-adv-x="1428" 
d="M295 791v-718q0 -54 20 -101t55.5 -82t82.5 -55.5t101 -20.5h332q43 0 82 14t70.5 39t54 59t32.5 74h-370q-64 0 -120 24t-98 66t-66 98t-24 120v213q0 93 34 174.5t93.5 142t139 96t170.5 35.5q90 0 170 -35.5t139.5 -96.5t94 -141t34.5 -170v-464q0 -90 -34.5 -170
t-93.5 -139t-138.5 -93.5t-169.5 -34.5h-332q-93 0 -175 35.5t-142.5 96t-96 142t-35.5 174.5v718h190zM1133 189v337q0 51 -19.5 97t-53.5 80.5t-79.5 55t-96.5 20.5q-52 0 -97 -20t-78.5 -55t-52.5 -82t-19 -101v-213q0 -25 9.5 -46.5t25.5 -37.5t37.5 -25.5t45.5 -9.5
h378zM927 1248q0 20 7.5 37.5t21 31t31 21t37.5 7.5t37.5 -7.5t30.5 -21t20.5 -31t7.5 -37.5q0 -40 -28 -68t-68 -28q-20 0 -37.5 7.5t-31 20.5t-21 30.5t-7.5 37.5zM644 1248q0 20 7.5 37.5t21 31t31 21t37.5 7.5t37.5 -7.5t31 -21t21 -31t7.5 -37.5t-7.5 -37.5t-21 -30.5
t-31 -20.5t-37.5 -7.5t-37.5 7.5t-31 20.5t-21 30.5t-7.5 37.5z" />
    <glyph glyph-name="arabickaf" unicode="&#x643;" horiz-adv-x="1424" 
d="M1319 1345v-1034q0 -65 -24.5 -121.5t-66.5 -98.5t-98.5 -66.5t-120.5 -24.5h-464q-91 0 -171 34.5t-140 94t-94.5 139.5t-34.5 171v353h190v-353q0 -52 19.5 -97.5t53.5 -79.5t79.5 -53.5t97.5 -19.5h464q25 0 47 9.5t38.5 26t26 38.5t9.5 48v1034h189zM821 1180h-80h1
q-34 -1 -49.5 -20.5t-15.5 -42.5q0 -15 3 -29t8 -25.5t12.5 -18.5t15.5 -7h142v-94h-308v94h49q-16 40 -16 80q0 30 8.5 58t27 50t48.5 35.5t73 14.5h81v-95z" />
    <glyph glyph-name="lam" unicode="&#x644;" horiz-adv-x="1205" 
d="M1100 1345v-1280q0 -111 -43 -193.5t-113 -138t-159.5 -83t-182.5 -27.5t-182.5 27.5t-159.5 83t-112.5 138t-42.5 193.5v727h190v-727q0 -63 26.5 -110.5t69.5 -79t98 -47.5t113 -16t113 16t98.5 47.5t70 79t26.5 110.5v1280h190z" />
    <glyph glyph-name="meem" unicode="&#x645;" horiz-adv-x="1430" 
d="M892 969q90 0 168.5 -35t137.5 -95t93 -140.5t34 -171.5v-216q0 -92 -34 -173t-93 -141t-137.5 -95t-168.5 -35q-89 0 -168 36t-138 96.5t-93 140.5t-34 169v19q-46 -5 -77 -20.5t-50.5 -39t-28 -53t-8.5 -62.5v-528h-190v528q0 72 19.5 136.5t62 113.5t109.5 79.5
t163 35.5v9q0 88 34 168t93 141t138 97t168 36zM1136 527q0 52 -19 98t-52 80t-77.5 54t-95.5 20q-50 0 -94.5 -20.5t-78 -55t-52.5 -80t-19 -96.5v-218q0 -51 19 -97t52.5 -80.5t78 -54.5t94.5 -20q51 0 95.5 20t77.5 54.5t52 80.5t19 99v216z" />
    <glyph glyph-name="noon" unicode="&#x646;" horiz-adv-x="1205" 
d="M1100 969v-902q0 -111 -43 -194t-113 -138.5t-159.5 -83t-182.5 -27.5t-182.5 27.5t-159.5 83t-112.5 138.5t-42.5 194v725h190v-725q0 -63 26.5 -110.5t69.5 -79.5t98 -48t113 -16t113 16t98.5 48t70 79.5t26.5 110.5v902h190zM506 1248q0 20 7.5 37.5t20.5 31t30.5 21
t37.5 7.5t37.5 -7.5t31 -21t21 -31t7.5 -37.5t-7.5 -37.5t-21 -30.5t-31 -20.5t-37.5 -7.5q-40 0 -68 28t-28 68z" />
    <glyph glyph-name="heh" unicode="&#x647;" horiz-adv-x="1078" 
d="M295 309q0 -54 35 -87t86 -33h244q52 0 87.5 34t35.5 90v217q0 51 -19 96t-52.5 79t-78 54t-95.5 20q-50 0 -94.5 -20t-77.5 -54t-52 -80.5t-19 -98.5v-217zM105 526q0 91 34 172t93 141t138 95t168 35q90 0 169 -35.5t138 -95.5t93 -139.5t34 -168.5v-217
q0 -71 -24.5 -128.5t-66.5 -98.5t-99 -63.5t-122 -22.5h-244q-66 0 -123 22t-98.5 62.5t-65.5 97.5t-24 127v217z" />
    <glyph glyph-name="waw" unicode="&#x648;" horiz-adv-x="1087" 
d="M246 -187h298q43 0 82.5 14t71 39t54 59t32.5 75h-371q-63 0 -119 24t-98 65.5t-66.5 97.5t-24.5 120v214q0 93 34.5 174.5t93.5 142t139 96t170 35.5q61 0 117 -16.5t104.5 -46t89 -70.5t69 -90t44 -105t15.5 -115v-465q0 -90 -34.5 -170t-93.5 -139t-139 -93.5
t-170 -34.5h-298v189zM791 189v337q0 51 -19.5 97t-53.5 80.5t-79.5 55t-96.5 20.5t-96 -20t-78.5 -55t-53 -82t-19.5 -101v-214q0 -24 9.5 -45.5t25.5 -37.5t37.5 -25.5t45.5 -9.5h378z" />
    <glyph glyph-name="alefmaksura" unicode="&#x649;" horiz-adv-x="1205" 
d="M1043 779h-246q-26 0 -48 -9.5t-39 -26t-26.5 -39t-9.5 -48.5v-246h119q76 0 133.5 -24.5t96 -69t58 -107t19.5 -138.5q0 -111 -43 -195t-113 -140t-159.5 -84t-183.5 -28q-93 0 -182 28t-159 83.5t-112.5 139t-42.5 194.5v723h190v-723q0 -64 26.5 -112t69.5 -80t98 -48
t112 -16q58 0 113.5 16.5t99 49t70 80.5t26.5 112q0 66 -29.5 108t-87.5 42h-308v435q0 65 24.5 122t67 99.5t99 67t121.5 24.5h246v-190z" />
    <glyph glyph-name="yeh" unicode="&#x64a;" horiz-adv-x="1205" 
d="M1043 779h-246q-26 0 -48 -9.5t-39 -26t-26.5 -39t-9.5 -48.5v-246h119q76 0 133.5 -24.5t96 -69t58 -107t19.5 -138.5q0 -111 -43 -195t-113 -140t-159.5 -84t-183.5 -28q-93 0 -182 28t-159 83.5t-112.5 139t-42.5 194.5v723h190v-723q0 -64 26.5 -112t69.5 -80t98 -48
t112 -16q58 0 113.5 16.5t99 49t70 80.5t26.5 112q0 66 -29.5 108t-87.5 42h-308v435q0 65 24.5 122t67 99.5t99 67t121.5 24.5h246v-190zM643 -657q0 20 7.5 37.5t21 31t31 21t37.5 7.5t37.5 -7.5t30.5 -21t20.5 -31t7.5 -37.5q0 -40 -28 -68t-68 -28q-20 0 -37.5 7.5
t-31 20.5t-21 30.5t-7.5 37.5zM360 -657q0 20 7.5 37.5t21 31t31 21t37.5 7.5t37.5 -7.5t31 -21t21 -31t7.5 -37.5t-7.5 -37.5t-21 -30.5t-31 -20.5t-37.5 -7.5t-37.5 7.5t-31 20.5t-21 30.5t-7.5 37.5z" />
    <glyph glyph-name="fathatan" unicode="&#x64b;" horiz-adv-x="0" 
d="M359 1244h-462v72h462v-72zM359 1388h-462v72h462v-72z" />
    <glyph glyph-name="dammatan" unicode="&#x64c;" horiz-adv-x="0" 
d="M84 1286q-9 0 -17 4q-12 5 -17.5 14.5t-11.5 21.5l-27 73l-49 -69l-58 43l68 94q4 6 16.5 18t33.5 9q27 -3 43 -37v-1l36 -92q54 19 97 59q-46 11 -73 47q-17 21 -24 47.5t-4 52.5q5 26 20 47.5t40 34.5q26 13 54 13.5t51 -11.5q53 -28 62 -85q6 -33 -4 -70l18 4t17 4
l18 -70q-21 -5 -42 -9.5t-44 -6.5q-7 -11 -14.5 -20.5t-13.5 -16.5q-61 -65 -150 -93q-5 -2 -11.5 -3.5t-13.5 -1.5zM213 1594q-15 0 -26 -8t-15.5 -20t-3 -26t12.5 -26q11 -15 27.5 -19t33.5 -4q8 17 11 34t1 33q-3 14 -13.5 25t-27.5 11z" />
    <glyph glyph-name="kasratan" unicode="&#x64d;" horiz-adv-x="0" 
d="M378 -1038h-462v72h462v-72zM378 -894h-462v72h462v-72z" />
    <glyph glyph-name="fatha" unicode="&#x64e;" horiz-adv-x="0" 
d="M392 1286h-462v72h462v-72z" />
    <glyph glyph-name="damma" unicode="&#x64f;" horiz-adv-x="0" 
d="M-92 1179l-17 69q38 10 75.5 25t68.5 44q-45 11 -73 47q-17 21 -24 47.5t-3 52.5q5 26 20 47.5t39 34.5q26 13 54 13.5t52 -11.5q53 -28 62 -85q6 -33 -4 -70q9 2 17.5 4t17.5 4l17 -70q-20 -5 -41.5 -9.5t-44.5 -6.5q-7 -11 -14 -20.5t-13 -16.5q-43 -46 -92.5 -67
t-96.5 -32zM51 1488q-15 0 -26 -8t-15.5 -20t-3 -26t11.5 -26q5 -7 15 -13.5t27 -8.5q5 -1 10 -1h10q7 17 10.5 34t0.5 33q-2 14 -13 25t-27 11z" />
    <glyph glyph-name="kasra" unicode="&#x650;" horiz-adv-x="0" 
d="M454 -910h-462v72h462v-72z" />
    <glyph glyph-name="shadda" unicode="&#x651;" horiz-adv-x="0" 
d="M-18 1294q-21 0 -39.5 8t-32.5 22t-22 33t-8 40v126h72v-116q0 -17 12 -29t29 -12h84v157h72v-157h80q17 0 29 12t12 29v116h71v-126q0 -21 -8 -40t-21.5 -33t-32.5 -22t-40 -8h-257z" />
    <glyph glyph-name="sukun" unicode="&#x652;" horiz-adv-x="0" 
d="M48 1285q-33 0 -62 12.5t-50.5 34.5t-34 50.5t-12.5 61.5t12.5 62t34 50.5t50.5 34t62 12.5t61.5 -12.5t50 -34t34 -50.5t12.5 -62t-12.5 -61.5t-34 -50.5t-50 -34.5t-61.5 -12.5zM48 1531q-37 0 -62.5 -25.5t-25.5 -61.5t25.5 -61.5t62.5 -25.5q18 0 33.5 7t27 18.5
t18.5 27.5t7 34t-7 34t-18.5 27.5t-27 18.5t-33.5 7z" />
    <glyph glyph-name="arabicindicdigitzero" unicode="&#x660;" horiz-adv-x="1079" 
d="M539 0q-88 0 -167 32.5t-142 94.5q-60 62 -92.5 140.5t-32.5 166.5v472q0 88 32.5 167.5t92.5 140.5q63 62 142 94.5t167 32.5q87 0 166 -33t140 -95q63 -63 96 -141t33 -166v-472q0 -87 -33 -165.5t-96 -140.5q-62 -63 -140.5 -95.5t-165.5 -32.5zM539 1155
q-51 0 -96.5 -19t-80.5 -54t-54 -80t-19 -96v-472q0 -52 19.5 -97.5t53.5 -79.5t79.5 -53.5t97.5 -19.5q51 0 96.5 19.5t79.5 53.5t53.5 79.5t19.5 97.5v472q0 51 -18.5 96t-53.5 80t-80.5 54t-96.5 19z" />
    <glyph glyph-name="arabicindicdigitone" unicode="&#x661;" horiz-adv-x="705" 
d="M400 1v1130h-295l82 212h255q79 0 120 -60q18 -26 28 -63t10 -79v-1140h-200z" />
    <glyph glyph-name="arabicindicdigittwo" unicode="&#x662;" horiz-adv-x="1123" 
d="M287 0q-80 0 -129 35q-53 38 -53 111q0 27 7.5 47t21 36.5t32 31.5t39.5 31q9 9 20 17l462 360q29 25 54 53t43 57q42 72 42 143q0 52 -18.5 97t-55.5 79q-35 33 -80.5 51t-96.5 18q-59 0 -107 -19t-82 -54.5t-52 -85.5t-18 -111q0 -77 49 -139q17 -20 38 -37.5t46 -30.5
l-158 -113q-84 58 -126.5 144.5t-42.5 198.5q0 48 9.5 91t29.5 84q36 76 102 133q66 56 150.5 85.5t178.5 29.5q86 0 164 -31t138 -89q60 -60 92 -136.5t32 -162.5q0 -78 -20.5 -143t-65.5 -124q-41 -54 -95 -101.5t-121 -100.5l-352 -277h648v-178h-725z" />
    <glyph glyph-name="arabicindicdigitthree" unicode="&#x663;" horiz-adv-x="1082" 
d="M538 0q-82 0 -157 29t-136 84q-57 51 -92.5 117.5t-47.5 141.5h187q12 -41 36 -75.5t56 -59.5t71.5 -39t82.5 -14q53 0 99.5 20t81 54.5t54.5 81.5t20 100q0 67 -20.5 109t-52.5 68.5t-71 41t-75 25.5q-32 10 -56 18.5t-41 20t-25.5 27.5t-8.5 40q0 12 11.5 38t47.5 77
q26 38 57 75.5t59 69.5q18 21 33.5 39t25.5 32l25 35h-465l-45 186h597q38 0 70.5 -9t55.5 -25q54 -36 54 -107q0 -28 -18 -63.5t-44.5 -73t-57.5 -74t-58 -67.5q-16 -18 -29.5 -33.5t-24.5 -29.5l-17 -19l24 -13q53 -29 96 -69.5t74 -92.5q31 -51 47 -108.5t16 -117.5
q0 -88 -33.5 -168t-96.5 -143t-142 -96t-167 -33z" />
    <glyph glyph-name="arabicindicdigitfour" unicode="&#x664;" horiz-adv-x="1245" 
d="M731 0v221h-477q-27 0 -54 10t-48 28t-34 43.5t-13 57.5q0 16 5 34.5t13 32.5l564 915h257l-576 -931h363v153h217v-153h192v-190h-192v-221h-217z" />
    <glyph glyph-name="arabicindicdigitfive" unicode="&#x665;" horiz-adv-x="1032" 
d="M513 1q-75 0 -144 25.5t-126 75.5q-51 45 -86 103t-50 125h179q13 -35 36 -63t53 -48.5t65 -31.5t73 -11q51 0 95.5 19.5t77.5 53t52 79t19 96.5q0 50 -18.5 95t-52.5 80q-35 35 -80 54t-93 19q-23 0 -46.5 -1t-46.5 -2q-22 -1 -44.5 -2t-44.5 -1q-74 0 -109.5 11.5
t-51.5 22.5q-65 44 -65 164v321q0 77 54 117q49 37 134 37h570l-52 -185h-510v-307h212q83 0 158.5 -32.5t134.5 -92.5t90 -136.5t31 -161.5t-31 -161.5t-89 -136.5q-60 -61 -135 -93t-159 -32z" />
    <glyph glyph-name="arabicindicdigitsix" unicode="&#x666;" horiz-adv-x="1200" 
d="M602 0q-96 0 -186 33.5t-160 95.5q-74 65 -112.5 149t-38.5 179q0 56 14.5 109.5t42.5 103.5l395 674h250l-256 -428h37q99 0 190.5 -33t162.5 -93q74 -65 112 -145q42 -87 42 -188q0 -94 -38.5 -178.5t-111.5 -149.5q-70 -62 -159.5 -95.5t-183.5 -33.5zM606 731
q-55 0 -107.5 -20t-92.5 -58q-43 -39 -65.5 -89t-22.5 -107q0 -56 22.5 -106t65.5 -89q40 -37 92.5 -57t107.5 -20q56 0 107.5 20t92.5 57q42 39 65 89t23 106q0 57 -23 107t-65 89q-41 38 -92.5 58t-107.5 20z" />
    <glyph glyph-name="arabicindicdigitseven" unicode="&#x667;" horiz-adv-x="1038" 
d="M307 0l406 1129h-559l-49 211h660q35 0 65.5 -13t53.5 -35.5t36 -52.5t13 -64q0 -21 -26.5 -113.5t-76.5 -245t-121.5 -359.5t-160.5 -457h-241z" />
    <glyph glyph-name="arabicindicdigiteight" unicode="&#x668;" horiz-adv-x="1068" 
d="M534 0q-84 0 -162 29.5t-138 83.5q-63 57 -96 130.5t-33 156.5q0 94 43.5 176.5t121.5 139.5l20 15l-18 17q-52 51 -79 114t-27 132q0 72 28.5 135t82.5 112q52 47 118.5 72t138.5 25q71 0 138 -25t119 -72q54 -49 82.5 -112t28.5 -135q0 -69 -27 -132t-79 -114l-18 -17
l21 -15q78 -57 121 -139.5t43 -176.5q0 -83 -33.5 -156.5t-97.5 -130.5q-60 -54 -137.5 -83.5t-160.5 -29.5zM534 638q-49 0 -92 -18.5t-75 -50t-50.5 -73.5t-18.5 -90q0 -47 18 -88.5t53 -74.5q33 -32 76 -49t89 -17q48 0 91 18t75.5 49t51 73t18.5 89q0 97 -71 165
q-34 32 -76 49.5t-89 17.5zM534 1163q-37 0 -69.5 -13.5t-57.5 -38.5q-54 -54 -54 -128q0 -38 14.5 -70.5t39 -57.5t57.5 -39t70 -14t70 14t57.5 39t39 57.5t14.5 70.5q0 37 -14.5 70t-39 57.5t-57.5 38.5t-70 14z" />
    <glyph glyph-name="arabicindicdigitnine" unicode="&#x669;" horiz-adv-x="1124" 
d="M373 0l238 430h-35q-97 0 -182.5 33t-151.5 96q-66 64 -101.5 148t-35.5 180q0 94 36 177t98 145.5t145.5 98.5t178.5 36q92 0 174.5 -35t147.5 -99q66 -66 100 -149t34 -174q0 -60 -13 -113.5t-37 -99.5l-368 -674h-228zM558 1159q-56 0 -104.5 -21.5t-85.5 -58.5
t-58 -86.5t-21 -105.5t20 -106t58 -88q38 -40 86.5 -60.5t104.5 -20.5q54 0 103 21t88 62q37 38 57 88t20 104t-19.5 103t-57.5 87q-39 40 -88 61t-103 21z" />
    <glyph glyph-name="arabicpercentsign" unicode="&#x66a;" horiz-adv-x="1797" 
d="M1361 1446l-790 -1514h-134l793 1514h131zM1386 764q102 0 178 -53q128 -88 128 -324q0 -415 -321 -415q-163 0 -244 108q-72 97 -72 274q0 195 76 296q87 114 255 114zM1377 651q-96 0 -139 -87q-32 -66 -32 -200q0 -281 168 -281t168 285q0 283 -165 283zM434 1406
q153 0 236 -105q72 -93 72 -273q0 -203 -85 -312q-80 -102 -234 -102q-318 0 -318 399q0 197 93 299q84 94 236 94zM426 1292q-172 0 -172 -288q0 -277 169 -277q69 0 105 40q67 74 67 255q0 270 -169 270z" />
    <glyph glyph-name="arabicfivepointedstar" unicode="&#x66d;" horiz-adv-x="2943" 
d="M470 1120q82 0 149.5 -30.5t115.5 -81.5t74 -116.5t26 -134.5q0 -70 -27 -137t-75 -119t-115 -83.5t-148 -31.5q-80 0 -147 30t-115.5 80t-75.5 114t-27 133v587q0 11 8 18.5t19 7.5t18.5 -7.5t7.5 -18.5v-383q30 48 75 86q19 16 43 31.5t53.5 28t64.5 20t76 7.5z
M470 443q64 0 120.5 24.5t98.5 67t66.5 100t24.5 122.5q0 64 -24.5 120.5t-66.5 99t-98.5 67t-120.5 24.5q-65 0 -121.5 -24.5t-98.5 -67t-66.5 -99t-24.5 -120.5q0 -65 24.5 -122.5t66.5 -100t98.5 -67t121.5 -24.5zM1547 562q-24 -39 -56.5 -71t-72.5 -55.5t-86 -36
t-96 -12.5q-76 0 -143 29t-116.5 79t-78 117t-28.5 142q0 76 28.5 143t78 116.5t116.5 78.5t143 29t143 -29t117 -78.5t78.5 -116.5t28.5 -143q0 -8 -6 -16.5t-22 -8.5h-391q-11 0 -19.5 7.5t-8.5 20.5q0 11 8.5 19t19.5 8h362q-6 59 -32 110.5t-67.5 90t-95.5 60.5t-115 22
q-65 0 -121.5 -24.5t-98.5 -67t-66 -99.5t-24 -122q0 -64 24 -120.5t66 -99t98.5 -67t121.5 -24.5q42 0 81 11t73.5 30.5t63 47t48.5 60.5q6 11 17.5 13t21.5 -5q8 -6 11 -17t-5 -21zM1703 385q-26 1 -44 18t-20 37v630q2 20 20 37t44 17t44 -17t19 -37v-630q-1 -20 -19 -37
t-44 -18zM1891 385q-27 1 -45 17t-20 34v474q3 40 18 77q13 32 40.5 65t78.5 54q52 19 97 16t81 -19t61.5 -40t37.5 -46l289 -455q14 -22 33 -35q17 -11 41.5 -15t56.5 13q15 7 24.5 17.5t15.5 22t8.5 21.5t2.5 17v466q2 20 19.5 37t42.5 17q27 0 45 -17t19 -37v-466
q0 -41 -13 -78q-12 -32 -39 -65.5t-81 -55.5q-52 -21 -98 -17.5t-82 19t-61 37.5t-35 37q-5 8 -20 31.5t-36 57.5t-46.5 74t-51.5 81q-61 96 -135 212q-9 18 -22 31q-11 11 -28 20.5t-39 7.5q-38 -4 -58.5 -19.5t-28.5 -32.5q-11 -20 -10 -46v-454q0 -22 -18 -39.5
t-44 -18.5zM1609 350q25 0 47.5 -9.5t38.5 -25.5t25.5 -38t9.5 -46q0 -25 -9.5 -47t-25.5 -38.5t-38.5 -26t-47.5 -9.5h-81v-94q0 -19 -19 -19q-8 0 -13 5.5t-5 13.5l-1 215q0 52 32.5 85.5t86.5 33.5zM1609 147q17 0 32.5 6.5t27 18t18 26.5t6.5 33q0 34 -24.5 59t-59.5 25
q-38 0 -59.5 -24.5t-21.5 -59.5v-84h81zM1914 352q37 0 69.5 -14t56.5 -38t38 -56.5t14 -69.5q0 -36 -14 -68.5t-38 -57t-56.5 -38.5t-69.5 -14q-36 0 -68.5 14t-56.5 38.5t-38 57t-14 68.5q0 37 14 69.5t38 56.5t56.5 38t68.5 14zM1914 36q29 0 54 11t44 29.5t29.5 43.5
t10.5 54q0 28 -10.5 53t-29.5 44t-44 29.5t-54 10.5q-28 0 -53 -10.5t-43.5 -29.5t-29.5 -44t-11 -53q0 -29 11 -54t29.5 -43.5t43.5 -29.5t53 -11zM2568 350q8 0 13.5 -5.5t5.5 -13.5t-5.5 -14t-13.5 -6h-82v-294q0 -8 -5.5 -14t-13.5 -6q-9 0 -14.5 6t-5.5 14v294h-83
q-9 0 -15 6t-6 14t6 13.5t15 5.5h204zM1338 199q62 0 91.5 -27.5t29.5 -65.5q0 -19 -6.5 -37.5t-20.5 -33.5t-37.5 -24t-56.5 -9q-26 0 -47.5 8.5t-37 23.5t-23.5 34.5t-8 42.5q0 18 19 18q7 0 12.5 -5t5.5 -13q0 -6 2 -18t10 -24t24 -21t44 -9q33 0 50.5 10t24.5 23
t7.5 23.5t0.5 11.5l-0.5 9t-8 19t-25 18.5t-50.5 8.5t-55 8t-35.5 20.5t-19.5 27t-6 28.5q0 13 4.5 31t17.5 34t35.5 27.5t58.5 11.5q32 -1 58 -13q22 -11 40.5 -33.5t18.5 -65.5q0 -7 -5.5 -12t-13.5 -5q-7 0 -12 5t-5 12q0 21 -9 38q-8 14 -24 26.5t-48 12.5t-48.5 -11
t-23.5 -24q-8 -16 -8 -35q1 -13 10 -23q8 -9 24 -16t46 -7zM2353 231q0 -39 -22.5 -70t-59.5 -44l56 -92q4 -6 2.5 -13.5t-8.5 -10.5q-8 -5 -15.5 -3.5t-11.5 9.5l-64 103h-82v-95q0 -8 -5 -13.5t-13 -5.5q-19 0 -19 19v216q0 52 32.5 86.5t88.5 34.5q25 0 47 -9.5t38.5 -26
t26 -38.5t9.5 -47zM2232 147q35 0 59.5 24.5t24.5 59.5q0 18 -6.5 33t-18 26.5t-27 18t-32.5 6.5q-38 0 -61 -23.5t-23 -60.5v-84h84zM2714 196q63 0 93 -27t30 -65q0 -19 -7 -38t-21.5 -34.5t-38 -25t-56.5 -9.5q-26 0 -48 9t-37.5 24t-23.5 35t-6 43q0 19 16 19
q8 0 13 -5.5t5 -13.5q0 -6 2.5 -18.5t11 -25t25 -21.5t44.5 -9q34 0 51 10.5t24.5 23.5t8 24t0.5 12t-0.5 9.5t-8 18.5t-25 18.5t-50.5 8.5q-34 0 -56.5 8t-36 21t-19 28t-5.5 29q0 13 4.5 31t17 34.5t35 28t58.5 11.5q33 -1 59 -13q22 -11 40.5 -33.5t18.5 -66.5
q0 -7 -5 -13t-13 -6q-9 0 -14 6t-5 13q0 21 -8 38q-7 14 -23 26t-48 12q-33 0 -49.5 -11t-24.5 -24q-9 -15 -9 -34q1 -13 10 -24q8 -9 24 -16.5t47 -7.5z" />
    <glyph glyph-name="superscriptalef" unicode="&#x670;" horiz-adv-x="239" 
d="M294 1084q-10 -13 -77 -13t-95 14q-39 20 -39 79v305q0 30 -61 129q41 0 116 86v-466q0 -85 100 -119q20 -5 56 -15z" />
    <glyph glyph-name="alefwasla" unicode="&#x671;" horiz-adv-x="399" 
d="M105 1345v-1345h189v1345h-189zM434 1625q0 -17 -42 -74q-72 -95 -209 -95q-82 0 -182 34q-29 -26 -91 -74q0 17 -3 43q42 43 128 126q39 -30 93 -38q136 120 216 120q90 0 90 -42zM355 1562q-6 44 -48 44q-48 0 -143 -65q32 -2 60 -2q80 0 131 23z" />
    <glyph glyph-name="highhamza" unicode="&#x674;" horiz-adv-x="0" 
d="M460 1836h-129h2q-54 -2 -79 -32.5t-25 -68.5q0 -24 5 -47t13 -41t19.5 -29.5t24.5 -11.5h228v-150h-494v150h78q-25 64 -25 129q0 48 13.5 93t43.5 80t78 57t117 23h130v-152z" />
    <glyph glyph-name="peh" unicode="&#x67e;" horiz-adv-x="1423" 
d="M1318 969v-658q0 -65 -24 -121.5t-66 -98.5t-98.5 -66.5t-120.5 -24.5h-463q-92 0 -172 34.5t-140 94t-94.5 139.5t-34.5 171v353h190v-353q0 -52 19.5 -97.5t53.5 -79.5t79.5 -53.5t98.5 -19.5h463q25 0 47 9.5t38 26t25.5 38.5t9.5 48v658h189zM757 -278
q0 -20 -7.5 -37.5t-21 -31t-31 -21t-37.5 -7.5t-37.5 7.5t-30.5 21t-20.5 31t-7.5 37.5q0 40 28 68t68 28q20 0 37.5 -7.5t31 -20.5t21 -30.5t7.5 -37.5zM997 -278q0 -20 -7.5 -37.5t-20.5 -31t-30.5 -21t-37.5 -7.5t-37.5 7.5t-31 21t-21 31t-7.5 37.5t7.5 37.5t21 30.5
t31 20.5t37.5 7.5q40 0 68 -28t28 -68zM877 -463q0 -20 -7.5 -37.5t-20.5 -31t-30.5 -21t-37.5 -7.5t-38 7.5t-31 21t-20.5 31t-7.5 37.5q0 40 28 68t69 28q40 0 68 -28t28 -68z" />
    <glyph glyph-name="tcheh" unicode="&#x686;" horiz-adv-x="1068" 
d="M128 875q27 13 71 29.5t97.5 31.5t111.5 25t114 10q55 0 108.5 -8.5t102.5 -29t90.5 -54t72 -83.5t47.5 -118.5t17 -158.5v-212q0 -63 -24.5 -119t-66.5 -98t-99 -66t-122 -24h-273q-20 0 -35.5 -8t-25.5 -20.5t-15 -29t-5 -34.5q0 -17 5 -34t15 -30.5t25.5 -21.5
t35.5 -8h265v-189h-265q-68 0 -118.5 24.5t-84 64t-50.5 90.5t-17 104t17 103.5t50.5 90t84 63.5t118.5 24h273q25 0 47.5 9.5t39 25.5t26 37.5t9.5 45.5v212q0 78 -21.5 128.5t-56 80t-79.5 41.5t-91 12q-44 0 -90 -8t-88 -19.5t-77 -25t-57 -23.5zM896 -328q0 -20 -13 -33
t-33 -13q-19 0 -32 13t-13 33q0 19 13 32.5t32 13.5q20 0 33 -13.5t13 -32.5zM829 -232q0 -19 -13 -32t-32 -13q-20 0 -33 13t-13 32q0 20 13 33t33 13q19 0 32 -13t13 -33zM963 -232q0 -19 -13.5 -32t-32.5 -13t-32.5 13t-13.5 32q0 20 13.5 33t32.5 13t32.5 -13t13.5 -33z
" />
    <glyph glyph-name="jeh" unicode="&#x698;" horiz-adv-x="714" 
d="M462 969v-864q-1 -93 -40 -183q-17 -38 -43.5 -79.5t-67 -82t-95.5 -78.5t-129 -69l-73 175q51 21 88.5 45.5t65.5 50.5t46 51.5t30 49.5q27 55 28 112v872h190zM275 1453q0 20 7.5 37.5t20.5 31t30.5 21t37.5 7.5t37.5 -7.5t31 -21t21 -31t7.5 -37.5t-7.5 -37.5t-21 -31
t-31 -21t-37.5 -7.5t-37.5 7.5t-30.5 21t-20.5 31t-7.5 37.5zM416 1248q0 20 7.5 37.5t21 31t31 21t37.5 7.5t37.5 -7.5t30.5 -21t20.5 -31t7.5 -37.5q0 -40 -28 -68t-68 -28q-20 0 -37.5 7.5t-31 20.5t-21 30.5t-7.5 37.5zM133 1248q0 20 7.5 37.5t21 31t31 21t37.5 7.5
t37.5 -7.5t31 -21t21 -31t7.5 -37.5t-7.5 -37.5t-21 -30.5t-31 -20.5t-37.5 -7.5t-37.5 7.5t-31 20.5t-21 30.5t-7.5 37.5z" />
    <glyph glyph-name="veh" unicode="&#x6a4;" horiz-adv-x="1874" 
d="M295 443q0 -53 20 -99t54.5 -80.5t80.5 -54.5t99 -20h352v347q0 93 34 172t93 137.5t137.5 91.5t168.5 33t169 -33.5t138 -91.5t93 -136t34 -167v-229q0 -71 -24.5 -128.5t-67 -98.5t-99.5 -63.5t-122 -22.5h-906q-92 0 -173 35t-141 95t-95 140.5t-35 172.5v349h190
v-349zM1091 189h364q52 0 87.5 33.5t35.5 90.5v229q0 50 -19 93.5t-52.5 75.5t-78 50.5t-94.5 18.5q-51 0 -95 -18.5t-77 -51.5t-52 -77.5t-19 -96.5v-347zM1240 1453q0 20 7.5 37.5t20.5 31t30.5 21t37.5 7.5t37.5 -7.5t31 -21t21 -31t7.5 -37.5t-7.5 -37.5t-21 -31
t-31 -21t-37.5 -7.5t-37.5 7.5t-30.5 21t-20.5 31t-7.5 37.5zM1381 1248q0 20 7.5 37.5t21 31t31 21t37.5 7.5t37.5 -7.5t30.5 -21t20.5 -31t7.5 -37.5q0 -40 -28 -68t-68 -28q-20 0 -37.5 7.5t-31 20.5t-21 30.5t-7.5 37.5zM1098 1248q0 20 7.5 37.5t21 31t31 21t37.5 7.5
t37.5 -7.5t31 -21t21 -31t7.5 -37.5t-7.5 -37.5t-21 -30.5t-31 -20.5t-37.5 -7.5t-37.5 7.5t-31 20.5t-21 30.5t-7.5 37.5z" />
    <glyph glyph-name="keheh" unicode="&#x6a9;" horiz-adv-x="2278" 
d="M2250 172q-46 -43 -112 -43h-2098l560 549l44 -103q34 -80 127 -80h234l-66 -68q-44 -46 -71 -57q-21 -10 -70 -10h-143q-64 0 -88 13q-34 18 -70 89l-70 -75q-30 -39 -30 -45q0 -22 24 -42.5t52 -20.5h1468l-41 81h-723q-36 0 -64 25q-31 28 -31 76q0 17 91 105l398 384
q82 79 82 142q0 152 -144 152q-48 0 -113 -27q-50 -21 -99 -43l296 294l100 -198q51 -101 51 -174q0 -100 -99 -194l-168 -160q-64 -61 -64 -86q0 -35 10 -50l15 -38q23 -58 91 -58h463q26 0 61 -75l68 -144q33 -69 47 -86q29 -33 82 -33z" />
    <glyph glyph-name="gaf" unicode="&#x6af;" horiz-adv-x="2278" 
d="M2250 172q-26 -24 -112 -43h-2098l560 549l44 -103q34 -80 127 -80h234l-66 -68q-44 -46 -71 -57q-21 -10 -70 -10h-143q-64 0 -88 13q-34 18 -70 89l-70 -75q-30 -39 -30 -45q0 -22 24 -42.5t52 -20.5h1468l-41 81h-723q-36 0 -64 25q-31 28 -31 76q0 17 91 105l398 384
q82 79 82 142q0 152 -144 152q-48 0 -113 -27q-50 -21 -99 -43l296 294l100 -198q51 -101 51 -174q0 -100 -99 -194l-168 -160q-64 -61 -64 -86q0 -35 10 -50l15 -38q23 -58 91 -58h463q26 0 61 -75l68 -144q33 -69 47 -86q29 -33 82 -33zM1650 1605l-577 -389l-26 39
l522 470z" />
    <glyph glyph-name="farsiyeh" unicode="&#x6cc;" horiz-adv-x="1280" 
d="M1350 129h-167q-111 0 -165 109l-122 244q-35 70 -58 70q-22 0 -62 -38l-90 -86q-40 -38 -40 -68q0 -28 17 -42q5 -3 45 -22l162 -76q86 -40 86 -116q0 -52 -67 -116l-205 -197q-62 -60 -108 -60q-54 0 -113 59l-329 329q-64 64 -64 88q0 42 50 90l188 182l-46 -82
q-34 -64 -34 -86q0 -29 57 -86l271 -272q68 -68 90 -68q13 0 73 58l50 48q27 26 27 46q0 45 -49 69l-188 91q-46 22 -60 38q-21 24 -21 70q0 40 100 137l431 418q-14 -45 -14 -78q0 -36 43 -122l152 -304q39 -77 113 -77h47v-150z" />
    <glyph glyph-name="arabicae" unicode="&#x6d5;" horiz-adv-x="772" 
d="M742 129h-683q41 51 41 70q0 20 -19.5 62.5t-19.5 80.5q0 72 53 125l166 167l-60 115l136 128l57 -109l67 67q-22 -62 -22 -115q0 -42 70 -177zM461 279l-69 136q-33 65 -33 97q-8 -11 -45 -49q-18 -19 -18 -34q0 -26 18 -60l47 -90q63 -1 100 0z" />
    <glyph glyph-name="smallhighmadda" unicode="&#x6e4;" horiz-adv-x="530" 
d="M485 1399q0 -104 -125 -104h-149q-57 0 -90 -58l-76 -108v156q0 104 125 104h145q62 0 94 58l76 108v-156z" />
    <glyph glyph-name="extendedarabicindicdigitzero" unicode="&#x6f0;" horiz-adv-x="1079" 
d="M539 0q-88 0 -167 32.5t-142 94.5q-60 62 -92.5 140.5t-32.5 166.5v472q0 88 32.5 167.5t92.5 140.5q63 62 142 94.5t167 32.5q87 0 166 -33t140 -95q63 -63 96 -141t33 -166v-472q0 -87 -33 -165.5t-96 -140.5q-62 -63 -140.5 -95.5t-165.5 -32.5zM539 1155
q-51 0 -96.5 -19t-80.5 -54t-54 -80t-19 -96v-472q0 -52 19.5 -97.5t53.5 -79.5t79.5 -53.5t97.5 -19.5q51 0 96.5 19.5t79.5 53.5t53.5 79.5t19.5 97.5v472q0 51 -18.5 96t-53.5 80t-80.5 54t-96.5 19z" />
    <glyph glyph-name="extendedarabicindicdigitone" unicode="&#x6f1;" horiz-adv-x="705" 
d="M400 1v1130h-295l82 212h255q79 0 120 -60q18 -26 28 -63t10 -79v-1140h-200z" />
    <glyph glyph-name="extendedarabicindicdigittwo" unicode="&#x6f2;" horiz-adv-x="1123" 
d="M287 0q-80 0 -129 35q-53 38 -53 111q0 27 7.5 47t21 36.5t32 31.5t39.5 31q9 9 20 17l462 360q29 25 54 53t43 57q42 72 42 143q0 52 -18.5 97t-55.5 79q-35 33 -80.5 51t-96.5 18q-59 0 -107 -19t-82 -54.5t-52 -85.5t-18 -111q0 -77 49 -139q17 -20 38 -37.5t46 -30.5
l-158 -113q-84 58 -126.5 144.5t-42.5 198.5q0 48 9.5 91t29.5 84q36 76 102 133q66 56 150.5 85.5t178.5 29.5q86 0 164 -31t138 -89q60 -60 92 -136.5t32 -162.5q0 -78 -20.5 -143t-65.5 -124q-41 -54 -95 -101.5t-121 -100.5l-352 -277h648v-178h-725z" />
    <glyph glyph-name="extendedarabicindicdigitthree" unicode="&#x6f3;" horiz-adv-x="1082" 
d="M538 0q-82 0 -157 29t-136 84q-57 51 -92.5 117.5t-47.5 141.5h187q12 -41 36 -75.5t56 -59.5t71.5 -39t82.5 -14q53 0 99.5 20t81 54.5t54.5 81.5t20 100q0 67 -20.5 109t-52.5 68.5t-71 41t-75 25.5q-32 10 -56 18.5t-41 20t-25.5 27.5t-8.5 40q0 12 11.5 38t47.5 77
q26 38 57 75.5t59 69.5q18 21 33.5 39t25.5 32l25 35h-465l-45 186h597q38 0 70.5 -9t55.5 -25q54 -36 54 -107q0 -28 -18 -63.5t-44.5 -73t-57.5 -74t-58 -67.5q-16 -18 -29.5 -33.5t-24.5 -29.5l-17 -19l24 -13q53 -29 96 -69.5t74 -92.5q31 -51 47 -108.5t16 -117.5
q0 -88 -33.5 -168t-96.5 -143t-142 -96t-167 -33z" />
    <glyph glyph-name="extendedarabicindicdigitfour" unicode="&#x6f4;" horiz-adv-x="1245" 
d="M731 0v221h-477q-27 0 -54 10t-48 28t-34 43.5t-13 57.5q0 16 5 34.5t13 32.5l564 915h257l-576 -931h363v153h217v-153h192v-190h-192v-221h-217z" />
    <glyph glyph-name="extendedarabicindicdigitfive" unicode="&#x6f5;" horiz-adv-x="1032" 
d="M513 1q-75 0 -144 25.5t-126 75.5q-51 45 -86 103t-50 125h179q13 -35 36 -63t53 -48.5t65 -31.5t73 -11q51 0 95.5 19.5t77.5 53t52 79t19 96.5q0 50 -18.5 95t-52.5 80q-35 35 -80 54t-93 19q-23 0 -46.5 -1t-46.5 -2q-22 -1 -44.5 -2t-44.5 -1q-74 0 -109.5 11.5
t-51.5 22.5q-65 44 -65 164v321q0 77 54 117q49 37 134 37h570l-52 -185h-510v-307h212q83 0 158.5 -32.5t134.5 -92.5t90 -136.5t31 -161.5t-31 -161.5t-89 -136.5q-60 -61 -135 -93t-159 -32z" />
    <glyph glyph-name="extendedarabicindicdigitsix" unicode="&#x6f6;" horiz-adv-x="1200" 
d="M602 0q-96 0 -186 33.5t-160 95.5q-74 65 -112.5 149t-38.5 179q0 56 14.5 109.5t42.5 103.5l395 674h250l-256 -428h37q99 0 190.5 -33t162.5 -93q74 -65 112 -145q42 -87 42 -188q0 -94 -38.5 -178.5t-111.5 -149.5q-70 -62 -159.5 -95.5t-183.5 -33.5zM606 731
q-55 0 -107.5 -20t-92.5 -58q-43 -39 -65.5 -89t-22.5 -107q0 -56 22.5 -106t65.5 -89q40 -37 92.5 -57t107.5 -20q56 0 107.5 20t92.5 57q42 39 65 89t23 106q0 57 -23 107t-65 89q-41 38 -92.5 58t-107.5 20z" />
    <glyph glyph-name="extendedarabicindicdigitseven" unicode="&#x6f7;" horiz-adv-x="1038" 
d="M307 0l406 1129h-559l-49 211h660q35 0 65.5 -13t53.5 -35.5t36 -52.5t13 -64q0 -21 -26.5 -113.5t-76.5 -245t-121.5 -359.5t-160.5 -457h-241z" />
    <glyph glyph-name="extendedarabicindicdigiteight" unicode="&#x6f8;" horiz-adv-x="1068" 
d="M534 0q-84 0 -162 29.5t-138 83.5q-63 57 -96 130.5t-33 156.5q0 94 43.5 176.5t121.5 139.5l20 15l-18 17q-52 51 -79 114t-27 132q0 72 28.5 135t82.5 112q52 47 118.5 72t138.5 25q71 0 138 -25t119 -72q54 -49 82.5 -112t28.5 -135q0 -69 -27 -132t-79 -114l-18 -17
l21 -15q78 -57 121 -139.5t43 -176.5q0 -83 -33.5 -156.5t-97.5 -130.5q-60 -54 -137.5 -83.5t-160.5 -29.5zM534 638q-49 0 -92 -18.5t-75 -50t-50.5 -73.5t-18.5 -90q0 -47 18 -88.5t53 -74.5q33 -32 76 -49t89 -17q48 0 91 18t75.5 49t51 73t18.5 89q0 97 -71 165
q-34 32 -76 49.5t-89 17.5zM534 1163q-37 0 -69.5 -13.5t-57.5 -38.5q-54 -54 -54 -128q0 -38 14.5 -70.5t39 -57.5t57.5 -39t70 -14t70 14t57.5 39t39 57.5t14.5 70.5q0 37 -14.5 70t-39 57.5t-57.5 38.5t-70 14z" />
    <glyph glyph-name="extendedarabicindicdigitnine" unicode="&#x6f9;" horiz-adv-x="1124" 
d="M373 0l238 430h-35q-97 0 -182.5 33t-151.5 96q-66 64 -101.5 148t-35.5 180q0 94 36 177t98 145.5t145.5 98.5t178.5 36q92 0 174.5 -35t147.5 -99q66 -66 100 -149t34 -174q0 -60 -13 -113.5t-37 -99.5l-368 -674h-228zM558 1159q-56 0 -104.5 -21.5t-85.5 -58.5
t-58 -86.5t-21 -105.5t20 -106t58 -88q38 -40 86.5 -60.5t104.5 -20.5q54 0 103 21t88 62q37 38 57 88t20 104t-19.5 103t-57.5 87q-39 40 -88 61t-103 21z" />
    <glyph glyph-name="zeronojoin" unicode="&#x200c;" horiz-adv-x="45" 
d="M45 0h-45v1628h45v-1628z" />
    <glyph glyph-name="zerojoin" unicode="&#x200d;" horiz-adv-x="45" 
d="M160 1496l-30 -30l-85 85v-1551h-45v1550l-84 -84l-30 30l107 107l-107 107l30 30l107 -107l107 107l30 -30l-107 -107z" />
    <glyph glyph-name="lefttoright" unicode="&#x200e;" horiz-adv-x="45" 
d="M303 1604l-137 -138l-31 31l86 86h-176v-1583h-45v1628h217l-82 82l31 31z" />
    <glyph glyph-name="righttoleft" unicode="&#x200f;" horiz-adv-x="45" 
d="M45 0h-45v1583h-176l86 -86l-31 -31l-137 138l137 137l31 -31l-82 -82h217v-1628z" />
    <glyph glyph-name="endash.001" unicode="&#x2013;" horiz-adv-x="1139" 
d="M-4 426v210h1139v-210h-1139z" />
    <glyph glyph-name="emdash" unicode="&#x2014;" horiz-adv-x="2048" 
d="M0 426v210h2048v-210h-2048z" />
    <glyph glyph-name="quoteleft.001" unicode="&#x2018;" horiz-adv-x="435" 
d="M105 926v155q0 115 25 178q55 137 200 171v-97q-110 -37 -114 -194h114v-213h-225z" />
    <glyph glyph-name="quoteright.001" unicode="&#x2019;" horiz-adv-x="435" 
d="M330 1409v-155q0 -115 -25 -178q-55 -137 -200 -171v97q110 36 114 194h-114v213h225z" />
    <glyph glyph-name="guillemotleft" unicode="&#x201a;" horiz-adv-x="854" 
d="M804 129h-93l-340 400l340 393h87l-226 -393zM497 129h-89l-338 400l340 393h87l-226 -393z" />
    <glyph glyph-name="quotedblleft" unicode="&#x201c;" horiz-adv-x="783" 
d="M105 937v161q0 132 51 211q60 92 163 120v-95q-108 -46 -108 -194h108v-203h-214zM466 937v165q0 137 59 220q58 82 153 109v-97q-65 -32 -87 -82q-21 -46 -21 -112h108v-203h-212z" />
    <glyph glyph-name="quotedblright.001" unicode="&#x201d;" horiz-adv-x="783" 
d="M678 1409v-161q0 -132 -51 -211q-60 -94 -161 -120v95q106 45 107 194h-107v203h212zM319 1409v-166q0 -136 -59 -219q-58 -81 -155 -109v97q66 32 88 82q21 47 21 112h-109v203h214z" />
    <glyph glyph-name="quotedash" unicode="&#x201e;" horiz-adv-x="2048" 
d="M2060 618h-2072v61h2072v-61z" />
    <glyph glyph-name="guilsinglleft" unicode="&#x2020;" horiz-adv-x="512" 
d="M457 966l-228 -382l222 -380v-75l-383 455l389 457v-75z" />
    <glyph glyph-name="periodcentered" unicode="&#x2021;" horiz-adv-x="405" 
d="M326 768q0 -50 -35.5 -85t-85.5 -35q-49 0 -84.5 35.5t-35.5 84.5t34.5 85t83.5 36q51 0 87 -35t36 -86z" />
    <glyph glyph-name="bullet.002" unicode="&#x2022;" horiz-adv-x="717" 
d="M657 724q0 -123 -86.5 -209.5t-208.5 -86.5q-123 0 -209.5 87t-86.5 209t86.5 208.5t209.5 86.5q122 0 208.5 -86t86.5 -209z" />
    <glyph glyph-name="divide" unicode="&#x2026;" horiz-adv-x="2048" 
d="M1566 0v281h282v-281h-282zM884 0v281h281v-281h-281zM201 0v281h281v-281h-281z" />
    <glyph glyph-name="quotesinglbase" unicode="&#x2030;" horiz-adv-x="491" 
d="M458 164q0 -142 -108 -280q-91 -118 -231 -200v56q228 162 228 337q0 61 -33 100q-32 -48 -95 -48q-41 0 -69.5 28t-28.5 69q0 58 49 93q44 32 104 32q86 0 135 -50.5t49 -136.5z" />
    <glyph glyph-name="quotedblbase" unicode="&#x2039;" horiz-adv-x="939" 
d="M864 163q0 -144 -106 -281q-89 -115 -230 -200v56q226 160 226 343q0 50 -31 96q-34 -48 -91 -48q-42 0 -71.5 28.5t-29.5 70.5q0 59 48 93q42 29 104 29q86 0 133.5 -50.5t47.5 -136.5zM414 167q0 -280 -336 -485v58q90 54 154 142q71 98 71 193q0 54 -29 102
q-34 -48 -92 -48q-44 0 -72.5 28t-28.5 72q0 58 49 92q43 29 104 29q82 0 131 -50.5t49 -132.5z" />
    <glyph glyph-name="dotlessi" unicode="&#x203a;" horiz-adv-x="555" 
d="M517 129h-458v48q84 2 118.5 37t34.5 119v547q0 63 -72 63q-26 0 -57 -13q-17 -7 -24 -9v51l256 101h49v-740q0 -84 34.5 -119t118.5 -37v-48z" />
    <glyph glyph-name="florin" unicode="&#x20ac;" horiz-adv-x="1139" 
d="M1075 1430l-59 -277q-85 85 -248 85t-264 -117q-57 -66 -81 -165h550l-32 -155h-538q-1 -23 -1 -59q0 -35 2 -73h509l-32 -155h-456q25 -107 77 -168q100 -118 260 -118q192 0 306 118v-306q-130 -65 -303 -65q-292 0 -480 200q-128 136 -169 339h-148l32 155h98
q-1 24 -1 51q0 46 2 81h-131l32 155h119q42 199 167 333q189 202 497 202q168 0 292 -61z" />
    <glyph glyph-name="trademark.002" unicode="&#x2122;" horiz-adv-x="1844" 
d="M798 1409v-104h-283v-699h-125v699h-285v104h693zM1739 1409v-803h-121v361q0 167 10 302q-29 -79 -59 -154l-203 -509h-106l-213 503q-23 54 -56 145q9 -163 9 -284v-364h-120v803h164l200 -485q48 -119 69 -181q23 66 67 179l192 487h167z" />
    <glyph glyph-name="_E005h" unicode="&#xe005;" horiz-adv-x="1319" 
d="M1227 881l-427 -448l415 -431h-276l-275 290l-275 -290h-278l415 431l-424 448h275l287 -301l288 301h275z" />
    <glyph glyph-name="fathalow" unicode="&#xe820;" horiz-adv-x="583" 
d="M522 1286h-462v72h462v-72z" />
    <glyph glyph-name="dammalow" unicode="&#xe821;" horiz-adv-x="511" 
d="M128 1219l-17 69q38 10 75.5 25t68.5 44q-45 11 -73 47q-17 21 -24 47.5t-3 52.5q5 26 20 47.5t39 34.5q26 13 54 13.5t52 -11.5q53 -28 62 -85q6 -33 -4 -70q9 2 17.5 4t17.5 4l17 -70q-20 -5 -41.5 -9.5t-44.5 -6.5q-7 -11 -14 -20.5t-13 -16.5q-43 -46 -92.5 -67
t-96.5 -32zM271 1528q-15 0 -26 -8t-15.5 -20t-3 -26t11.5 -26q5 -7 15 -13.5t27 -8.5q5 -1 10 -1h10q7 17 10.5 34t0.5 33q-2 14 -13 25t-27 11z" />
    <glyph glyph-name="sukunlow" unicode="&#xe822;" horiz-adv-x="326" 
d="M168 1285q-33 0 -62 12.5t-50.5 34.5t-34 50.5t-12.5 61.5t12.5 62t34 50.5t50.5 34t62 12.5t61.5 -12.5t50 -34t34 -50.5t12.5 -62t-12.5 -61.5t-34 -50.5t-50 -34.5t-61.5 -12.5zM168 1531q-37 0 -62.5 -25.5t-25.5 -61.5t25.5 -61.5t62.5 -25.5q18 0 33.5 7t27 18.5
t18.5 27.5t7 34t-7 34t-18.5 27.5t-27 18.5t-33.5 7z" />
    <glyph glyph-name="fathatanlow" unicode="&#xe823;" horiz-adv-x="583" 
d="M518 1295h-462v72h462v-72zM518 1439h-462v72h462v-72z" />
    <glyph glyph-name="dammatanlow" unicode="&#xe824;" horiz-adv-x="576" 
d="M233 1246q-9 0 -17 4q-12 5 -17.5 14.5t-11.5 21.5l-27 73l-49 -69l-58 43l68 94q4 6 16.5 18t33.5 9q27 -3 43 -37v-1l36 -92q54 19 97 59q-46 11 -73 47q-17 21 -24 47.5t-4 52.5q5 26 20 47.5t40 34.5q26 13 54 13.5t51 -11.5q53 -28 62 -85q6 -33 -4 -70l18 4t17 4
l18 -70q-21 -5 -42 -9.5t-44 -6.5q-7 -11 -14.5 -20.5t-13.5 -16.5q-61 -65 -150 -93q-5 -2 -11.5 -3.5t-13.5 -1.5zM362 1554q-15 0 -26 -8t-15.5 -20t-3 -26t12.5 -26q11 -15 27.5 -19t33.5 -4q8 17 11 34t1 33q-3 14 -13.5 25t-27.5 11z" />
    <glyph glyph-name="shaddalow" unicode="&#xe825;" horiz-adv-x="551" 
d="M142 1234q-21 0 -39.5 8t-32.5 22t-22 33t-8 40v126h72v-116q0 -17 12 -29t29 -12h84v157h72v-157h80q17 0 29 12t12 29v116h71v-126q0 -21 -8 -40t-21.5 -33t-32.5 -22t-40 -8h-257z" />
    <glyph glyph-name="kasralow" unicode="&#xe826;" horiz-adv-x="583" 
d="M525 -306h-462v72h462v-72z" />
    <glyph glyph-name="kasratanlow" unicode="&#xe827;" horiz-adv-x="583" 
d="M518 -451h-462v72h462v-72zM518 -307h-462v72h462v-72z" />
    <glyph glyph-name="shaddawithfathaisolatedlow" unicode="&#xe828;" 
d="M78 1571v71h461v-71h-461zM539 1356q0 -21 -7.5 -40t-21.5 -33t-33 -22t-40 -8h-257q-42 0 -72 30t-30 73v126h72v-116q0 -17 12 -29t29 -12h84v157h72v-157h80q17 0 29 12t12 29v116h71v-126z" />
    <glyph glyph-name="shaddawithdammaisolatedlow" unicode="&#xe829;" 
d="M616 1524h-72v-116q0 -17 -12 -29t-29 -12h-79v157h-72v-157h-85q-17 0 -29 12t-12 29v116h-71v-126q0 -21 8 -40t22 -33q28 -30 72 -30h257q42 0 72 30t30 73v126zM195 1617l22 68q37 -12 77 -19.5t82 1.5q-32 32 -37 78q-3 27 5 53t25 46q18 20 42 30t52 8
q29 -3 52.5 -17t37.5 -37q30 -51 8 -105q-7 -17 -17.5 -31t-23.5 -26q8 -4 16.5 -6.5t17.5 -5.5l-23 -69q-20 7 -40.5 14.5t-40.5 18.5q-25 -13 -43 -17q-30 -8 -58.5 -9.5t-55 1.5t-51.5 9.5t-47 14.5zM480 1803q-13 8 -26.5 7t-23.5 -8.5t-16 -20.5t-4 -28q1 -9 5.5 -20
t17.5 -21q5 -4 8.5 -6.5t8.5 -5.5q14 11 26.5 23.5t18.5 27.5q5 14 2 29t-17 23z" />
    <glyph glyph-name="shaddawithfathatanisolatedlow" unicode="&#xe82a;" 
d="M537 1464h-72v-116q0 -17 -12 -29t-29 -12h-79v157h-72v-157h-85q-17 0 -29 12t-12 29v116h-71v-126q0 -21 8 -40t22 -33q28 -30 72 -30h257q42 0 72 30t30 73v126zM116 1557l22 68q37 -12 77 -19.5t82 1.5q-32 32 -37 78q-3 27 5 53t25 46q18 20 42 30t52 8
q29 -3 52.5 -17t37.5 -37q30 -51 8 -105q-7 -17 -17.5 -31t-23.5 -26q8 -4 16.5 -6.5t17.5 -5.5l-23 -69q-20 7 -40.5 14.5t-40.5 18.5q-25 -13 -43 -17q-30 -8 -58.5 -9.5t-55 1.5t-51.5 9.5t-47 14.5zM401 1743q-13 8 -26.5 7t-23.5 -8.5t-16 -20.5t-4 -28q1 -9 5.5 -20
t17.5 -21q5 -4 8.5 -6.5t8.5 -5.5q14 11 26.5 23.5t18.5 27.5q5 14 2 29t-17 23z" />
    <glyph glyph-name="shaddawithdammatanisolatedlow" unicode="&#xe82b;" 
d="M81 1710v71h461v-71h-461zM81 1566v71h461v-71h-461zM542 1351q0 -21 -7.5 -40t-21.5 -33t-33 -22t-40 -8h-257q-42 0 -72 30t-30 73v126h72v-116q0 -17 12 -29t29 -12h84v157h72v-157h80q17 0 29 12t12 29v116h71v-126z" />
    <glyph glyph-name="shaddawithkasraisolatedlow" unicode="&#xe82c;" 
d="M536 1464h-72v-116q0 -17 -12 -29t-29 -12h-79v157h-72v-157h-85q-17 0 -29 12t-12 29v116h-71v-126q0 -21 8 -40t22 -33q28 -30 72 -30h257q42 0 72 30t30 73v126zM115 1557l22 68q37 -12 77 -19.5t82 1.5q-32 32 -37 78q-3 27 5 53t25 46q18 20 42 30t52 8
q29 -3 52.5 -17t37.5 -37q30 -51 8 -105q-7 -17 -17.5 -31t-23.5 -26q8 -4 16.5 -6.5t17.5 -5.5l-23 -69q-20 7 -40.5 14.5t-40.5 18.5q-25 -13 -43 -17q-30 -8 -58.5 -9.5t-55 1.5t-51.5 9.5t-47 14.5zM400 1743q-13 8 -26.5 7t-23.5 -8.5t-16 -20.5t-4 -28q1 -9 5.5 -20
t17.5 -21q5 -4 8.5 -6.5t8.5 -5.5q14 11 26.5 23.5t18.5 27.5q5 14 2 29t-17 23z" />
    <glyph glyph-name="shaddawithkasratanisolatedlow" unicode="&#xe82d;" horiz-adv-x="640" 
d="M555 1539q0 -43 -30 -73t-72 -30h-257q-43 0 -73 30t-30 73v127h72v-117q0 -17 12 -29t29 -12h85v158h71v-158h80q17 0 29 12t12 29v117h72v-127zM93 1289v72h462v-72h-462z" />
    <glyph glyph-name="ornateleftparenthesis" unicode="&#xfd3e;" horiz-adv-x="1292" 
d="M1181 -483q0 -7 -24 -10q-138 0 -358 254q-135 157 -217 350q-217 0 -220 46q143 126 143 207q-70 0 -229 -135q-30 0 -58 152q-114 51 -114 88q0 53 111 99q0 145 51 145q70 -61 108 -85q73 -44 131 -48q-3 58 -58 116q-49 45 -101 92q0 50 229 57q145 372 420 560
q94 63 131 63q19 0 19 -19q-95 -109 -227 -275q-97 -157 -131 -343q107 -10 107 -39q-141 -113 -150 -208q68 0 128 51q33 29 101 89q61 0 61 -152q111 -45 111 -96q0 -34 -104 -89q0 -141 -58 -145q-114 116 -235 128q0 -63 158 -210q0 -18 -116 -39q70 -343 371 -570
q20 -14 20 -34zM1053 1401q-285 -172 -447 -601q-173 0 -178 -25q84 -65 123 -133q24 44 43 58q15 34 39 68q2 0 9 -27.5t14.5 -34t41.5 -64.5q15 41 119 140q0 6 -30 15q-16 3 -50 7q46 167 65 220q62 174 251 377zM1092 483q0 20 -100 55q0 107 -24 117
q-104 -87 -169 -111q10 -6 111 -37q66 -21 66 -34q-25 -12 -174 -58q53 -17 101 -51q19 -12 70 -57q19 0 19 108q100 48 100 68zM763 473q0 121 -138 121q-135 0 -135 -121q0 -46 43.5 -80.5t91.5 -34.5q138 0 138 115zM454 408q-36 12 -84 31q-100 41 -100 44q15 7 107 31
q21 7 74 27q-60 20 -175 104q-10 0 -15 -107q-49 -24 -99 -69q0 -24 99 -54q0 -108 24 -118l77 63q44 38 92 48zM1099 -442q-285 230 -355 592q85 7 85 21q-85 68 -131 140q-12 -28 -31 -62q-34 -61 -39 -61q-31 0 -68 123q-39 -72 -121 -144q8 -12 97 -17h39q22 0 34 4
q147 -396 490 -596z" />
    <glyph glyph-name="ornaterightparenthesis" unicode="&#xfd3f;" horiz-adv-x="1292" 
d="M1181 469q0 -37 -116 -88q-27 -152 -58 -152q-159 135 -227 135q0 -81 142 -207q-4 -46 -221 -46q-80 -193 -215 -350q-220 -254 -360 -254q-22 3 -22 10q0 20 19 34q300 227 370 570q-116 21 -116 39q159 147 159 210q-120 -12 -236 -128q-58 4 -58 145q-104 55 -104 89
q0 51 113 96q0 152 61 152q33 -31 101 -89q60 -51 126 -51q-7 95 -150 208q0 29 108 39q-34 186 -132 343q-129 166 -227 275q0 19 19 19q38 0 131 -63q275 -188 422 -560q227 -7 227 -57q-50 -47 -101 -92q-53 -58 -56 -116q58 4 130 48q39 24 109 85q49 0 49 -145
q113 -46 113 -99zM857 775q-7 25 -178 25q-162 429 -449 601q190 -203 251 -377q21 -53 67 -220q-36 -4 -51 -7q-31 -9 -31 -15q104 -99 119 -140q26 32 57 99q5 25 10 27q22 -34 37 -68q21 -14 43 -58q39 68 125 133zM1123 469q-51 45 -101 69q-3 107 -15 107
q-41 -31 -80.5 -58t-93.5 -46q54 -20 73 -27q104 -26 109 -31q0 -3 -100 -44q-50 -19 -86 -31q48 -10 93 -48l76 -63q24 10 24 118q101 30 101 54zM795 473q0 121 -136 121q-138 0 -138 -121q0 -115 138 -115q49 0 92.5 34.5t43.5 80.5zM486 544q-66 24 -170 111
q-24 -10 -24 -117q-99 -35 -99 -55t99 -68q0 -108 20 -108q52 45 70 57q46 34 99 51q-165 51 -172 58q0 13 65 34q100 31 112 37zM845 167q-82 72 -120 144q-39 -123 -70 -123q-3 0 -37 61q-21 34 -33 62q-46 -72 -131 -140q0 -14 85 -21q-68 -362 -355 -592
q343 200 490 596q12 -4 36 -4q38 0 61 2t74 15z" />
    <glyph glyph-name="zerowidthnobreakspace" unicode="&#xfeff;" horiz-adv-x="0" 
 />
    <glyph glyph-name="NULL" horiz-adv-x="0" 
 />
    <glyph glyph-name="_32" horiz-adv-x="1461" 
d="M1248 712h-1050v218h1050v-218zM1248 266h-1050v220h1050v-220z" />
    <glyph glyph-name="currency.001" horiz-adv-x="1024" 
d="M995 382l-58 -55l-143 143q-134 -103 -270 -103q-77 0 -157 26q-92 29 -138 77l-146 -143l-56 55l144 145q-102 117 -102 282q0 157 102 283l-144 141l56 57l146 -142q118 102 285 102q162 0 280 -102l143 142l58 -57l-144 -141q103 -132 103 -281q0 -154 -103 -284z
M874 808q0 95 -50.5 182t-133.5 132q-86 47 -178 47q-151 0 -256.5 -105.5t-105.5 -257.5q0 -149 106 -254t255 -105t256 106t107 255z" />
    <glyph glyph-name="brokenbar.001" horiz-adv-x="410" 
d="M244 809h-83v742h83v-742zM244 -313h-83v742h83v-742z" />
    <glyph glyph-name="section.001" horiz-adv-x="853" 
d="M763 622q0 -206 -233 -314q117 -81 157 -125q73 -79 73 -178q0 -150 -137 -244q-123 -84 -279 -84q-115 0 -238 57v273h74q2 -111 55 -184q61 -83 167 -83q91 0 160 62t69 152q0 88 -84 162q-33 28 -160 105q-141 85 -196 141q-96 95 -96 212q0 215 255 317
q-112 72 -157 120q-72 79 -72 177q0 149 113 230q99 73 254 73q111 0 222 -44v-253h-70q-14 103 -66 167q-60 76 -156 76q-77 0 -130.5 -50.5t-53.5 -126.5q0 -82 76 -153q36 -32 146 -102q155 -98 209 -154q98 -100 98 -229zM659 564q0 90 -85 169q-48 44 -163 111
q-201 -50 -201 -215q0 -86 99 -171q48 -42 171 -116q179 89 179 222z" />
    <glyph glyph-name="sfthyphen" horiz-adv-x="1483" 
d="M1290 457h-1116v210h1116v-210z" />
    <glyph glyph-name="twosuperior.001" horiz-adv-x="725" 
d="M640 989l-48 -239h-33q-1 27 -18 27h-476v37q178 198 239 277q161 208 161 316q0 93 -89 93q-131 0 -188 -222h-49v175q168 88 303 88q173 0 173 -151q0 -68 -60 -143q-28 -35 -113 -113l-254 -234h313q85 0 104 89h35z" />
    <glyph glyph-name="threesuperior" horiz-adv-x="725" 
d="M637 1038q0 -122 -113 -205q-103 -76 -229 -76q-89 0 -188 36v228h49q7 -85 55 -149q56 -73 136 -73q71 0 111 46t40 118q0 192 -267 200v37q86 14 148 65q70 58 70 139q0 92 -87 92q-75 0 -125 -76q-44 -66 -47 -146h-49v176q177 90 290 90q153 0 153 -121
q0 -84 -97 -148q-51 -34 -170 -80q153 0 205 -14q115 -30 115 -139z" />
    <glyph glyph-name="onesuperior.001" horiz-adv-x="725" 
d="M551 766h-348v36h31q77 0 77 69v467q0 77 -54 77q-32 0 -89 -20v35l309 110v-30q-33 -6 -33 -51v-588q0 -69 70 -69h37v-36z" />
    <glyph glyph-name="onequarter.001" horiz-adv-x="1749" 
d="M1664 329h-113v-104q0 -76 66 -76h23v-35h-331v35h30q79 0 79 76v104h-340v36l228 265q77 98 193 256h52v-489h113v-68zM1377 1542l-926 -1445h-88l928 1445h86zM558 766h-348v36h31q77 0 77 69v467q0 77 -54 77q-32 0 -89 -20v35l309 112v-32q-33 -6 -33 -51v-588
q0 -69 70 -69h37v-36zM1418 397v276q-109 -96 -257 -276h257z" />
    <glyph glyph-name="onehalf" horiz-adv-x="1749" 
d="M1663 333l-48 -239h-33q-1 28 -17 28h-477v36q179 199 239 276q162 209 162 316q0 95 -90 95q-130 0 -188 -223h-49v180q168 84 304 84q173 0 173 -152q0 -77 -81 -168q-26 -30 -140 -131q-76 -67 -207 -191h313q88 0 104 89h35zM1377 1542l-926 -1448h-88l928 1448h86z
M558 766h-348v36h31q77 0 77 70v466q0 77 -54 77q-31 0 -89 -20v35l309 112v-32q-33 -6 -33 -51v-587q0 -70 70 -70h37v-36z" />
    </font>
</defs>
</svg>
