<?xml version="1.0" encoding="utf-8"?>
<!-- Generator: Adobe Illustrator 24.0.2, SVG Export Plug-In . SVG Version: 6.00 Build 0)  -->
<svg version="1.1" id="Capa_1" xmlns="http://www.w3.org/2000/svg" xmlns:xlink="http://www.w3.org/1999/xlink" x="0px" y="0px"
	 viewBox="0 0 285 285" style="enable-background:new 0 0 285 285;" xml:space="preserve">
<style type="text/css">
	.st0{fill:#231F20;}
</style>
<g>
	<path class="st0" d="M34.4,67.5c-1.5-11.6,1-21.9,9.7-29.9c8.6-8,19-9.6,30.5-7.4c-0.2-1.3-0.4-2.3-0.5-3.3
		c-0.7-5.1,1.5-9.7,5.7-12c4.4-2.4,9.5-1.9,13.5,1.4c4.2,3.5,6.5,3.4,10.4-0.3c3.9-3.7,7.7-7.5,11.6-11c5-4.6,11.9-4.4,16.6,0.4
		c17.3,18,34.6,36.1,51.9,54.1c0.3,0.3,0.5,0.6,1,1.2c-3.3,3.1-6.4,6.4-10,9.1c-4.3,3.3-9.4,2.6-15.1-1.4c-1.3,1.2-2.6,2.4-4,3.6
		c-4.7,4.2-10,4.8-15.2,1.3c-1.5-1-2.5-1.1-3.6,0.3c-0.7,0.9-1.6,1.6-2.4,2.3c-5.2,4.6-12,4.4-16.9-0.6c-4.2-4.3-8.3-8.6-12.4-12.9
		c0-0.1-0.2,0-0.7,0c5.7,16.4,9.5,33.1,11.7,51C98.6,110.5,82,106,65.5,100c1.5,1.7,3.1,3.3,4.6,5c2.3,2.4,4.6,4.7,6.8,7.1
		c5,5.5,4.9,12.1-0.4,17.3c-1.2,1.2-2.5,2.4-3.6,3.6c4.8,8.7,4.4,10.7-4.3,20.6c0.9,2.7,2.5,5.4,2.4,7.9c-0.1,2.9-1.3,6-2.9,8.4
		c-2.2,3.3-5.1,6.2-7.9,9.5c-1.7-1.6-2.4-2.3-3.1-3C40.5,159,23.8,141.6,7.2,124.2c-5.7-6-5.6-12.6,0.4-18.4
		c3.8-3.6,7.6-7.2,11.4-10.9c2.9-2.9,3.4-5.9,0.8-8.7c-3.9-4.2-4.1-11-1.2-15.1c3.2-4.4,8.1-5.7,14.3-3.9
		C33.3,67.4,33.7,67.4,34.4,67.5z M59.3,170.3c7.5-5.5,8.4-8.9,2-15.3c-9.9-9.9-19.4-20.1-29.1-30.2c-1.4-1.4-2.4-3.1-0.7-4.8
		c1.8-1.8,3.4-0.6,4.7,0.8c4,4.2,7.8,8.5,12,12.5c5.5,5.2,11.3,10.2,17,15.2c0,0.4,0.8-0.3,1.6-1.1c4.8-4.5,4.8-7,0.2-11.9
		c-7.2-7.6-14.5-15.2-21.8-22.7c-1.5-1.5-2.8-3.2-0.9-5c1.9-1.8,3.5-0.4,5,1.1c5,5.3,10.1,10.6,15.1,15.8c1.4,1.5,2.7,3,4.1,4.6
		c1.6-1.5,2.8-2.5,3.9-3.6c3.4-3.3,3.5-6.5,0.2-9.9c-13.1-13.7-26.2-27.3-39.2-41c-3.1-3.2-6.5-3.7-9.2-1.2c-2.7,2.4-2.7,5.6,0,9
		c4.2,5.4,3.8,11.6-1,16.4c-3.6,3.5-7.3,7-10.9,10.4c-4.6,4.4-4.7,7-0.2,11.7C27,136.8,42,152.5,57.1,168.3
		C57.8,169,58.6,169.6,59.3,170.3z M176.7,60.7c-0.5-0.7-0.8-1.1-1.1-1.5c-15.8-16.6-31.7-33.1-47.5-49.7c-2.8-2.9-6-3-9-0.3
		c-4.1,3.7-8,7.7-12.1,11.4c-5.3,4.9-11.3,5-16.9,0.3c-3.2-2.7-6.3-2.8-8.8-0.3c-2.6,2.6-2.5,5.8,0.5,9c3.6,3.8,7.2,7.6,10.9,11.4
		c9.5,9.9,19,19.9,28.6,29.8c3,3.1,5.9,3.6,8.7,1.4c1.7-1.3,3.1-2.9,4.9-4.5c-0.8-1-1.5-1.7-2.2-2.5c-5.5-5.7-11-11.4-16.4-17.2
		c-1.5-1.6-4-3.3-1.7-5.6c2.5-2.5,4.2,0.1,5.8,1.8c7.3,7.6,14.6,15.3,22,22.9c2.8,2.9,5.6,3.5,8.2,1.6c1.9-1.3,3.5-3.1,5.4-4.8
		c-5.4-5.7-10.6-11.1-15.8-16.5c-4-4.2-8.1-8.5-12.1-12.7c-1.3-1.4-2.2-2.9-0.6-4.6c1.8-1.8,3.3-0.8,4.7,0.7
		c1.1,1.1,2.1,2.2,3.2,3.3c9.4,9.8,18.7,19.6,28.1,29.4c2.6,2.8,5.7,3.3,8.3,1.4C173.5,64,175,62.3,176.7,60.7z M53.4,65
		c0,9,7.4,16.3,16.3,16.2c8.9-0.1,16.1-7.4,16.1-16.1c0-9-7.2-16.3-16.2-16.4C60.7,48.6,53.3,56,53.4,65z"/>
	<path class="st0" d="M112.2,129.3c0,7.2,0,13.8,0,20.4c0,4.6,1.7,7,6.3,7.6c3.4,0.4,7,0.4,10.4-0.1c4.4-0.6,6.1-3,6.1-7.5
		c0-12.4,0.1-24.9,0-37.3c0-2.1,0.5-3.2,2.6-3.8c2.9-0.8,5.8-2,9.1-3.2c0,1.5,0,2.6,0,3.6c0,10.4,0,20.8,0,31.2
		c0,4.1,0.8,4.8,4.9,4.8c6,0,11.9-0.1,17.9,0.1c2.8,0.1,3.8-0.6,3.7-3.6c-0.2-5.9,0-11.7-0.1-17.6c0-2,0.6-3,2.6-3.5
		c2.9-0.8,5.8-1.9,8.9-3c0.2,2,0.3,3.6,0.5,5.5c2.7-1.2,5.1-2.7,7.8-3.4c3.7-1,7.6-2.1,11.4-2c6.9,0,12.3,4.3,13.3,11
		c1,5.9,1,12.1,0.7,18.1c-0.4,5.9-4.4,9.3-10.3,10c-2,0.2-4.1,0.3-6.2,0.3c-16.8,0-33.5,0.1-50.3-0.1c-3.5,0-5.9,0-7.5,4
		c-1.6,3.8-5.2,6.3-9.3,7.7c-7.6,2.6-15.2,2.6-22.7-0.2c-7.3-2.8-11-8.4-11.5-16.1c-0.3-5.4-0.2-10.9,0-16.3c0-1,1-2.4,1.9-2.8
		C105.5,131.6,108.6,130.6,112.2,129.3z M195.8,145.1c1.3,0,2.7,0,4,0c1.4,0,2.9,0,4.3,0c2,0,3-1.1,3.1-3c0-2.5,0.2-4.9-0.1-7.4
		c-0.5-4.9-3.4-7-8.1-5.4c-3.4,1.2-6.5,3.4-9.9,4.8c-4.3,1.8-4.8,5.1-4.2,9c0.1,0.7,1.2,1.8,2,1.9
		C189.8,145.2,192.8,145.1,195.8,145.1z"/>
	<path class="st0" d="M79.3,184.4c4.2,0,7.9-0.1,11.6,0.1c0.8,0,1.9,1.3,2.1,2.2c1.5,8.3,2.9,16.6,4.3,24.9c0.1,0.6,0.2,1.2,0.6,2.6
		c0.5-1.3,0.8-1.9,0.9-2.5c1.2-6.7,2.4-13.4,3.8-20c0.2-1.2,1.3-2.5,2.3-3.1c2.7-1.6,5.6-2.8,8.8-4.4c1.8,9.9,3.6,19.5,5.4,29
		c0.2,0,0.4,0.1,0.6,0.1c0.2-0.7,0.5-1.3,0.6-2c1.1-6.5,2.1-13,3.3-19.4c0.2-1.2,1.4-2.7,2.5-3.2c3.5-1.6,7.2-2.9,11.4-4.4
		c-0.3,1.5-0.4,2.7-0.6,3.8c-3.2,14.8-6.4,29.5-9.5,44.3c-0.5,2.4-1.5,3.3-3.9,3c-1.8-0.2-3.7-0.3-5.5,0c-3.5,0.6-4.5-1.1-5-4.2
		c-1-6.8-2.5-13.5-4.5-20.3c-1,5.3-2,10.6-3,15.9c-0.2,0.8-0.3,1.6-0.5,2.4c-1.2,6.1-1.2,6.1-7.6,6.1c-6.5,0-6.4,0-7.8-6.1
		c-3.2-13.8-6.3-27.6-9.5-41.5C79.8,186.9,79.6,185.9,79.3,184.4z"/>
	<path class="st0" d="M279.9,117.2c0,5.1,0,9.8,0,14.5c0,8.2,0.1,16.4,0,24.7c-0.1,8.3-6.9,15.3-14.3,18.5c-0.5,0.2-1.3,0.2-1.8,0
		c-3.6-1.8-7.2-3.7-10.8-5.5c3.8-2.1,7.6-3.7,10.8-6.1c3.4-2.5,5.2-6,4.4-10.8c-0.7,0.5-1.3,0.7-1.8,1.2c-3.9,3.6-8.1,4.1-12.7,1.5
		c-6.7-3.7-10.9-13.1-9.7-21.9c1.4-11.2,6.9-16,18.3-16.1C267.9,117.2,273.7,117.2,279.9,117.2z M268.3,137c0-2,0.1-3.9-0.1-5.8
		c-0.1-0.7-0.8-2.1-1.2-2.1c-3.3,0-7-1.3-9.7,1.6c-2.4,2.6-2.5,6-1.5,9.3c1.4,4.6,4.5,6.3,10.6,5.1c3.7-0.8,1-4.1,1.8-6.2
		C268.4,138.2,268.3,137.6,268.3,137z"/>
	<path class="st0" d="M208.2,201.6c-3.4-1.2-6.4-2.5-9.4-3.4c-1.1-0.4-2.5-0.4-3.6-0.1c-0.8,0.2-2,1-2.1,1.8
		c-0.2,0.7,0.5,2.1,1.2,2.5c1.5,1,3.3,1.7,5,2.4c9.8,4.1,13.3,10.9,10.9,21.2c-1.2,5.3-4.4,8.8-9.8,9.8c-6,1.2-11.9,0.6-17.2-2.7
		c-1.1-0.6-2-2.3-2.1-3.5c-0.3-3.8-0.1-7.6-0.1-11.9c1.2,0.8,2,1.3,2.8,1.8c3.6,2.4,7.5,3.9,11.9,3.3c0.9-0.1,2.4-1,2.5-1.7
		c0.1-1-0.5-2.5-1.4-3c-2-1.2-4.3-2-6.4-3c-8.3-4.1-11.7-11.6-9.2-20.5c1.5-5.5,5.2-8.7,10.8-9.6c5-0.8,9.9,0,14.3,2.6
		c0.9,0.5,1.9,1.8,1.9,2.7C208.3,194,208.2,197.8,208.2,201.6z"/>
	<g>
		<path class="st0" d="M110.2,256.5v18.1h3.5v3H96.2c-1.1,0-2.2-0.2-3.1-0.5c-1-0.4-1.8-0.8-2.5-1.5c-0.7-0.6-1.3-1.3-1.7-2.2
			c-0.4-0.8-0.6-1.7-0.6-2.7v-5.5h3.4v5.5c0,0.5,0.1,1.1,0.4,1.5c0.2,0.5,0.6,0.9,1,1.2c0.4,0.4,0.9,0.6,1.4,0.8s1.1,0.3,1.8,0.3
			h10.6v-18.1H110.2z M101.2,259.1h-1.4h0c-0.4,0-0.7,0.1-0.9,0.3c-0.2,0.2-0.3,0.4-0.3,0.7c0,0.2,0,0.3,0.1,0.5
			c0,0.1,0.1,0.3,0.1,0.4c0.1,0.1,0.1,0.2,0.2,0.3c0.1,0.1,0.2,0.1,0.3,0.1h2.6v1.5h-5.6v-1.5l0.9,0c-0.2-0.4-0.3-0.8-0.3-1.3
			c0-0.3,0.1-0.6,0.2-0.9c0.1-0.3,0.3-0.6,0.5-0.8c0.2-0.2,0.5-0.4,0.9-0.6c0.4-0.1,0.8-0.2,1.3-0.2h1.5V259.1z"/>
		<path class="st0" d="M121.5,262.4v12.2h3.5v3h-12.8v-3h5.9v-12.2H121.5z M116.7,281.9c0-0.2,0-0.4,0.1-0.6
			c0.1-0.2,0.2-0.3,0.4-0.5c0.2-0.1,0.4-0.2,0.6-0.3c0.2-0.1,0.4-0.1,0.7-0.1c0.5,0,0.9,0.1,1.2,0.4c0.3,0.3,0.5,0.6,0.5,1.1
			c0,0.2,0,0.4-0.1,0.6c-0.1,0.2-0.2,0.3-0.4,0.5c-0.2,0.1-0.3,0.2-0.6,0.3c-0.2,0.1-0.4,0.1-0.7,0.1c-0.2,0-0.5,0-0.7-0.1
			c-0.2-0.1-0.4-0.2-0.6-0.3c-0.2-0.1-0.3-0.3-0.4-0.5C116.7,282.3,116.7,282.1,116.7,281.9z"/>
		<path class="st0" d="M130.4,256.5v18.1h3.5v3h-10.4v-3h3.5v-18.1H130.4z"/>
		<path class="st0" d="M139.3,256.5v8.5c0.6-0.4,1.2-0.8,1.9-1.1c0.7-0.3,1.4-0.6,2.1-0.8c0.7-0.2,1.4-0.4,2.2-0.5
			c0.7-0.1,1.4-0.2,2.1-0.2c1,0,2,0.1,2.9,0.4c0.9,0.3,1.7,0.7,2.4,1.2c0.7,0.6,1.2,1.3,1.6,2.2c0.4,0.9,0.6,2,0.6,3.3v3.3
			c0,0.7-0.1,1.3-0.4,1.9c-0.3,0.6-0.7,1.1-1.2,1.5c-0.5,0.4-1.1,0.8-1.8,1c-0.7,0.3-1.4,0.4-2.2,0.4h-16.9v-3h3.5v-18.1H139.3z
			 M147.5,265.3c-0.6,0-1.2,0.1-1.9,0.2c-0.6,0.1-1.3,0.3-1.9,0.5c-0.6,0.2-1.2,0.5-1.7,0.8c-0.5,0.3-1,0.6-1.4,1
			c-0.4,0.3-0.7,0.7-1,1.1c-0.2,0.4-0.4,0.7-0.4,1.1v4.6h10c0.3,0,0.6,0,0.9-0.1c0.3-0.1,0.5-0.2,0.7-0.4s0.4-0.4,0.5-0.6
			c0.1-0.2,0.2-0.5,0.2-0.7v-3.3c0-0.7-0.1-1.4-0.3-1.9c-0.2-0.5-0.5-0.9-0.9-1.3c-0.4-0.3-0.8-0.6-1.3-0.7
			C148.6,265.4,148.1,265.3,147.5,265.3z"/>
		<path class="st0" d="M186.6,256.5v18.1h3.5v3h-17.5c-1.1,0-2.2-0.2-3.1-0.5s-1.8-0.8-2.5-1.5c-0.7-0.6-1.3-1.3-1.7-2.2
			c-0.4-0.8-0.6-1.7-0.6-2.7v-5.5h3.4v5.5c0,0.5,0.1,1.1,0.4,1.5c0.2,0.5,0.6,0.9,1,1.2c0.4,0.4,0.9,0.6,1.5,0.8
			c0.6,0.2,1.1,0.3,1.8,0.3h10.6v-18.1H186.6z M177.6,259.1h-1.4h0c-0.4,0-0.7,0.1-0.9,0.3c-0.2,0.2-0.3,0.4-0.3,0.7
			c0,0.2,0,0.3,0.1,0.5c0,0.1,0.1,0.3,0.1,0.4c0.1,0.1,0.1,0.2,0.2,0.3c0.1,0.1,0.2,0.1,0.3,0.1h2.6v1.5h-5.6v-1.5l0.9,0
			c-0.2-0.4-0.3-0.8-0.3-1.3c0-0.3,0.1-0.6,0.2-0.9c0.1-0.3,0.3-0.6,0.5-0.8c0.2-0.2,0.5-0.4,0.9-0.6c0.4-0.1,0.8-0.2,1.3-0.2h1.5
			V259.1z"/>
		<path class="st0" d="M195.9,256.5v16.2c0,0.7-0.1,1.3-0.4,1.9c-0.3,0.6-0.7,1.1-1.2,1.5c-0.5,0.4-1.1,0.8-1.8,1
			c-0.7,0.3-1.4,0.4-2.2,0.4h-1.6v-3h1.6c0.3,0,0.6,0,0.9-0.1c0.3-0.1,0.5-0.2,0.7-0.4c0.2-0.2,0.4-0.4,0.5-0.6
			c0.1-0.2,0.2-0.5,0.2-0.7v-16.2H195.9z"/>
		<path class="st0" d="M215,251.7c-0.4,0-0.8-0.1-1.1-0.2c-0.4-0.1-0.7-0.3-0.9-0.5c-0.3-0.2-0.5-0.5-0.6-0.8
			c-0.2-0.3-0.2-0.6-0.2-1s0.1-0.7,0.2-1c0.2-0.3,0.4-0.6,0.6-0.8c0.3-0.2,0.6-0.4,0.9-0.5c0.4-0.1,0.7-0.2,1.1-0.2s0.8,0.1,1.1,0.2
			c0.3,0.1,0.6,0.3,0.9,0.5c0.3,0.2,0.5,0.5,0.6,0.8c0.2,0.3,0.2,0.6,0.2,1s-0.1,0.7-0.2,1c-0.2,0.3-0.4,0.6-0.6,0.8
			c-0.3,0.2-0.6,0.4-0.9,0.5C215.7,251.6,215.4,251.7,215,251.7z M215,247.9c-0.4,0-0.8,0.1-1.1,0.4s-0.5,0.6-0.5,1
			c0,0.4,0.2,0.7,0.5,1c0.3,0.3,0.7,0.4,1.1,0.4c0.2,0,0.4,0,0.6-0.1c0.2-0.1,0.4-0.2,0.5-0.3c0.1-0.1,0.3-0.3,0.3-0.4
			c0.1-0.2,0.1-0.3,0.1-0.5c0-0.2,0-0.4-0.1-0.5c-0.1-0.2-0.2-0.3-0.3-0.4c-0.1-0.1-0.3-0.2-0.5-0.3
			C215.4,247.9,215.2,247.9,215,247.9z"/>
		<path class="st0" d="M227,277.5h-3.6c-0.2,1-0.5,1.8-1.1,2.6c-0.6,0.7-1.3,1.3-2.1,1.8c-0.8,0.5-1.7,0.9-2.7,1.1
			c-1,0.3-2,0.4-3,0.4c-1.1,0-2.2-0.1-3.3-0.4c-1.1-0.3-2-0.7-2.9-1.3c-0.8-0.6-1.5-1.3-2-2.2c-0.5-0.9-0.8-1.9-0.8-3v-11.4h3.4
			v11.4c0,0.7,0.2,1.2,0.5,1.7c0.3,0.5,0.7,0.9,1.3,1.2c0.5,0.3,1.1,0.6,1.8,0.7c0.7,0.2,1.3,0.2,2,0.2c0.7,0,1.4-0.1,2-0.2
			c0.7-0.2,1.3-0.4,1.8-0.7c0.5-0.3,0.9-0.7,1.3-1.2c0.3-0.5,0.5-1.1,0.5-1.7v-20h3.4v18.1h3.5V277.5z"/>
		<path class="st0" d="M235.8,257.5c-0.3,0-0.5,0-0.7-0.1c-0.2-0.1-0.4-0.2-0.6-0.3c-0.2-0.1-0.3-0.3-0.4-0.5
			c-0.1-0.2-0.1-0.4-0.1-0.6v-2h1.3v1.8c0,0.2,0.1,0.3,0.2,0.5c0.1,0.1,0.3,0.2,0.5,0.2h1.5v-2.5h1.3v2.5h1.4c0.2,0,0.4-0.1,0.5-0.2
			c0.1-0.1,0.2-0.3,0.2-0.5v-1.8h1.3v2c0,0.2,0,0.4-0.1,0.6c-0.1,0.2-0.2,0.4-0.4,0.5c-0.2,0.1-0.4,0.3-0.6,0.3
			c-0.2,0.1-0.5,0.1-0.7,0.1H235.8z"/>
		<path class="st0" d="M232.5,262.4v2.6c0.6-0.4,1.2-0.7,1.9-1.1s1.4-0.6,2.1-0.8c0.7-0.2,1.4-0.4,2.2-0.5c0.7-0.1,1.4-0.2,2.1-0.2
			c1,0,2,0.1,2.9,0.4c0.9,0.2,1.7,0.7,2.4,1.2c0.7,0.6,1.2,1.3,1.6,2.2c0.4,0.9,0.6,2,0.6,3.3v3.3c0,0.7-0.1,1.3-0.4,1.9
			c-0.3,0.6-0.7,1.1-1.2,1.5c-0.5,0.4-1.1,0.8-1.8,1c-0.7,0.3-1.4,0.4-2.2,0.4h-16.9v-3h3.5v-12.2H232.5z M240.7,265.4
			c-0.6,0-1.2,0.1-1.9,0.2c-0.6,0.1-1.3,0.3-1.9,0.5c-0.6,0.2-1.2,0.5-1.7,0.8c-0.5,0.3-1,0.6-1.4,1c-0.4,0.3-0.7,0.7-1,1.1
			c-0.2,0.4-0.4,0.7-0.4,1.1v4.6h10c0.3,0,0.6,0,0.9-0.1c0.3-0.1,0.5-0.2,0.7-0.4c0.2-0.2,0.4-0.4,0.5-0.6c0.1-0.2,0.2-0.5,0.2-0.7
			v-3.3c0-0.7-0.1-1.4-0.3-1.9c-0.2-0.5-0.5-0.9-0.9-1.3c-0.4-0.3-0.8-0.6-1.3-0.7C241.7,265.4,241.2,265.4,240.7,265.4z"/>
		<path class="st0" d="M254.5,280.5h5.4c0.5,0,1-0.1,1.5-0.2s0.9-0.3,1.3-0.6c0.4-0.3,0.7-0.6,1-0.9c0.3-0.4,0.5-0.7,0.6-1.2h-6.7
			c-0.8,0-1.5-0.1-2.2-0.4c-0.7-0.2-1.3-0.6-1.8-1c-0.5-0.4-0.9-0.9-1.2-1.5c-0.3-0.6-0.4-1.2-0.4-1.9v-3.3c0-1,0.2-1.9,0.6-2.7
			c0.4-0.8,1-1.6,1.7-2.2c0.7-0.6,1.5-1.1,2.5-1.5s2-0.6,3.1-0.6c0.7,0,1.4,0.1,2.1,0.3c0.7,0.2,1.3,0.4,1.9,0.7
			c0.6,0.3,1.1,0.7,1.6,1.1c0.5,0.4,0.9,0.9,1.2,1.4c0.3,0.5,0.6,1.1,0.8,1.6s0.3,1.2,0.3,1.8v5.3h3.5v3h-3.6
			c-0.1,0.8-0.4,1.6-0.9,2.3c-0.5,0.7-1,1.3-1.7,1.9c-0.7,0.5-1.5,0.9-2.4,1.2c-0.9,0.3-1.8,0.5-2.8,0.5h-5.4V280.5z M264.3,274.6
			v-5.3c0-0.5-0.1-1-0.4-1.5c-0.2-0.5-0.6-0.9-1-1.3c-0.4-0.4-0.9-0.6-1.4-0.9c-0.5-0.2-1.1-0.3-1.8-0.3c-0.6,0-1.2,0.1-1.7,0.3
			c-0.5,0.2-1,0.5-1.4,0.9s-0.7,0.8-1,1.3c-0.2,0.5-0.4,1-0.4,1.6v3.3c0,0.3,0.1,0.5,0.2,0.7c0.1,0.2,0.3,0.4,0.5,0.6
			c0.2,0.2,0.4,0.3,0.7,0.4c0.3,0.1,0.5,0.1,0.8,0.1H264.3z"/>
		<path class="st0" d="M279.1,262.4v10.3c0,0.7-0.1,1.3-0.4,1.9c-0.3,0.6-0.7,1.1-1.2,1.5c-0.5,0.4-1.1,0.8-1.8,1s-1.4,0.4-2.2,0.4
			h-3.7v-3h3.7c0.3,0,0.6,0,0.9-0.1c0.3-0.1,0.5-0.2,0.7-0.4c0.2-0.2,0.4-0.4,0.5-0.6c0.1-0.2,0.2-0.5,0.2-0.8v-10.3H279.1z
			 M270.4,281.9c0-0.2,0-0.4,0.1-0.6c0.1-0.2,0.2-0.3,0.4-0.5c0.2-0.1,0.4-0.3,0.6-0.3c0.2-0.1,0.4-0.1,0.7-0.1c0.2,0,0.5,0,0.7,0.1
			c0.2,0.1,0.4,0.2,0.6,0.3c0.2,0.1,0.3,0.3,0.4,0.5c0.1,0.2,0.1,0.4,0.1,0.6c0,0.2,0,0.4-0.1,0.6c-0.1,0.2-0.2,0.3-0.4,0.5
			c-0.2,0.1-0.4,0.2-0.6,0.3c-0.2,0.1-0.4,0.1-0.7,0.1c-0.2,0-0.5,0-0.7-0.1c-0.2-0.1-0.4-0.2-0.6-0.3c-0.2-0.1-0.3-0.3-0.4-0.5
			C270.5,282.3,270.4,282.1,270.4,281.9z M275.6,281.9c0-0.2,0-0.4,0.1-0.6c0.1-0.2,0.2-0.3,0.4-0.5c0.2-0.1,0.4-0.3,0.6-0.3
			c0.2-0.1,0.4-0.1,0.7-0.1s0.5,0,0.7,0.1c0.2,0.1,0.4,0.2,0.6,0.3c0.2,0.1,0.3,0.3,0.4,0.5c0.1,0.2,0.1,0.4,0.1,0.6
			c0,0.4-0.2,0.8-0.5,1.1c-0.3,0.3-0.8,0.4-1.2,0.4c-0.2,0-0.5,0-0.7-0.1c-0.2-0.1-0.4-0.2-0.6-0.3c-0.2-0.1-0.3-0.3-0.4-0.5
			C275.6,282.3,275.6,282.1,275.6,281.9z"/>
	</g>
	<path class="st0" d="M218,184.6c8.9,0,17.8,0,27,0c0,3.1,0,6.2,0,9.8c-4,0-8.1,0.1-12.1,0c-2.6-0.1-3.8,0.6-3.5,3.4
		c0.2,2.4,0,4.9,0,7.8c3.8,0,7.2,0.1,10.6,0c2.3-0.1,3.3,0.5,3.2,3c-0.1,6.4,0,6.4-6.3,6.4c-7.8,0-7.8,0-7.5,7.9
		c0,0.6,0.1,1.2,0.2,2.2c5.1,0,10.2,0,15.8,0c-1.4,3.5-2.6,6.5-3.8,9.3c-0.2,0.5-1.1,0.9-1.7,0.9c-6.8,0.1-13.6,0.1-20.4,0
		c-0.7,0-1.9-1.3-1.9-1.9c-0.1-15.9,0-31.9,0-47.8C217.6,185.3,217.8,185.1,218,184.6z"/>
	<path class="st0" d="M163.3,184.5c4.5,17,9,33.7,13.7,50.9c-3.9,0-7.4,0.1-11-0.1c-0.6,0-1.4-1.6-1.6-2.5
		c-2.2-9.6-4.3-19.3-6.4-28.9c-0.2-1.1-0.5-2.2-1.3-3.4c-0.3,0.9-0.6,1.7-0.8,2.6c-2.2,9.8-4.4,19.6-6.5,29.5
		c-0.5,2.3-1.5,3-3.7,2.9c-2.8-0.2-5.7,0-9,0c1.4-5.1,2.6-9.7,3.9-14.4c2.6-9.6,5.1-19.3,7.9-28.9c0.4-1.3,1.7-2.7,3-3.3
		C155.2,187.3,159.1,186,163.3,184.5z"/>
	<path class="st0" d="M280.5,224.2c-1.4,3.7-2.4,6.8-3.7,9.9c-0.2,0.6-1.1,1.3-1.7,1.3c-7.3,0.1-14.5,0.1-22.1,0.1
		c0-1.5,0-2.6,0-3.7c0-13.3,0.1-26.7-0.1-40c0-2.6,0.8-3.7,3.2-4.3c2.8-0.7,5.4-1.8,8.6-2.9c0.1,1.4,0.2,2.5,0.2,3.5
		c0,10.9,0.1,21.8-0.1,32.7c0,2.6,0.6,3.7,3.4,3.5C272,224,275.9,224.2,280.5,224.2z"/>
	<path class="st0" d="M225.7,158c0-9.8,0-18.9,0-28c0-6,0.1-11.9,0-17.9c0-1.8,0.5-2.8,2.3-3.4c3-0.9,6-2.1,9.2-3.3
		c0.1,1.2,0.2,2.1,0.2,3c0,14.2,0,28.3,0.1,42.5c0,2.1-0.5,3.2-2.6,3.8C232,155.6,229.1,156.8,225.7,158z"/>
</g>
</svg>
